<svg width="205" height="205" viewBox="0 0 205 205" fill="none" xmlns="http://www.w3.org/2000/svg">
<path d="M8.21974 176.724H170.038C173.613 176.724 176.511 173.826 176.511 170.251V8.43293C176.511 4.85814 173.613 1.96021 170.038 1.96021H8.21974C4.64495 1.96021 1.74701 4.85814 1.74701 8.43293V170.251C1.74701 173.826 4.64495 176.724 8.21974 176.724Z" fill="#D6DCDC" stroke="#231F20" stroke-width="3.23636" stroke-linecap="round" stroke-linejoin="round"/>
<path d="M170.038 1.96021H27.638C24.0632 1.96021 21.1653 4.85814 21.1653 8.43293V170.251C21.1653 173.826 24.0632 176.724 27.638 176.724H170.038C173.613 176.724 176.511 173.826 176.511 170.251V8.43293C176.511 4.85814 173.613 1.96021 170.038 1.96021Z" fill="white" stroke="#231F20" stroke-width="3.23636" stroke-linecap="round" stroke-linejoin="round"/>
<path d="M163.565 163.778V14.9058H34.1107V163.778H163.565Z" fill="#ADF1FF" stroke="#231F20" stroke-width="3.23636" stroke-linecap="round" stroke-linejoin="round"/>
<path d="M60.8104 58.5966C60.4743 58.6007 60.1404 58.6468 59.8157 58.7343C59.4542 57.1891 58.5372 55.8309 57.239 54.9185C55.9409 54.0056 54.3522 53.6022 52.7759 53.785C51.1995 53.9678 49.7455 54.7243 48.6907 55.9101C47.636 57.0954 47.0542 58.6276 47.0561 60.2147C46.1978 60.2147 45.3746 60.5555 44.7677 61.1629C44.1607 61.7697 43.8198 62.5926 43.8198 63.4511C43.8198 64.3096 44.1607 65.1325 44.7677 65.7393C45.3746 66.3467 46.1978 66.6875 47.0561 66.6875H60.8104C61.8838 66.6875 62.9128 66.2613 63.6714 65.5027C64.43 64.7441 64.8561 63.7152 64.8561 62.6423C64.8561 61.5694 64.43 60.5399 63.6714 59.7813C62.9128 59.0227 61.8838 58.5966 60.8104 58.5966V58.5966Z" fill="white" stroke="white" stroke-width="3.23636" stroke-linecap="round" stroke-linejoin="round"/>
<path d="M148.877 30.5896C148.464 30.5947 148.052 30.6518 147.652 30.7595C147.208 28.8576 146.079 27.1858 144.481 26.0625C142.884 24.9391 140.928 24.4427 138.988 24.6678C137.048 24.8929 135.258 25.8237 133.96 27.283C132.662 28.7423 131.946 30.6281 131.948 32.5813C130.892 32.5813 129.879 33.001 129.132 33.748C128.385 34.4949 127.965 35.5081 127.965 36.5645C127.965 37.6209 128.385 38.634 129.132 39.381C129.879 40.1281 130.892 40.5477 131.948 40.5477H148.877C150.196 40.5444 151.459 40.0183 152.39 39.0849C153.321 38.1515 153.844 36.887 153.844 35.5687C153.844 34.2503 153.321 32.9858 152.39 32.0525C151.459 31.1191 150.196 30.593 148.877 30.5896Z" fill="white" stroke="white" stroke-width="3.23636" stroke-linecap="round" stroke-linejoin="round"/>
<path d="M40.5834 8.43286H43.8197" stroke="#231F20" stroke-width="3.23636" stroke-linecap="round" stroke-linejoin="round"/>
<path d="M66.4743 8.43286H69.7107" stroke="#231F20" stroke-width="3.23636" stroke-linecap="round" stroke-linejoin="round"/>
<path d="M53.5288 8.43286H56.7652" stroke="#231F20" stroke-width="3.23636" stroke-linecap="round" stroke-linejoin="round"/>
<path d="M34.1106 14.9056L24.4016 5.19653" stroke="#231F20" stroke-width="3.23636" stroke-linecap="round" stroke-linejoin="round"/>
<path d="M163.565 14.9056L173.274 5.19653" stroke="#231F20" stroke-width="3.23636" stroke-linecap="round" stroke-linejoin="round"/>
<path d="M34.1106 163.778L24.4016 173.487" stroke="#231F20" stroke-width="3.23636" stroke-linecap="round" stroke-linejoin="round"/>
<path d="M163.565 163.778L173.274 173.487" stroke="#231F20" stroke-width="3.23636" stroke-linecap="round" stroke-linejoin="round"/>
<path d="M163.565 115.233H34.1107V163.778H163.565V115.233Z" fill="#3A755C" stroke="#231F20" stroke-width="3.23636" stroke-linecap="round" stroke-linejoin="round"/>
<path d="M34.1107 123.228C34.1107 123.228 84.3706 123.208 84.6787 131.078C84.9868 138.948 45.5717 133.964 45.5717 146.031C45.5717 158.098 70.6412 163.778 121.492 163.778" stroke="#231F20" stroke-width="3.23636" stroke-linecap="round" stroke-linejoin="round"/>
<path d="M136.348 71.8242L89.554 91.3103C88.611 91.7028 87.5883 91.8669 86.5698 91.7887C85.5507 91.71 84.5653 91.3921 83.6933 90.8592L64.0587 78.8733C62.8822 78.1551 61.5074 77.8315 60.1341 77.949C58.7609 78.0665 57.4612 78.6191 56.424 79.5268L34.1107 99.0511V115.233H163.565V99.0511L143.945 73.8256C143.074 72.7051 141.858 71.9019 140.485 71.54C139.112 71.1785 137.658 71.2785 136.348 71.8242V71.8242Z" fill="#569161" stroke="#231F20" stroke-width="3.23636" stroke-linecap="round" stroke-linejoin="round"/>
<path d="M34.1107 111.997L43.8197 108.76L50.2925 111.997L56.7652 105.524L69.7107 111.997L79.4198 102.288L92.3652 111.997L98.8379 105.524L111.783 111.997L124.729 105.524L131.202 111.997L144.147 105.524L150.62 111.997L163.565 108.76V115.233H34.1107V111.997Z" fill="#231F20" stroke="#231F20" stroke-width="3.23636" stroke-linecap="round" stroke-linejoin="round"/>
<path d="M131.202 111.996H72.947V63.451C72.947 55.7262 76.0156 48.3174 81.4781 42.8549C86.9405 37.3925 94.3495 34.3237 102.074 34.3237C109.799 34.3237 117.208 37.3925 122.671 42.8549C128.133 48.3174 131.202 55.7262 131.202 63.451V111.996Z" fill="#231F20" stroke="#231F20" stroke-width="3.23636" stroke-linecap="round" stroke-linejoin="round"/>
<path d="M97.2197 89.342H106.929C115.941 89.342 124.585 92.9222 130.958 99.295C137.33 105.668 140.911 114.311 140.911 123.324V163.778H63.2379V123.324C63.2379 114.311 66.8181 105.668 73.1909 99.295C79.5637 92.9222 88.2071 89.342 97.2197 89.342Z" fill="#666666" stroke="#231F20" stroke-width="3.23636" stroke-linecap="round" stroke-linejoin="round"/>
<path d="M82.6561 123.324V144.36" stroke="#231F20" stroke-width="3.23636" stroke-linecap="round" stroke-linejoin="round"/>
<path d="M120.372 101.981C121.169 101.207 121.755 100.241 122.071 99.1754C122.388 98.1097 122.425 96.9809 122.18 95.8971C121.935 94.8128 121.416 93.8098 120.672 92.9839C119.928 92.1585 118.985 91.5376 117.932 91.1808C114.392 89.9608 110.673 89.3395 106.929 89.342H97.2198C93.4754 89.3395 89.7565 89.9608 86.2166 91.1808C85.1639 91.5376 84.2205 92.1585 83.4763 92.9839C82.7322 93.8098 82.2129 94.8128 81.9679 95.8971C81.723 96.9809 81.7608 98.1097 82.0772 99.1754C82.3941 100.241 82.9792 101.207 83.7762 101.981C88.8694 106.355 95.3608 108.76 102.074 108.76C108.788 108.76 115.279 106.355 120.372 101.981H120.372Z" fill="#FBE8C2" stroke="#231F20" stroke-width="3.23636" stroke-linecap="round" stroke-linejoin="round"/>
<path d="M127.965 136.269C127.683 131.484 128.473 126.695 130.278 122.253C132.082 117.812 134.855 113.829 138.395 110.595C135.483 103.401 130.205 97.4165 123.432 93.6287C117.007 96.8956 111.611 101.876 107.842 108.02C104.073 114.163 102.076 121.23 102.074 128.437V144.36H127.965V136.269Z" fill="#989898" stroke="#231F20" stroke-width="3.23636" stroke-linecap="round" stroke-linejoin="round"/>
<path d="M111.783 144.36H121.492V163.778H102.074C100.787 163.778 99.552 163.267 98.6417 162.356C97.7313 161.446 97.2197 160.211 97.2197 158.924C97.2197 155.061 98.754 151.357 101.486 148.626C104.216 145.894 107.921 144.36 111.783 144.36Z" fill="#FBE8C2" stroke="#231F20" stroke-width="3.23636" stroke-linecap="round" stroke-linejoin="round"/>
<path d="M87.5107 144.36H97.2198C101.082 144.36 104.787 145.894 107.518 148.626C110.249 151.357 111.783 155.061 111.783 158.924C111.783 160.211 111.272 161.446 110.361 162.356C109.451 163.267 108.216 163.778 106.929 163.778H87.5107V144.36Z" fill="#FBE8C2" stroke="#231F20" stroke-width="3.23636" stroke-linecap="round" stroke-linejoin="round"/>
<path d="M121.492 144.36H131.202" stroke="#231F20" stroke-width="3.23636" stroke-linecap="round" stroke-linejoin="round"/>
<path d="M87.5106 163.778H63.2379C63.2379 158.628 65.2838 153.689 68.9251 150.047C72.5669 146.406 77.5059 144.36 82.6561 144.36H97.2197C94.6446 144.36 92.1752 145.383 90.3545 147.204C88.5333 149.025 87.5106 151.494 87.5106 154.069V163.778Z" fill="#989898" stroke="#231F20" stroke-width="3.23636" stroke-linecap="round" stroke-linejoin="round"/>
<path d="M75.3745 163.778V158.924C75.3745 155.061 76.9088 151.357 79.6398 148.626C82.3713 145.894 86.0752 144.36 89.9376 144.36H97.2197" stroke="#231F20" stroke-width="3.23636" stroke-linecap="round" stroke-linejoin="round"/>
<path d="M114.211 144.36V134.206C114.211 127.874 115.759 121.638 118.72 116.041C121.681 110.445 125.966 105.658 131.202 102.096" stroke="#231F20" stroke-width="3.23636" stroke-linecap="round" stroke-linejoin="round"/>
<path d="M102.074 92.5783C118.161 92.5783 131.202 79.5375 131.202 63.451C131.202 47.3645 118.161 34.3237 102.074 34.3237C85.9878 34.3237 72.947 47.3645 72.947 63.451C72.947 79.5375 85.9878 92.5783 102.074 92.5783Z" fill="#FBE8C2" stroke="#231F20" stroke-width="3.23636" stroke-linecap="round" stroke-linejoin="round"/>
<path d="M86.2969 77.6104C88.0844 77.6104 89.5333 76.1616 89.5333 74.3741C89.5333 72.5866 88.0844 71.1377 86.2969 71.1377C84.5094 71.1377 83.0605 72.5866 83.0605 74.3741C83.0605 76.1616 84.5094 77.6104 86.2969 77.6104Z" fill="#FBBD9C"/>
<path d="M117.852 77.6104C119.639 77.6104 121.088 76.1616 121.088 74.3741C121.088 72.5866 119.639 71.1377 117.852 71.1377C116.064 71.1377 114.615 72.5866 114.615 74.3741C114.615 76.1616 116.064 77.6104 117.852 77.6104Z" fill="#FBBD9C"/>
<path d="M131.202 66.6874V63.451C131.202 55.7262 128.133 48.3174 122.67 42.8549C117.208 37.3925 109.799 34.3237 102.074 34.3237C95.6015 56.9783 131.202 47.2692 131.202 66.6874Z" fill="#231F20" stroke="#231F20" stroke-width="3.23636" stroke-linecap="round" stroke-linejoin="round"/>
<path d="M72.947 66.6874V63.451C72.947 55.7262 76.0156 48.3174 81.4781 42.8549C86.9405 37.3925 94.3495 34.3237 102.074 34.3237C108.547 56.9783 72.947 47.2692 72.947 66.6874Z" fill="#231F20" stroke="#231F20" stroke-width="3.23636" stroke-linecap="round" stroke-linejoin="round"/>
<path d="M97.2197 80.4419C98.7136 81.2388 100.381 81.6557 102.074 81.6557C103.768 81.6557 105.435 81.2388 106.929 80.4419" stroke="#231F20" stroke-width="3.23636" stroke-linecap="round" stroke-linejoin="round"/>
<path d="M111.783 63.4512V65.8787" stroke="#231F20" stroke-width="3.23636" stroke-linecap="round" stroke-linejoin="round"/>
<path d="M92.3652 65.8787V63.4512" stroke="#231F20" stroke-width="3.23636" stroke-linecap="round" stroke-linejoin="round"/>
<path d="M163.565 202.615C185.014 202.615 202.402 185.227 202.402 163.779C202.402 142.33 185.014 124.942 163.565 124.942C142.117 124.942 124.729 142.33 124.729 163.779C124.729 185.227 142.117 202.615 163.565 202.615Z" fill="white" stroke="#231F20" stroke-width="3.23636" stroke-linecap="round" stroke-linejoin="round"/>
<path d="M163.565 189.669C177.864 189.669 189.456 178.077 189.456 163.778C189.456 149.479 177.864 137.887 163.565 137.887C149.266 137.887 137.674 149.479 137.674 163.778C137.674 178.077 149.266 189.669 163.565 189.669Z" fill="#55478E"/>
<path d="M163.565 144.36L149.002 163.778L163.565 183.196L178.129 163.778L163.565 144.36Z" stroke="#231F20" stroke-width="3.23636" stroke-linecap="round" stroke-linejoin="round"/>
<path d="M149.002 163.778L163.565 170.251L178.129 163.778" stroke="#231F20" stroke-width="3.23636" stroke-linecap="round" stroke-linejoin="round"/>
</svg>
