<svg width="15" height="47" viewBox="0 0 15 47" fill="none" xmlns="http://www.w3.org/2000/svg">
<path d="M10.3818 6.32955H9.60591V4.13908H9.53202C9.19951 4.13908 8.97783 3.5514 8.97783 2.85686C8.97783 2.16232 9.19951 1.57464 9.53202 1.57464H9.60591V0.506118H5.17241V6.32955H4.4335V7.77205H10.3818V6.32955ZM13.4852 11.8858C13.633 11.6187 13.7438 11.2982 13.7438 10.9242C13.7438 10.1762 13.3374 9.58853 12.8202 9.58853H1.51478C0.997537 9.58853 0.554187 10.1762 0.554187 10.9242C0.554187 11.2982 0.665025 11.6187 0.849754 11.8858C0.332512 12.4735 0 13.3818 0 14.3969V41.2701H14.335V14.3969C14.335 13.3818 14.0025 12.4735 13.4852 11.8858ZM0 43.4606C0 45.2771 0.997537 46.773 2.25369 46.773H12.0813C13.3005 46.773 14.335 45.2771 14.335 43.4606V43.2469H0V43.4606ZM12.4507 3.33769H14.5567C14.8153 3.33769 14.9631 3.23084 15 2.85686C15 2.5363 14.8153 2.37603 14.5567 2.37603H12.3768C12.266 2.37603 12.1921 2.37603 12.1182 2.3226C12.8571 1.84177 13.5591 1.41436 14.298 0.933526C14.5197 0.826674 14.6675 0.61297 14.5567 0.292414C14.4458 -0.0815678 14.2241 -0.0281419 13.9655 0.0787101C12.7094 0.826674 11.4532 1.62806 10.197 2.37603C10.0862 2.48288 9.93842 2.69658 9.93842 2.85686C9.97537 3.01714 10.0862 3.23084 10.234 3.33769C10.6034 3.60482 11.0099 3.81853 11.3793 4.03223L13.9655 5.63501C14.2241 5.74186 14.4458 5.79529 14.5567 5.42131C14.6675 5.10075 14.5197 4.88705 14.298 4.78019C14.1872 4.72677 14.1133 4.61992 14.0025 4.56649L12.0443 3.39112L12.0813 3.33769H12.4507Z" fill="#FF66C4"/>
</svg>
