<svg width="43" height="32" viewBox="0 0 43 32" fill="none" xmlns="http://www.w3.org/2000/svg">
<path d="M3.16667 18.2529C4.43232 18.2529 5.45833 17.1077 5.45833 15.695C5.45833 14.2823 4.43232 13.1371 3.16667 13.1371C1.90101 13.1371 0.875 14.2823 0.875 15.695C0.875 17.1077 1.90101 18.2529 3.16667 18.2529Z" fill="url(#paint0_linear_66_1322)"/>
<path d="M39.9708 13.1371H12.1958C11.0061 13.1371 10.0416 14.2136 10.0416 15.5415V15.8484C10.0416 17.1764 11.0061 18.2529 12.1958 18.2529H39.9708C41.1605 18.2529 42.125 17.1764 42.125 15.8484V15.5415C42.125 14.2136 41.1605 13.1371 39.9708 13.1371Z" fill="url(#paint1_linear_66_1322)"/>
<path d="M39.9708 25.9266H3.02917C1.83945 25.9266 0.875 27.0031 0.875 28.331V28.638C0.875 29.9659 1.83945 31.0424 3.02917 31.0424H39.9708C41.1605 31.0424 42.125 29.9659 42.125 28.638V28.331C42.125 27.0031 41.1605 25.9266 39.9708 25.9266Z" fill="url(#paint2_linear_66_1322)"/>
<path d="M39.9708 0.347504H3.02917C1.83945 0.347504 0.875 1.42401 0.875 2.75194V3.05889C0.875 4.38683 1.83945 5.46333 3.02917 5.46333H39.9708C41.1605 5.46333 42.125 4.38683 42.125 3.05889V2.75194C42.125 1.42401 41.1605 0.347504 39.9708 0.347504Z" fill="url(#paint3_linear_66_1322)"/>
<defs>
<linearGradient id="paint0_linear_66_1322" x1="1.16146" y1="13.4704" x2="6.97534" y2="16.8571" gradientUnits="userSpaceOnUse">
<stop stop-color="#FF66C4"/>
<stop offset="1" stop-color="#00FFF2"/>
</linearGradient>
<linearGradient id="paint1_linear_66_1322" x1="12.0468" y1="13.4704" x2="15.139" y2="26.0792" gradientUnits="userSpaceOnUse">
<stop stop-color="#FF66C4"/>
<stop offset="1" stop-color="#00FFF2"/>
</linearGradient>
<linearGradient id="paint2_linear_66_1322" x1="3.45313" y1="26.2599" x2="5.91326" y2="39.1579" gradientUnits="userSpaceOnUse">
<stop stop-color="#FF66C4"/>
<stop offset="1" stop-color="#00FFF2"/>
</linearGradient>
<linearGradient id="paint3_linear_66_1322" x1="3.45313" y1="0.680837" x2="5.91326" y2="13.5788" gradientUnits="userSpaceOnUse">
<stop stop-color="#FF66C4"/>
<stop offset="1" stop-color="#00FFF2"/>
</linearGradient>
</defs>
</svg>
