<svg width="46" height="39" viewBox="0 0 46 39" fill="none" xmlns="http://www.w3.org/2000/svg">
<path fill-rule="evenodd" clip-rule="evenodd" d="M12.4138 6.12417C12.5619 5.91218 12.7264 5.65266 12.9362 5.30272C13.0538 5.10663 13.4827 4.37624 13.5529 4.25818C15.2862 1.33958 16.5462 0 18.8182 0H27.1818C29.4538 0 30.7138 1.33958 32.4471 4.25818C32.5173 4.37624 32.9462 5.10663 33.0638 5.30272C33.2736 5.65266 33.4381 5.91218 33.5862 6.12417C33.6839 6.26397 33.7692 6.37505 33.8389 6.45697H39.7273C43.1916 6.45697 46 9.34785 46 12.9139V32.2849C46 35.8509 43.1916 38.7418 39.7273 38.7418H6.27273C2.8084 38.7418 0 35.8509 0 32.2849V12.9139C0 9.34785 2.8084 6.45697 6.27273 6.45697H12.1611C12.2308 6.37505 12.3161 6.26397 12.4138 6.12417ZM6.27273 10.7616C5.11795 10.7616 4.18182 11.7252 4.18182 12.9139V32.2849C4.18182 33.4735 5.11795 34.4372 6.27273 34.4372H39.7273C40.882 34.4372 41.8182 33.4735 41.8182 32.2849V12.9139C41.8182 11.7252 40.882 10.7616 39.7273 10.7616H33.4545C32.0655 10.7616 31.1287 9.97905 30.1914 8.63782C29.9758 8.32923 29.7622 7.99226 29.5051 7.56346C29.3753 7.34692 28.9399 6.60566 28.8792 6.50343C27.9335 4.911 27.3632 4.30465 27.1818 4.30465H18.8182C18.6368 4.30465 18.0665 4.911 17.1208 6.50343C17.0601 6.60566 16.6247 7.34692 16.4949 7.56346C16.2378 7.99226 16.0242 8.32923 15.8086 8.63782C14.8713 9.97905 13.9345 10.7616 12.5455 10.7616H6.27273ZM37.6364 17.2186C38.7911 17.2186 39.7273 16.255 39.7273 15.0663C39.7273 13.8776 38.7911 12.9139 37.6364 12.9139C36.4816 12.9139 35.5455 13.8776 35.5455 15.0663C35.5455 16.255 36.4816 17.2186 37.6364 17.2186ZM23 32.2849C17.2261 32.2849 12.5455 27.4667 12.5455 21.5232C12.5455 15.5798 17.2261 10.7616 23 10.7616C28.7739 10.7616 33.4545 15.5798 33.4545 21.5232C33.4545 27.4667 28.7739 32.2849 23 32.2849ZM23 27.9802C26.4643 27.9802 29.2727 25.0893 29.2727 21.5232C29.2727 17.9571 26.4643 15.0663 23 15.0663C19.5357 15.0663 16.7273 17.9571 16.7273 21.5232C16.7273 25.0893 19.5357 27.9802 23 27.9802Z" fill="white"/>
</svg>
