<svg width="95" height="72" viewBox="0 0 95 72" fill="none" xmlns="http://www.w3.org/2000/svg">
<path d="M91.7814 2.93429C87.8413 -0.978095 81.4941 -0.978095 77.5817 2.93429L33.609 46.9555L17.134 30.4944C13.1939 26.582 6.84667 26.582 2.93429 30.4944C-0.978095 34.4345 -0.978095 40.7817 2.93429 44.6941L25.5553 67.2943C25.8259 67.6481 26.1242 67.995 26.4502 68.321C28.8503 70.7211 32.1592 71.6576 35.253 71.1304C37.2786 70.8113 39.2279 69.8748 40.7817 68.321C41.1077 67.995 41.406 67.6481 41.6766 67.2874L91.7814 17.134C95.6938 13.1939 95.6938 6.84667 91.7814 2.93429V2.93429Z" fill="white"/>
</svg>
