<svg width="101" height="101" viewBox="0 0 101 101" fill="none" xmlns="http://www.w3.org/2000/svg">
<path d="M50.1637 95.5337C51.9192 95.4933 53.6039 94.8333 54.9197 93.6705C56.2356 92.5077 57.0978 90.9169 57.3538 89.1797H42.6949C42.9581 90.9642 43.8607 92.5922 45.2345 93.761C46.6084 94.9299 48.3601 95.5598 50.1637 95.5337V95.5337Z" fill="black"/>
<path d="M90.6011 77.5584C87.9137 75.1627 85.5609 72.4162 83.606 69.3929C81.4719 65.2197 80.1928 60.6623 79.8438 55.988V42.2209C79.8324 40.5486 79.6833 38.8802 79.3979 37.2324C77.2043 36.7939 75.0962 36.0034 73.1553 34.8914C73.8951 37.2738 74.2709 39.7542 74.27 42.2488V56.0159C74.6116 61.7179 76.1801 67.279 78.8683 72.3191C80.7924 75.3679 83.0754 78.1749 85.6683 80.6797H14.2966C16.8895 78.1749 19.1725 75.3679 21.0966 72.3191C23.7848 67.279 25.3533 61.7179 25.6949 56.0159V42.2209C25.6802 38.9956 26.3019 35.7991 27.5243 32.8144C28.7467 29.8298 30.5459 27.1155 32.8187 24.8271C35.0916 22.5387 37.7935 20.7211 40.7698 19.4784C43.7461 18.2357 46.9383 17.5923 50.1636 17.585C54.8839 17.5888 59.4982 18.9847 63.4291 21.5981C62.9957 20.0067 62.7525 18.3696 62.7045 16.7211C62.7045 16.1358 62.7045 15.5506 62.7045 14.9653C59.7946 13.5339 56.6685 12.5923 53.4521 12.1785V8.667C53.4521 8.17842 53.3559 7.69463 53.1689 7.24324C52.9819 6.79185 52.7079 6.38171 52.3624 6.03623C52.0169 5.69076 51.6068 5.41671 51.1554 5.22974C50.704 5.04277 50.2202 4.94653 49.7316 4.94653C49.2431 4.94653 48.7593 5.04277 48.3079 5.22974C47.8565 5.41671 47.4463 5.69076 47.1009 6.03623C46.7554 6.38171 46.4813 6.79185 46.2944 7.24324C46.1074 7.69463 46.0112 8.17842 46.0112 8.667V12.3178C38.8091 13.3338 32.2178 16.921 27.454 22.4172C22.6903 27.9135 20.0758 34.9476 20.0933 42.2209V55.988C19.7442 60.6623 18.4651 65.2197 16.331 69.3929C14.4105 72.4092 12.0955 75.1554 9.44744 77.5584C9.15017 77.8196 8.91192 78.141 8.74855 78.5014C8.58517 78.8618 8.50041 79.2529 8.49991 79.6486V83.4387C8.49991 84.1778 8.79352 84.8867 9.31616 85.4093C9.8388 85.932 10.5477 86.2256 11.2868 86.2256H88.7617C89.5009 86.2256 90.2097 85.932 90.7323 85.4093C91.255 84.8867 91.5486 84.1778 91.5486 83.4387V79.6486C91.5481 79.2529 91.4633 78.8618 91.3 78.5014C91.1366 78.141 90.8983 77.8196 90.6011 77.5584V77.5584Z" fill="black"/>
<path d="M83.6061 30.6556C91.3018 30.6556 97.5404 24.4169 97.5404 16.7212C97.5404 9.02548 91.3018 2.78687 83.6061 2.78687C75.9103 2.78687 69.6717 9.02548 69.6717 16.7212C69.6717 24.4169 75.9103 30.6556 83.6061 30.6556Z" fill="black"/>
</svg>
