<svg width="102" height="102" viewBox="0 0 102 102" fill="none" xmlns="http://www.w3.org/2000/svg">
<path d="M91.3481 78.5186C88.6607 76.1229 86.3079 73.3764 84.3531 70.3531C82.2189 66.1799 80.9398 61.6225 80.5908 56.9482V43.1811C80.6092 35.8394 77.9461 28.7437 73.1017 23.2271C68.2574 17.7104 61.5653 14.1527 54.2827 13.2223V9.62721C54.2827 8.64048 53.8908 7.69416 53.193 6.99644C52.4953 6.29872 51.549 5.90674 50.5623 5.90674C49.5755 5.90674 48.6292 6.29872 47.9315 6.99644C47.2338 7.69416 46.8418 8.64048 46.8418 9.62721V13.278C39.6245 14.2755 33.0133 17.8548 28.2326 23.3528C23.4519 28.8509 20.8256 35.8952 20.8403 43.1811V56.9482C20.4913 61.6225 19.2122 66.1799 17.0781 70.3531C15.1576 73.3695 12.8426 76.1156 10.1945 78.5186C9.89721 78.7798 9.65896 79.1012 9.49559 79.4616C9.33221 79.822 9.24745 80.2131 9.24695 80.6088V84.3989C9.24695 85.138 9.54056 85.8469 10.0632 86.3695C10.5858 86.8922 11.2947 87.1858 12.0338 87.1858H89.5088C90.2479 87.1858 90.9567 86.8922 91.4794 86.3695C92.002 85.8469 92.2956 85.138 92.2956 84.3989V80.6088C92.2951 80.2131 92.2104 79.822 92.047 79.4616C91.8836 79.1012 91.6454 78.7798 91.3481 78.5186ZM15.0436 81.612C17.6366 79.1072 19.9195 76.3003 21.8436 73.2514C24.5318 68.2113 26.1003 62.6502 26.4419 56.9482V43.1811C26.3314 39.915 26.8793 36.66 28.0529 33.6101C29.2265 30.5601 31.0018 27.7775 33.2732 25.4279C35.5446 23.0784 38.2656 21.2099 41.2741 19.9338C44.2827 18.6577 47.5172 18.0001 50.7852 18.0001C54.0532 18.0001 57.2878 18.6577 60.2963 19.9338C63.3048 21.2099 66.0258 23.0784 68.2972 25.4279C70.5686 27.7775 72.344 30.5601 73.5176 33.6101C74.6912 36.66 75.2391 39.915 75.1285 43.1811V56.9482C75.4701 62.6502 77.0386 68.2113 79.7269 73.2514C81.6509 76.3003 83.9339 79.1072 86.5268 81.612H15.0436Z" fill="black"/>
<path d="M50.9107 96.4942C52.6663 96.4538 54.3509 95.7938 55.6668 94.6309C56.9826 93.4681 57.8448 91.8774 58.1008 90.1401H43.4419C43.7052 91.9246 44.6077 93.5527 45.9816 94.7215C47.3554 95.8903 49.1071 96.5203 50.9107 96.4942V96.4942Z" fill="black"/>
</svg>
