<svg xmlns="http://www.w3.org/2000/svg" xmlns:xlink="http://www.w3.org/1999/xlink" width="500" zoomAndPan="magnify" viewBox="0 0 375 374.999991" height="500" preserveAspectRatio="xMidYMid meet" version="1.0"><defs><clipPath id="62678ccc29"><path d="M 6.210938 124.214844 L 368.460938 124.214844 L 368.460938 250.964844 L 6.210938 250.964844 Z M 6.210938 124.214844 " clip-rule="nonzero"/></clipPath><clipPath id="4755d9a3df"><path d="M 6.210938 176 L 363 176 L 363 250.964844 L 6.210938 250.964844 Z M 6.210938 176 " clip-rule="nonzero"/></clipPath><clipPath id="10a5e2e3de"><path d="M 351 227 L 368.460938 227 L 368.460938 234 L 351 234 Z M 351 227 " clip-rule="nonzero"/></clipPath><clipPath id="bc4f6689ff"><path d="M 178 124.214844 L 191 124.214844 L 191 136 L 178 136 Z M 178 124.214844 " clip-rule="nonzero"/></clipPath><clipPath id="bd426a017c"><path d="M 351 216 L 368.460938 216 L 368.460938 228 L 351 228 Z M 351 216 " clip-rule="nonzero"/></clipPath><clipPath id="dbe9b7bbda"><path d="M 190 124.214844 L 202 124.214844 L 202 130 L 190 130 Z M 190 124.214844 " clip-rule="nonzero"/></clipPath></defs><g clip-path="url(#62678ccc29)"><path fill="#ff999a" d="M 362.636719 222.15625 L 362.636719 216.394531 L 356.890625 216.394531 L 356.890625 210.632812 L 345.394531 210.632812 L 345.394531 204.871094 L 316.65625 204.871094 L 316.65625 210.632812 L 305.160156 210.632812 L 305.160156 199.109375 L 299.414062 199.109375 L 299.414062 193.351562 L 293.667969 193.351562 L 293.667969 187.589844 L 287.917969 187.589844 L 287.917969 181.828125 L 259.179688 181.828125 L 259.179688 170.304688 L 253.433594 170.304688 L 253.433594 158.78125 L 247.6875 158.78125 L 247.6875 153.019531 L 241.9375 153.019531 L 241.9375 147.257812 L 236.191406 147.257812 L 236.191406 141.496094 L 213.199219 141.496094 L 213.199219 135.734375 L 207.453125 135.734375 L 207.453125 129.976562 L 201.703125 129.976562 L 201.703125 124.214844 L 178.714844 124.214844 L 178.714844 129.976562 L 167.21875 129.976562 L 167.21875 135.734375 L 138.480469 135.734375 L 138.480469 141.496094 L 132.734375 141.496094 L 132.734375 147.257812 L 126.984375 147.257812 L 126.984375 153.019531 L 121.238281 153.019531 L 121.238281 176.066406 L 115.488281 176.066406 L 115.488281 181.828125 L 109.742188 181.828125 L 109.742188 193.351562 L 103.996094 193.351562 L 103.996094 187.589844 L 86.753906 187.589844 L 86.753906 193.351562 L 81.003906 193.351562 L 81.003906 199.109375 L 75.257812 199.109375 L 75.257812 204.871094 L 69.507812 204.871094 L 69.507812 216.394531 L 58.015625 216.394531 L 58.015625 222.15625 L 46.519531 222.15625 L 46.519531 227.917969 L 40.769531 227.917969 L 40.769531 222.15625 L 23.527344 222.15625 L 23.527344 227.917969 L 12.03125 227.917969 L 12.03125 233.679688 L 6.285156 233.679688 L 6.285156 245.203125 L 12.03125 245.203125 L 12.03125 250.964844 L 356.890625 250.964844 L 356.890625 245.203125 L 362.636719 245.203125 L 362.636719 233.679688 L 368.386719 233.679688 L 368.386719 222.15625 Z M 362.636719 222.15625 " fill-opacity="1" fill-rule="nonzero"/></g><path fill="#5561d3" d="M 167.21875 153.019531 L 167.21875 135.734375 L 161.472656 135.734375 L 161.472656 147.257812 L 155.722656 147.257812 L 155.722656 164.542969 L 161.472656 164.542969 L 161.472656 153.019531 Z M 167.21875 153.019531 " fill-opacity="1" fill-rule="nonzero"/><path fill="#5561d3" d="M 167.21875 129.976562 L 178.714844 129.976562 L 178.714844 135.734375 L 167.21875 135.734375 Z M 167.21875 129.976562 " fill-opacity="1" fill-rule="nonzero"/><path fill="#5561d3" d="M 161.472656 164.542969 L 167.21875 164.542969 L 167.21875 176.066406 L 161.472656 176.066406 Z M 161.472656 164.542969 " fill-opacity="1" fill-rule="nonzero"/><path fill="#5561d3" d="M 184.460938 187.589844 L 184.460938 181.828125 L 178.714844 181.828125 L 178.714844 176.066406 L 167.21875 176.066406 L 167.21875 181.828125 L 172.964844 181.828125 L 172.964844 187.589844 L 178.714844 187.589844 L 178.714844 193.351562 L 190.210938 193.351562 L 190.210938 187.589844 Z M 184.460938 187.589844 " fill-opacity="1" fill-rule="nonzero"/><path fill="#5561d3" d="M 207.453125 141.496094 L 218.949219 141.496094 L 218.949219 147.257812 L 207.453125 147.257812 Z M 207.453125 141.496094 " fill-opacity="1" fill-rule="nonzero"/><path fill="#5561d3" d="M 201.703125 147.257812 L 207.453125 147.257812 L 207.453125 153.019531 L 201.703125 153.019531 Z M 201.703125 147.257812 " fill-opacity="1" fill-rule="nonzero"/><path fill="#5561d3" d="M 195.957031 153.019531 L 201.703125 153.019531 L 201.703125 170.304688 L 195.957031 170.304688 Z M 195.957031 153.019531 " fill-opacity="1" fill-rule="nonzero"/><path fill="#5561d3" d="M 201.703125 170.304688 L 207.453125 170.304688 L 207.453125 181.828125 L 201.703125 181.828125 Z M 201.703125 170.304688 " fill-opacity="1" fill-rule="nonzero"/><path fill="#5561d3" d="M 207.453125 181.828125 L 213.199219 181.828125 L 213.199219 187.589844 L 207.453125 187.589844 Z M 207.453125 181.828125 " fill-opacity="1" fill-rule="nonzero"/><path fill="#5561d3" d="M 213.199219 187.589844 L 224.695312 187.589844 L 224.695312 193.351562 L 213.199219 193.351562 Z M 213.199219 187.589844 " fill-opacity="1" fill-rule="nonzero"/><path fill="#5561d3" d="M 224.695312 193.351562 L 236.191406 193.351562 L 236.191406 199.109375 L 224.695312 199.109375 Z M 224.695312 193.351562 " fill-opacity="1" fill-rule="nonzero"/><path fill="#5561d3" d="M 236.191406 187.589844 L 247.6875 187.589844 L 247.6875 193.351562 L 236.191406 193.351562 Z M 236.191406 187.589844 " fill-opacity="1" fill-rule="nonzero"/><g clip-path="url(#4755d9a3df)"><path fill="#5561d3" d="M 351.144531 233.679688 L 351.144531 239.441406 L 339.648438 239.441406 L 339.648438 233.679688 L 328.152344 233.679688 L 328.152344 227.917969 L 316.65625 227.917969 L 316.65625 222.15625 L 310.910156 222.15625 L 310.910156 210.632812 L 299.414062 210.632812 L 299.414062 216.394531 L 276.425781 216.394531 L 276.425781 222.15625 L 247.6875 222.15625 L 247.6875 216.394531 L 230.441406 216.394531 L 230.441406 210.632812 L 213.199219 210.632812 L 213.199219 204.871094 L 207.453125 204.871094 L 207.453125 199.109375 L 213.199219 199.109375 L 213.199219 193.351562 L 190.210938 193.351562 L 190.210938 199.109375 L 195.957031 199.109375 L 195.957031 204.871094 L 201.703125 204.871094 L 201.703125 210.632812 L 190.210938 210.632812 L 190.210938 216.394531 L 149.976562 216.394531 L 149.976562 210.632812 L 138.480469 210.632812 L 138.480469 204.871094 L 126.984375 204.871094 L 126.984375 199.109375 L 115.488281 199.109375 L 115.488281 187.589844 L 121.238281 187.589844 L 121.238281 176.066406 L 115.488281 176.066406 L 115.488281 181.828125 L 109.742188 181.828125 L 109.742188 204.871094 L 115.488281 204.871094 L 115.488281 210.632812 L 121.238281 210.632812 L 121.238281 216.394531 L 109.742188 216.394531 L 109.742188 222.15625 L 103.996094 222.15625 L 103.996094 233.679688 L 92.5 233.679688 L 92.5 227.917969 L 86.753906 227.917969 L 86.753906 222.15625 L 81.003906 222.15625 L 81.003906 216.394531 L 75.257812 216.394531 L 75.257812 204.871094 L 69.507812 204.871094 L 69.507812 216.394531 L 63.761719 216.394531 L 63.761719 227.917969 L 58.015625 227.917969 L 58.015625 233.679688 L 52.265625 233.679688 L 52.265625 239.441406 L 17.78125 239.441406 L 17.78125 227.917969 L 12.03125 227.917969 L 12.03125 233.679688 L 6.285156 233.679688 L 6.285156 245.203125 L 12.03125 245.203125 L 12.03125 250.964844 L 356.890625 250.964844 L 356.890625 245.203125 L 362.636719 245.203125 L 362.636719 233.679688 Z M 351.144531 233.679688 " fill-opacity="1" fill-rule="nonzero"/></g><path fill="#8e68e6" d="M 23.527344 227.917969 L 17.78125 227.917969 L 17.78125 239.441406 L 52.265625 239.441406 L 52.265625 233.679688 L 23.527344 233.679688 Z M 23.527344 227.917969 " fill-opacity="1" fill-rule="nonzero"/><path fill="#8e68e6" d="M 58.015625 216.394531 L 63.761719 216.394531 L 63.761719 227.917969 L 58.015625 227.917969 Z M 58.015625 216.394531 " fill-opacity="1" fill-rule="nonzero"/><path fill="#8e68e6" d="M 81.003906 210.632812 L 81.003906 199.109375 L 75.257812 199.109375 L 75.257812 216.394531 L 81.003906 216.394531 L 81.003906 222.15625 L 86.753906 222.15625 L 86.753906 210.632812 Z M 81.003906 210.632812 " fill-opacity="1" fill-rule="nonzero"/><path fill="#8e68e6" d="M 86.753906 222.15625 L 86.753906 227.917969 L 92.5 227.917969 L 92.5 233.679688 L 103.996094 233.679688 L 103.996094 222.15625 Z M 86.753906 222.15625 " fill-opacity="1" fill-rule="nonzero"/><path fill="#8e68e6" d="M 132.734375 199.109375 L 132.734375 193.351562 L 126.984375 193.351562 L 126.984375 170.304688 L 121.238281 170.304688 L 121.238281 187.589844 L 115.488281 187.589844 L 115.488281 199.109375 L 126.984375 199.109375 L 126.984375 204.871094 L 138.480469 204.871094 L 138.480469 199.109375 Z M 132.734375 199.109375 " fill-opacity="1" fill-rule="nonzero"/><path fill="#8e68e6" d="M 149.976562 204.871094 L 138.480469 204.871094 L 138.480469 216.394531 L 149.976562 216.394531 L 149.976562 222.15625 L 190.210938 222.15625 L 190.210938 210.632812 L 149.976562 210.632812 Z M 149.976562 204.871094 " fill-opacity="1" fill-rule="nonzero"/><path fill="#8e68e6" d="M 190.210938 204.871094 L 201.703125 204.871094 L 201.703125 210.632812 L 190.210938 210.632812 Z M 190.210938 204.871094 " fill-opacity="1" fill-rule="nonzero"/><path fill="#8e68e6" d="M 172.964844 227.917969 L 178.714844 227.917969 L 178.714844 233.679688 L 172.964844 233.679688 Z M 172.964844 227.917969 " fill-opacity="1" fill-rule="nonzero"/><path fill="#8e68e6" d="M 195.957031 216.394531 L 207.453125 216.394531 L 207.453125 227.917969 L 195.957031 227.917969 Z M 195.957031 216.394531 " fill-opacity="1" fill-rule="nonzero"/><path fill="#8e68e6" d="M 115.488281 222.15625 L 126.984375 222.15625 L 126.984375 233.679688 L 115.488281 233.679688 Z M 115.488281 222.15625 " fill-opacity="1" fill-rule="nonzero"/><path fill="#8e68e6" d="M 69.507812 222.15625 L 75.257812 222.15625 L 75.257812 227.917969 L 69.507812 227.917969 Z M 69.507812 222.15625 " fill-opacity="1" fill-rule="nonzero"/><path fill="#8e68e6" d="M 58.015625 233.679688 L 63.761719 233.679688 L 63.761719 239.441406 L 58.015625 239.441406 Z M 58.015625 233.679688 " fill-opacity="1" fill-rule="nonzero"/><path fill="#8e68e6" d="M 69.507812 233.679688 L 81.003906 233.679688 L 81.003906 245.203125 L 69.507812 245.203125 Z M 69.507812 233.679688 " fill-opacity="1" fill-rule="nonzero"/><path fill="#8e68e6" d="M 144.226562 222.15625 L 138.480469 222.15625 L 138.480469 233.679688 L 167.21875 233.679688 L 167.21875 227.917969 L 144.226562 227.917969 Z M 144.226562 222.15625 " fill-opacity="1" fill-rule="nonzero"/><path fill="#8e68e6" d="M 230.441406 222.15625 L 241.9375 222.15625 L 241.9375 227.917969 L 230.441406 227.917969 Z M 230.441406 222.15625 " fill-opacity="1" fill-rule="nonzero"/><path fill="#8e68e6" d="M 218.949219 204.871094 L 218.949219 193.351562 L 213.199219 193.351562 L 213.199219 199.109375 L 207.453125 199.109375 L 207.453125 204.871094 L 213.199219 204.871094 L 213.199219 210.632812 L 230.441406 210.632812 L 230.441406 204.871094 Z M 218.949219 204.871094 " fill-opacity="1" fill-rule="nonzero"/><path fill="#8e68e6" d="M 161.472656 153.019531 L 167.21875 153.019531 L 167.21875 164.542969 L 161.472656 164.542969 Z M 161.472656 153.019531 " fill-opacity="1" fill-rule="nonzero"/><path fill="#8e68e6" d="M 172.964844 170.304688 L 172.964844 164.542969 L 167.21875 164.542969 L 167.21875 176.066406 L 178.714844 176.066406 L 178.714844 170.304688 Z M 172.964844 170.304688 " fill-opacity="1" fill-rule="nonzero"/><path fill="#8e68e6" d="M 178.714844 176.066406 L 184.460938 176.066406 L 184.460938 181.828125 L 178.714844 181.828125 Z M 178.714844 176.066406 " fill-opacity="1" fill-rule="nonzero"/><path fill="#8e68e6" d="M 207.453125 187.589844 L 207.453125 181.828125 L 184.460938 181.828125 L 184.460938 187.589844 L 190.210938 187.589844 L 190.210938 193.351562 L 213.199219 193.351562 L 213.199219 187.589844 Z M 207.453125 187.589844 " fill-opacity="1" fill-rule="nonzero"/><path fill="#8e68e6" d="M 299.414062 210.632812 L 305.160156 210.632812 L 305.160156 199.109375 L 299.414062 199.109375 L 299.414062 204.871094 L 276.425781 204.871094 L 276.425781 210.632812 L 230.441406 210.632812 L 230.441406 216.394531 L 247.6875 216.394531 L 247.6875 222.15625 L 276.425781 222.15625 L 276.425781 216.394531 L 299.414062 216.394531 Z M 299.414062 210.632812 " fill-opacity="1" fill-rule="nonzero"/><path fill="#8e68e6" d="M 316.65625 216.394531 L 316.65625 210.632812 L 310.910156 210.632812 L 310.910156 222.15625 L 316.65625 222.15625 L 316.65625 227.917969 L 328.152344 227.917969 L 328.152344 216.394531 Z M 316.65625 216.394531 " fill-opacity="1" fill-rule="nonzero"/><path fill="#8e68e6" d="M 328.152344 227.917969 L 339.648438 227.917969 L 339.648438 233.679688 L 328.152344 233.679688 Z M 328.152344 227.917969 " fill-opacity="1" fill-rule="nonzero"/><path fill="#8e68e6" d="M 339.648438 233.679688 L 351.144531 233.679688 L 351.144531 239.441406 L 339.648438 239.441406 Z M 339.648438 233.679688 " fill-opacity="1" fill-rule="nonzero"/><g clip-path="url(#10a5e2e3de)"><path fill="#8e68e6" d="M 351.144531 227.917969 L 368.386719 227.917969 L 368.386719 233.679688 L 351.144531 233.679688 Z M 351.144531 227.917969 " fill-opacity="1" fill-rule="nonzero"/></g><path fill="#8e68e6" d="M 310.910156 227.917969 L 299.414062 227.917969 L 299.414062 233.679688 L 305.160156 233.679688 L 305.160156 239.441406 L 322.40625 239.441406 L 322.40625 233.679688 L 310.910156 233.679688 Z M 310.910156 227.917969 " fill-opacity="1" fill-rule="nonzero"/><path fill="#8e68e6" d="M 282.171875 222.15625 L 299.414062 222.15625 L 299.414062 227.917969 L 282.171875 227.917969 Z M 282.171875 222.15625 " fill-opacity="1" fill-rule="nonzero"/><path fill="#fb6ba2" d="M 144.226562 199.109375 L 144.226562 187.589844 L 138.480469 187.589844 L 138.480469 164.542969 L 126.984375 164.542969 L 126.984375 158.78125 L 132.734375 158.78125 L 132.734375 147.257812 L 126.984375 147.257812 L 126.984375 153.019531 L 121.238281 153.019531 L 121.238281 170.304688 L 126.984375 170.304688 L 126.984375 193.351562 L 132.734375 193.351562 L 132.734375 199.109375 L 138.480469 199.109375 L 138.480469 204.871094 L 149.976562 204.871094 L 149.976562 199.109375 Z M 144.226562 199.109375 " fill-opacity="1" fill-rule="nonzero"/><path fill="#fb6ba2" d="M 149.976562 204.871094 L 190.210938 204.871094 L 190.210938 210.632812 L 149.976562 210.632812 Z M 149.976562 204.871094 " fill-opacity="1" fill-rule="nonzero"/><path fill="#fb6ba2" d="M 144.226562 158.78125 L 144.226562 153.019531 L 138.480469 153.019531 L 138.480469 164.542969 L 144.226562 164.542969 Z M 144.226562 158.78125 " fill-opacity="1" fill-rule="nonzero"/><path fill="#fb6ba2" d="M 144.226562 147.257812 L 149.976562 147.257812 L 149.976562 153.019531 L 144.226562 153.019531 Z M 144.226562 147.257812 " fill-opacity="1" fill-rule="nonzero"/><path fill="#fb6ba2" d="M 190.210938 199.109375 L 195.957031 199.109375 L 195.957031 204.871094 L 190.210938 204.871094 Z M 190.210938 199.109375 " fill-opacity="1" fill-rule="nonzero"/><path fill="#fb6ba2" d="M 92.5 210.632812 L 86.753906 210.632812 L 86.753906 222.15625 L 109.742188 222.15625 L 109.742188 216.394531 L 92.5 216.394531 Z M 92.5 210.632812 " fill-opacity="1" fill-rule="nonzero"/><path fill="#fb6ba2" d="M 29.277344 222.15625 L 23.527344 222.15625 L 23.527344 233.679688 L 40.769531 233.679688 L 40.769531 227.917969 L 29.277344 227.917969 Z M 29.277344 222.15625 " fill-opacity="1" fill-rule="nonzero"/><path fill="#fb6ba2" d="M 46.519531 227.917969 L 58.015625 227.917969 L 58.015625 233.679688 L 46.519531 233.679688 Z M 46.519531 227.917969 " fill-opacity="1" fill-rule="nonzero"/><g clip-path="url(#bc4f6689ff)"><path fill="#fb6ba2" d="M 184.460938 129.976562 L 190.210938 129.976562 L 190.210938 124.214844 L 178.714844 124.214844 L 178.714844 135.734375 L 184.460938 135.734375 Z M 184.460938 129.976562 " fill-opacity="1" fill-rule="nonzero"/></g><path fill="#fb6ba2" d="M 172.964844 158.78125 L 172.964844 141.496094 L 178.714844 141.496094 L 178.714844 135.734375 L 167.21875 135.734375 L 167.21875 164.542969 L 172.964844 164.542969 L 172.964844 170.304688 L 178.714844 170.304688 L 178.714844 158.78125 Z M 172.964844 158.78125 " fill-opacity="1" fill-rule="nonzero"/><path fill="#fb6ba2" d="M 178.714844 170.304688 L 184.460938 170.304688 L 184.460938 176.066406 L 178.714844 176.066406 Z M 178.714844 170.304688 " fill-opacity="1" fill-rule="nonzero"/><path fill="#fb6ba2" d="M 184.460938 176.066406 L 201.703125 176.066406 L 201.703125 181.828125 L 184.460938 181.828125 Z M 184.460938 176.066406 " fill-opacity="1" fill-rule="nonzero"/><path fill="#fb6ba2" d="M 178.714844 147.257812 L 184.460938 147.257812 L 184.460938 153.019531 L 178.714844 153.019531 Z M 178.714844 147.257812 " fill-opacity="1" fill-rule="nonzero"/><path fill="#fb6ba2" d="M 92.5 199.109375 L 92.5 193.351562 L 98.246094 193.351562 L 98.246094 187.589844 L 86.753906 187.589844 L 86.753906 193.351562 L 81.003906 193.351562 L 81.003906 210.632812 L 86.753906 210.632812 L 86.753906 199.109375 Z M 92.5 199.109375 " fill-opacity="1" fill-rule="nonzero"/><path fill="#fb6ba2" d="M 115.488281 204.871094 L 109.742188 204.871094 L 109.742188 216.394531 L 121.238281 216.394531 L 121.238281 210.632812 L 115.488281 210.632812 Z M 115.488281 204.871094 " fill-opacity="1" fill-rule="nonzero"/><path fill="#fb6ba2" d="M 103.996094 193.351562 L 109.742188 193.351562 L 109.742188 204.871094 L 103.996094 204.871094 Z M 103.996094 193.351562 " fill-opacity="1" fill-rule="nonzero"/><path fill="#fb6ba2" d="M 201.703125 153.019531 L 207.453125 153.019531 L 207.453125 170.304688 L 201.703125 170.304688 Z M 201.703125 153.019531 " fill-opacity="1" fill-rule="nonzero"/><path fill="#fb6ba2" d="M 207.453125 170.304688 L 213.199219 170.304688 L 213.199219 181.828125 L 207.453125 181.828125 Z M 207.453125 170.304688 " fill-opacity="1" fill-rule="nonzero"/><path fill="#fb6ba2" d="M 213.199219 181.828125 L 224.695312 181.828125 L 224.695312 187.589844 L 213.199219 187.589844 Z M 213.199219 181.828125 " fill-opacity="1" fill-rule="nonzero"/><path fill="#fb6ba2" d="M 224.695312 187.589844 L 236.191406 187.589844 L 236.191406 193.351562 L 224.695312 193.351562 Z M 224.695312 187.589844 " fill-opacity="1" fill-rule="nonzero"/><path fill="#fb6ba2" d="M 287.917969 199.109375 L 264.929688 199.109375 L 264.929688 204.871094 L 236.191406 204.871094 L 236.191406 199.109375 L 224.695312 199.109375 L 224.695312 193.351562 L 218.949219 193.351562 L 218.949219 204.871094 L 230.441406 204.871094 L 230.441406 210.632812 L 276.425781 210.632812 L 276.425781 204.871094 L 299.414062 204.871094 L 299.414062 193.351562 L 287.917969 193.351562 Z M 287.917969 199.109375 " fill-opacity="1" fill-rule="nonzero"/><path fill="#fb6ba2" d="M 236.191406 181.828125 L 247.6875 181.828125 L 247.6875 187.589844 L 236.191406 187.589844 Z M 236.191406 181.828125 " fill-opacity="1" fill-rule="nonzero"/><path fill="#fb6ba2" d="M 247.6875 176.066406 L 253.433594 176.066406 L 253.433594 181.828125 L 247.6875 181.828125 Z M 247.6875 176.066406 " fill-opacity="1" fill-rule="nonzero"/><path fill="#fb6ba2" d="M 322.40625 210.632812 L 322.40625 204.871094 L 316.65625 204.871094 L 316.65625 216.394531 L 328.152344 216.394531 L 328.152344 210.632812 Z M 322.40625 210.632812 " fill-opacity="1" fill-rule="nonzero"/><path fill="#fb6ba2" d="M 333.898438 222.15625 L 333.898438 216.394531 L 328.152344 216.394531 L 328.152344 227.917969 L 339.648438 227.917969 L 339.648438 222.15625 Z M 333.898438 222.15625 " fill-opacity="1" fill-rule="nonzero"/><path fill="#fb6ba2" d="M 339.648438 227.917969 L 351.144531 227.917969 L 351.144531 233.679688 L 339.648438 233.679688 Z M 339.648438 227.917969 " fill-opacity="1" fill-rule="nonzero"/><g clip-path="url(#bd426a017c)"><path fill="#fb6ba2" d="M 362.636719 222.15625 L 362.636719 216.394531 L 356.890625 216.394531 L 356.890625 222.15625 L 351.144531 222.15625 L 351.144531 227.917969 L 368.386719 227.917969 L 368.386719 222.15625 Z M 362.636719 222.15625 " fill-opacity="1" fill-rule="nonzero"/></g><path fill="#fb6ba2" d="M 167.21875 181.828125 L 172.964844 181.828125 L 172.964844 187.589844 L 167.21875 187.589844 Z M 167.21875 181.828125 " fill-opacity="1" fill-rule="nonzero"/><path fill="#fb6ba2" d="M 172.964844 187.589844 L 178.714844 187.589844 L 178.714844 193.351562 L 172.964844 193.351562 Z M 172.964844 187.589844 " fill-opacity="1" fill-rule="nonzero"/><path fill="#fb6ba2" d="M 178.714844 193.351562 L 190.210938 193.351562 L 190.210938 199.109375 L 178.714844 199.109375 Z M 178.714844 193.351562 " fill-opacity="1" fill-rule="nonzero"/><path fill="#ffe14d" d="M 190.210938 135.734375 L 201.703125 135.734375 L 201.703125 141.496094 L 190.210938 141.496094 Z M 190.210938 135.734375 " fill-opacity="1" fill-rule="nonzero"/><path fill="#ffe14d" d="M 201.703125 129.976562 L 207.453125 129.976562 L 207.453125 135.734375 L 201.703125 135.734375 Z M 201.703125 129.976562 " fill-opacity="1" fill-rule="nonzero"/><path fill="#ffe14d" d="M 207.453125 135.734375 L 213.199219 135.734375 L 213.199219 141.496094 L 207.453125 141.496094 Z M 207.453125 135.734375 " fill-opacity="1" fill-rule="nonzero"/><path fill="#ffe14d" d="M 224.695312 141.496094 L 236.191406 141.496094 L 236.191406 147.257812 L 224.695312 147.257812 Z M 224.695312 141.496094 " fill-opacity="1" fill-rule="nonzero"/><path fill="#ffe14d" d="M 218.949219 153.019531 L 230.441406 153.019531 L 230.441406 158.78125 L 218.949219 158.78125 Z M 218.949219 153.019531 " fill-opacity="1" fill-rule="nonzero"/><path fill="#ffe14d" d="M 230.441406 164.542969 L 236.191406 164.542969 L 236.191406 170.304688 L 230.441406 170.304688 Z M 230.441406 164.542969 " fill-opacity="1" fill-rule="nonzero"/><path fill="#ffe14d" d="M 144.226562 135.734375 L 161.472656 135.734375 L 161.472656 141.496094 L 144.226562 141.496094 Z M 144.226562 135.734375 " fill-opacity="1" fill-rule="nonzero"/><g clip-path="url(#dbe9b7bbda)"><path fill="#ffe14d" d="M 190.210938 124.214844 L 201.703125 124.214844 L 201.703125 129.976562 L 190.210938 129.976562 Z M 190.210938 124.214844 " fill-opacity="1" fill-rule="nonzero"/></g><path fill="#ffe14d" d="M 236.191406 147.257812 L 241.9375 147.257812 L 241.9375 153.019531 L 236.191406 153.019531 Z M 236.191406 147.257812 " fill-opacity="1" fill-rule="nonzero"/><path fill="#ffe14d" d="M 247.6875 158.78125 L 253.433594 158.78125 L 253.433594 164.542969 L 247.6875 164.542969 Z M 247.6875 158.78125 " fill-opacity="1" fill-rule="nonzero"/><path fill="#ffe14d" d="M 333.898438 204.871094 L 345.394531 204.871094 L 345.394531 210.632812 L 333.898438 210.632812 Z M 333.898438 204.871094 " fill-opacity="1" fill-rule="nonzero"/><path fill="#ffe14d" d="M 345.394531 210.632812 L 356.890625 210.632812 L 356.890625 216.394531 L 345.394531 216.394531 Z M 345.394531 210.632812 " fill-opacity="1" fill-rule="nonzero"/><path fill="#ffe14d" d="M 253.433594 170.304688 L 259.179688 170.304688 L 259.179688 181.828125 L 253.433594 181.828125 Z M 253.433594 170.304688 " fill-opacity="1" fill-rule="nonzero"/><path fill="#ffe14d" d="M 259.179688 181.828125 L 276.425781 181.828125 L 276.425781 187.589844 L 259.179688 187.589844 Z M 259.179688 181.828125 " fill-opacity="1" fill-rule="nonzero"/><path fill="#ffe14d" d="M 282.171875 187.589844 L 287.917969 187.589844 L 287.917969 193.351562 L 282.171875 193.351562 Z M 282.171875 187.589844 " fill-opacity="1" fill-rule="nonzero"/><path fill="#ffe14d" d="M 253.433594 187.589844 L 259.179688 187.589844 L 259.179688 193.351562 L 253.433594 193.351562 Z M 253.433594 187.589844 " fill-opacity="1" fill-rule="nonzero"/><path fill="#ffe14d" d="M 213.199219 158.78125 L 218.949219 158.78125 L 218.949219 164.542969 L 213.199219 164.542969 Z M 213.199219 158.78125 " fill-opacity="1" fill-rule="nonzero"/></svg>