<svg width="73" height="76" viewBox="0 0 73 76" fill="none" xmlns="http://www.w3.org/2000/svg">
<path d="M70.2207 73.1663C68.4756 74.8037 66.1088 75.7236 63.6409 75.7236C61.1731 75.7236 58.8063 74.8037 57.0612 73.1663L36.5039 51.1191L15.9465 73.1591C15.0851 73.9807 14.0587 74.6342 12.9267 75.0818C11.7947 75.5294 10.5795 75.7622 9.35111 75.7669C8.12273 75.7716 6.90552 75.548 5.76968 75.1091C4.63385 74.6702 3.60186 74.0246 2.73326 73.2096C1.86466 72.3945 1.17663 71.4262 0.708859 70.3604C0.241087 69.2946 0.00282931 68.1525 0.00783114 66.9998C0.012833 65.8472 0.260994 64.7069 0.738001 63.6448C1.21501 62.5826 1.91142 61.6195 2.78707 60.8112L24.1741 37.8908L2.77931 14.9558C1.90367 14.1474 1.20725 13.1844 0.730247 12.1222C0.25324 11.06 0.00507899 9.91976 7.71497e-05 8.76713C-0.00492469 7.61451 0.233333 6.47237 0.701105 5.40658C1.16888 4.34079 1.85691 3.37245 2.72551 2.55742C3.59411 1.74239 4.62609 1.09679 5.76193 0.657867C6.89777 0.218943 8.11498 -0.00462097 9.34336 7.23917e-05C10.5717 0.00476576 11.787 0.237622 12.919 0.685211C14.0509 1.1328 15.0773 1.78626 15.9388 2.60791L36.5039 24.6624L57.0612 2.60791C57.9227 1.78626 58.9491 1.1328 60.081 0.685211C61.213 0.237622 62.4283 0.00476576 63.6566 7.23917e-05C64.885 -0.00462097 66.1022 0.218943 67.2381 0.657867C68.3739 1.09679 69.4059 1.74239 70.2745 2.55742C71.1431 3.37245 71.8311 4.34079 72.2989 5.40658C72.7667 6.47237 73.0049 7.61451 72.9999 8.76713C72.9949 9.91976 72.7468 11.06 72.2697 12.1222C71.7927 13.1844 71.0963 14.1474 70.2207 14.9558L48.8336 37.8908L70.2207 60.8112C71.0859 61.6221 71.7722 62.5851 72.2405 63.6451C72.7088 64.7051 72.9499 65.8413 72.9499 66.9888C72.9499 68.1362 72.7088 69.2724 72.2405 70.3324C71.7722 71.3924 71.0859 72.3554 70.2207 73.1663V73.1663Z" fill="white"/>
</svg>
