<svg width="145" height="145" viewBox="0 0 145 145" fill="none" xmlns="http://www.w3.org/2000/svg">
<path d="M18.2075 2.99728L72.1585 56.9483L125.888 3.2193C127.79 1.19447 130.436 0.032193 133.214 0C139.345 0 144.315 4.96993 144.315 11.101C144.367 13.8519 143.283 16.5028 141.318 18.4277L87.0339 72.1567L141.318 126.441C143.147 128.23 144.221 130.655 144.315 133.212C144.315 139.344 139.345 144.313 133.214 144.313C130.354 144.432 127.575 143.344 125.555 141.316L72.1585 87.3652L18.3185 141.205C16.4236 143.162 13.8259 144.281 11.1028 144.313C4.97173 144.313 0.00179917 139.344 0.00179917 133.212C-0.0503757 130.462 1.0342 127.811 2.99908 125.886L57.2831 72.1567L2.99908 17.8727C1.16963 16.0832 0.096158 13.6587 0.00179917 11.101C0.00179917 4.96993 4.97173 0 11.1028 0C13.7715 0.032193 16.3214 1.10788 18.2075 2.99728V2.99728Z" fill="url(#paint0_linear_446_146)"/>
<defs>
<linearGradient id="paint0_linear_446_146" x1="0" y1="0" x2="144" y2="144" gradientUnits="userSpaceOnUse">
<stop stop-color="#FF66C4"/>
<stop offset="1" stop-color="#00FFF2"/>
</linearGradient>
</defs>
</svg>
