<svg width="56" height="45" viewBox="0 0 56 45" fill="none" xmlns="http://www.w3.org/2000/svg">
<path d="M49.5728 3H5.70722C4.21206 3 3 3.94151 3 5.10293V39.1771C3 40.3385 4.21206 41.28 5.70722 41.28H49.5728C51.0679 41.28 52.28 40.3385 52.28 39.1771V5.10293C52.28 3.94151 51.0679 3 49.5728 3Z" stroke="white" stroke-width="5.66513"/>
<path d="M3 30.4724L15.4252 22.2952L25.1647 29.157L39.7901 15.0229L52.1937 29.157" stroke="white" stroke-width="5.66513"/>
<path d="M14.4329 14.8548C16.7739 14.8548 18.6717 13.3806 18.6717 11.5622C18.6717 9.74369 16.7739 8.26953 14.4329 8.26953C12.0919 8.26953 10.1941 9.74369 10.1941 11.5622C10.1941 13.3806 12.0919 14.8548 14.4329 14.8548Z" stroke="white" stroke-width="5.66513"/>
</svg>
