<svg width="54" height="45" viewBox="0 0 54 45" fill="none" xmlns="http://www.w3.org/2000/svg">
<path fill-rule="evenodd" clip-rule="evenodd" d="M10.0238 1.04738C10.3406 0.718902 10.734 0.455191 11.1768 0.274386C11.6196 0.0935802 12.1013 -2.84307e-05 12.5888 6.47722e-09H41.4113C41.8987 -2.84307e-05 42.3804 0.0935802 42.8232 0.274386C43.266 0.455191 43.6594 0.718902 43.9762 1.04738L52.7816 10.1565C53.5678 10.97 54 12.0059 54 13.0772V13.8403C54.0002 15.3215 53.4784 16.7658 52.5076 17.9712C51.5368 19.1767 50.1656 20.083 48.5854 20.5637C47.0053 21.0443 45.2952 21.0752 43.6943 20.652C42.0934 20.2289 40.6816 19.3728 39.6562 18.2034C38.9075 19.0585 37.9479 19.7504 36.8511 20.2261C35.7542 20.7017 34.5491 20.9485 33.3281 20.9475C32.1071 20.9487 30.9019 20.702 29.805 20.2264C28.7081 19.7507 27.7486 19.0587 27 18.2034C26.2514 19.0587 25.2919 19.7507 24.195 20.2264C23.0981 20.702 21.8929 20.9487 20.6719 20.9475C19.4508 20.9487 18.2457 20.702 17.1488 20.2264C16.0519 19.7507 15.0924 19.0587 14.3438 18.2034C13.3184 19.3728 11.9066 20.2289 10.3057 20.652C8.70477 21.0752 6.99474 21.0443 5.41459 20.5637C3.83445 20.083 2.46315 19.1767 1.49237 17.9712C0.521579 16.7658 -0.00018427 15.3215 4.88178e-08 13.8403V13.0772C4.25504e-05 12.0059 0.432191 10.97 1.21838 10.1565L10.0271 1.04438L10.0238 1.04738ZM16.0312 13.8403C16.0313 14.9316 16.5202 15.9782 17.3905 16.7498C18.2607 17.5215 19.4411 17.955 20.6719 17.955C21.9026 17.955 23.083 17.5215 23.9533 16.7498C24.8236 15.9782 25.3125 14.9316 25.3125 13.8403C25.3125 13.4435 25.4903 13.0629 25.8068 12.7823C26.1232 12.5017 26.5524 12.3441 27 12.3441C27.4476 12.3441 27.8768 12.5017 28.1932 12.7823C28.5097 13.0629 28.6875 13.4435 28.6875 13.8403C28.6875 14.9316 29.1764 15.9782 30.0467 16.7498C30.917 17.5215 32.0974 17.955 33.3281 17.955C34.5589 17.955 35.7393 17.5215 36.6095 16.7498C37.4798 15.9782 37.9688 14.9316 37.9688 13.8403C37.9688 13.4435 38.1465 13.0629 38.463 12.7823C38.7795 12.5017 39.2087 12.3441 39.6562 12.3441C40.1038 12.3441 40.533 12.5017 40.8495 12.7823C41.166 13.0629 41.3438 13.4435 41.3438 13.8403C41.3438 14.9316 41.8327 15.9782 42.703 16.7498C43.5732 17.5215 44.7536 17.955 45.9844 17.955C47.2151 17.955 48.3955 17.5215 49.2658 16.7498C50.1361 15.9782 50.625 14.9316 50.625 13.8403V13.0772C50.625 12.7206 50.4814 12.3757 50.22 12.1047L41.4113 2.9925H12.5888L3.78 12.1047C3.5186 12.3757 3.37497 12.7206 3.375 13.0772V13.8403C3.375 14.9316 3.86392 15.9782 4.73421 16.7498C5.60449 17.5215 6.78485 17.955 8.01562 17.955C9.2464 17.955 10.4268 17.5215 11.297 16.7498C12.1673 15.9782 12.6562 14.9316 12.6562 13.8403C12.6562 13.4435 12.834 13.0629 13.1505 12.7823C13.467 12.5017 13.8962 12.3441 14.3438 12.3441C14.7913 12.3441 15.2205 12.5017 15.537 12.7823C15.8535 13.0629 16.0312 13.4435 16.0312 13.8403ZM5.0625 22.4437C5.51005 22.4437 5.93928 22.6014 6.25574 22.882C6.57221 23.1626 6.75 23.5432 6.75 23.94V41.895H10.125V26.9325C10.125 26.1388 10.4806 25.3777 11.1135 24.8165C11.7464 24.2553 12.6049 23.94 13.5 23.94H23.625C24.5201 23.94 25.3785 24.2553 26.0115 24.8165C26.6444 25.3777 27 26.1388 27 26.9325V41.895H47.25V23.94C47.25 23.5432 47.4278 23.1626 47.7443 22.882C48.0607 22.6014 48.4899 22.4437 48.9375 22.4437C49.3851 22.4437 49.8143 22.6014 50.1307 22.882C50.4472 23.1626 50.625 23.5432 50.625 23.94V41.895H52.3125C52.7601 41.895 53.1893 42.0526 53.5057 42.3332C53.8222 42.6138 54 42.9944 54 43.3912C54 43.7881 53.8222 44.1687 53.5057 44.4493C53.1893 44.7299 52.7601 44.8875 52.3125 44.8875H1.6875C1.23995 44.8875 0.810725 44.7299 0.494257 44.4493C0.17779 44.1687 4.88178e-08 43.7881 4.88178e-08 43.3912C4.88178e-08 42.9944 0.17779 42.6138 0.494257 42.3332C0.810725 42.0526 1.23995 41.895 1.6875 41.895H3.375V23.94C3.375 23.5432 3.55279 23.1626 3.86926 22.882C4.18572 22.6014 4.61495 22.4437 5.0625 22.4437ZM13.5 41.895H23.625V26.9325H13.5V41.895ZM30.375 26.9325C30.375 26.1388 30.7306 25.3777 31.3635 24.8165C31.9965 24.2553 32.8549 23.94 33.75 23.94H40.5C41.3951 23.94 42.2535 24.2553 42.8865 24.8165C43.5194 25.3777 43.875 26.1388 43.875 26.9325V35.91C43.875 36.7037 43.5194 37.4648 42.8865 38.026C42.2535 38.5872 41.3951 38.9025 40.5 38.9025H33.75C32.8549 38.9025 31.9965 38.5872 31.3635 38.026C30.7306 37.4648 30.375 36.7037 30.375 35.91V26.9325ZM40.5 26.9325H33.75V35.91H40.5V26.9325Z" fill="white"/>
</svg>
