<svg width="54" height="56" viewBox="0 0 54 56" fill="none" xmlns="http://www.w3.org/2000/svg">
<path d="M31.6691 20.758C31.6691 21.8132 30.788 22.6687 29.7034 22.6687C28.6188 22.6687 27.7376 21.8132 27.7376 20.758C27.7376 19.7037 28.6188 18.8472 29.7034 18.8472C30.788 18.8472 31.6691 19.7037 31.6691 20.758Z" fill="white"/>
<path d="M23.8061 20.758C23.8061 21.8132 22.925 22.6687 21.8404 22.6687C20.7558 22.6687 19.8746 21.8132 19.8746 20.758C19.8746 19.7037 20.7558 18.8472 21.8404 18.8472C22.925 18.8472 23.8061 19.7037 23.8061 20.758Z" fill="white"/>
<path d="M25.7718 30.3146C24.6396 30.3146 23.5074 30.0411 22.3835 29.4949C21.8978 29.2588 21.7011 28.685 21.9439 28.213C22.1862 27.7413 22.7756 27.5495 23.2627 27.7856C24.9511 28.6067 26.5924 28.6067 28.2807 27.7856C28.7669 27.5495 29.3567 27.7413 29.5996 28.213C29.8424 28.685 29.6457 29.2588 29.1599 29.4949C28.036 30.0411 26.9038 30.3146 25.7718 30.3146Z" fill="white"/>
<path d="M25.7716 36.5543C19.0844 36.5543 13.644 30.0514 13.644 22.0579C13.644 21.8456 13.6478 21.6342 13.6565 21.4248L15.6204 21.4967C15.6136 21.6828 15.6097 21.8698 15.6097 22.0579C15.6097 28.9979 20.168 34.6436 25.7716 34.6436C31.3751 34.6436 35.9333 28.9979 35.9333 22.0579C35.9333 21.8684 35.9295 21.6795 35.9238 21.4924L37.8875 21.429C37.8952 21.6375 37.899 21.847 37.899 22.0579C37.899 30.0514 32.4587 36.5543 25.7716 36.5543Z" fill="white"/>
<path d="M38.0882 13.7362C38.0873 13.7362 38.0873 13.7362 38.0863 13.7362L12.8656 13.6975C12.6391 13.697 12.4192 13.6205 12.2436 13.4805C12.0958 13.3621 11.3558 12.7235 11.3721 11.7751C11.3749 11.5992 11.4047 11.3888 11.494 11.163C10.9805 10.7273 10.4305 10.0994 10.3441 9.36556C10.2779 8.79643 10.4938 8.24927 10.9536 7.82517C11.9614 6.89309 18.7312 3.68172 25.5134 2.95352C28.1069 2.67779 34.5522 2.39461 38.4107 5.7791C38.7399 6.02636 40.6317 7.56349 40.3995 9.30212C40.3409 9.74017 40.1298 10.2962 39.5289 10.7964C39.8178 11.282 40.028 11.8861 39.8466 12.4865C39.7381 12.8457 39.3926 13.4829 38.2964 13.7143C38.2283 13.7288 38.1582 13.7362 38.0882 13.7362ZM13.381 11.7877L37.8674 11.8249C37.757 11.6291 37.5584 11.3725 37.3933 11.2115C37.1629 10.9876 37.0611 10.6671 37.1226 10.3559C37.184 10.0448 37.4009 9.78306 37.7004 9.6581C37.9135 9.56944 38.4126 9.33288 38.45 9.05677C38.5143 8.58137 37.7187 7.68053 37.1447 7.23923C34.8267 5.20902 30.5822 4.33158 25.7283 4.85313C19.0911 5.56547 12.9232 8.71016 12.3165 9.20276C12.4241 9.43463 12.9175 9.87736 13.3676 10.1363C13.6488 10.2976 13.8293 10.5841 13.8484 10.9009C13.8686 11.2176 13.7246 11.5231 13.4664 11.7163C13.429 11.7438 13.4011 11.7681 13.381 11.7877Z" fill="white"/>
<path d="M25.6209 4.85857C25.0776 4.85857 24.638 4.43084 24.638 3.90317V0.955395C24.638 0.42773 25.0776 0 25.6209 0C26.1641 0 26.6038 0.42773 26.6038 0.955395V3.90317C26.6038 4.43084 26.1641 4.85857 25.6209 4.85857Z" fill="white"/>
<path d="M36.7703 22.4255C36.3423 22.4255 35.9305 22.2832 35.5657 22.0067C34.8948 21.4981 34.438 20.5223 34.1317 19.5426C34.029 19.5967 33.9216 19.6433 33.8082 19.6821C32.3657 20.1732 30.6168 19.0723 29.3949 18.0572C29.3412 18.1058 29.2865 18.1482 29.2318 18.1859C28.198 18.8979 26.3571 18.2354 24.6505 17.2978C24.6188 17.3309 24.5861 17.3608 24.5525 17.3887C24.1964 17.6882 23.397 18.3548 19.6939 16.1399C18.6879 18.1655 16.7241 21.6987 14.9945 22.3514C14.648 22.4815 14.2583 22.4125 13.9819 22.1722C10.1195 18.8055 13.6172 12.5796 13.7678 12.316C13.9415 12.0132 14.2698 11.8252 14.6269 11.8252H37.2934C37.567 11.8252 37.8281 11.9362 38.0142 12.1312C40.3265 14.5551 39.765 18.5545 38.8234 20.6514C38.3167 21.7803 37.6984 22.3729 36.9844 22.4138C36.9123 22.4218 36.8414 22.4255 36.7703 22.4255ZM36.7933 20.5143C36.7973 20.5166 36.802 20.5184 36.8068 20.5203C36.8519 20.5143 36.8567 20.5054 36.9028 20.5054C36.8634 20.5054 36.826 20.5087 36.7933 20.5143ZM34.5483 15.7289C35.0503 15.7289 35.4736 16.0974 35.5254 16.5845C35.7059 18.2532 36.2674 20.0566 36.7099 20.4555C37.0045 20.0412 37.5373 18.8437 37.6495 17.259C37.71 16.4007 37.6726 14.8673 36.8308 13.736H15.2355C14.6509 14.9592 13.3542 18.1841 14.793 20.198C15.7874 19.2225 17.325 16.6418 18.3817 14.3551C18.4998 14.0989 18.7283 13.9067 19.0057 13.8289C19.2821 13.7505 19.5815 13.7957 19.8216 13.9501C20.886 14.6364 22.0542 15.2624 22.8268 15.582C22.8498 15.3412 22.966 15.1113 23.1637 14.9448C23.4977 14.6634 23.9853 14.6345 24.35 14.8724C25.6689 15.7247 27.2103 16.4478 27.9188 16.5709C27.911 16.536 27.9023 16.4977 27.8908 16.4548C27.7795 16.0312 27.9782 15.5885 28.3727 15.3795C28.7672 15.1696 29.2586 15.2484 29.5639 15.5684C30.8721 16.9395 32.6142 18.0563 33.1575 17.8791C33.2698 17.8403 33.5011 17.5268 33.5683 16.6157C33.6048 16.1217 34.0233 15.7369 34.532 15.7289H34.5483Z" fill="white"/>
<path d="M31.923 43.5519C32.0409 43.4946 32.149 43.4373 32.2473 43.3704C32.6405 43.1124 32.9452 42.7876 33.1614 42.4055C33.3678 42.052 33.4956 41.6602 33.5251 41.259C33.584 40.7431 33.4857 40.208 33.2302 39.7112L32.9353 38.9756" fill="white"/>
<path d="M31.923 43.5519C32.0409 43.4946 32.149 43.4373 32.2473 43.3704C32.6405 43.1124 32.9452 42.7876 33.1614 42.4055C33.3678 42.052 33.4956 41.6602 33.5251 41.259C33.584 40.7431 33.4857 40.208 33.2302 39.7112L32.9353 38.9756" stroke="white" stroke-width="3.24416" stroke-miterlimit="10" stroke-linecap="round" stroke-linejoin="round"/>
<path d="M31.923 43.5518C31.6576 43.6856 31.3726 43.7715 31.0875 43.8098C30.9008 43.848 30.7042 43.8671 30.5175 43.848C29.4756 43.8289 28.4731 43.2556 27.962 42.2811L27.4902 41.2397" fill="white"/>
<path d="M31.923 43.5518C31.6576 43.6856 31.3726 43.7715 31.0875 43.8098C30.9008 43.848 30.7042 43.8671 30.5175 43.848C29.4756 43.8289 28.4731 43.2556 27.962 42.2811L27.4902 41.2397" stroke="white" stroke-width="3.24416" stroke-miterlimit="10" stroke-linecap="round" stroke-linejoin="round"/>
<path d="M40.474 39.482C39.0488 38.5552 37.1322 37.9629 34.5472 37.9629C33.9968 38.3164 33.4661 38.6508 32.9353 38.9661C31.0679 40.0839 29.3085 40.9055 27.4902 41.2303C26.9398 41.3354 26.3894 41.3832 25.8292 41.3928H25.7014C23.0131 41.3668 20.583 40.2203 17.8485 38.5139" fill="white"/>
<path d="M40.474 39.482C39.0488 38.5552 37.1322 37.9629 34.5472 37.9629C33.9968 38.3164 33.4661 38.6508 32.9353 38.9661C31.0679 40.0839 29.3085 40.9055 27.4902 41.2303C26.9398 41.3354 26.3894 41.3832 25.8292 41.3928H25.7014C23.0131 41.3668 20.583 40.2203 17.8485 38.5139" stroke="white" stroke-width="3.24416" stroke-miterlimit="10" stroke-linecap="round" stroke-linejoin="round"/>
<path d="M32.3358 43.5137L32.8862 43.934C35.707 46.8576 33.3088 50.0868 33.3088 50.0868C33.3088 50.0868 29.8098 48.262 30.9008 44.4404L31.0875 43.829" fill="white"/>
<path d="M32.3358 43.5137L32.8862 43.934C35.707 46.8576 33.3088 50.0868 33.3088 50.0868C33.3088 50.0868 29.8098 48.262 30.9008 44.4404L31.0875 43.829" stroke="white" stroke-width="3.24416" stroke-miterlimit="10" stroke-linecap="round" stroke-linejoin="round"/>
<path d="M19.3743 42.8911C19.7633 43.238 20.2154 43.5605 20.7409 43.8403C21.2665 44.1201 21.8653 44.3574 22.5478 44.5336C22.7524 44.5865 22.9643 44.6338 23.1841 44.6751C25.0234 45.0214 27.4075 44.9499 30.4979 44.1726" fill="white"/>
<path d="M19.3743 42.8911C19.7633 43.238 20.2154 43.5605 20.7409 43.8403C21.2665 44.1201 21.8653 44.3574 22.5478 44.5336C22.7524 44.5865 22.9643 44.6338 23.1841 44.6751C25.0234 45.0214 27.4075 44.9499 30.4979 44.1726" stroke="white" stroke-width="3.24416" stroke-miterlimit="10" stroke-linecap="round" stroke-linejoin="round"/>
<path d="M33.1417 42.367L33.1614 42.4053L33.4956 42.9689C35.7365 46.6854 39.5697 45.902 39.5697 45.902C39.5697 45.902 38.9702 42.1186 34.5571 41.4021L33.5349 41.2588" fill="white"/>
<path d="M33.1417 42.367L33.1614 42.4053L33.4956 42.9689C35.7365 46.6854 39.5697 45.902 39.5697 45.902C39.5697 45.902 38.9702 42.1186 34.5571 41.4021L33.5349 41.2588" stroke="white" stroke-width="3.24416" stroke-miterlimit="10" stroke-linecap="round" stroke-linejoin="round"/>
<path d="M15.6367 55.8891C12.212 55.8891 8.57611 54.8405 5.7935 52.7803C5.32702 52.4342 4.87972 52.0666 4.46416 51.6869C4.18198 51.4275 3.91316 51.1644 3.65978 50.8957C0.47507 47.5266 -0.730522 43.0659 0.43664 38.9645C1.03845 36.8475 2.45998 35.0822 4.43919 33.9943C6.4529 32.8868 8.79303 32.6125 11.0352 33.2172L11.3395 33.2973C13.4914 33.8506 19.0748 35.2874 20.4234 44.04C22.4774 43.7946 24.4997 44.513 25.5968 45.9573C26.7717 47.5033 26.6777 49.4934 25.3387 51.4181C24.8703 52.0927 24.2454 52.7627 23.4814 53.4101C21.5195 55.0719 18.6601 55.8891 15.6367 55.8891ZM6.98562 51.2595C11.4661 54.5783 18.7139 54.9151 22.1894 51.9696C22.8248 51.4312 23.3364 50.8854 23.7108 50.348C24.567 49.1165 24.6754 47.9605 24.0151 47.0928C23.2155 46.0413 21.4725 45.6261 19.8695 46.1C19.5883 46.184 19.283 46.1401 19.0402 45.9835C18.7954 45.8257 18.6361 45.5701 18.6054 45.2865C17.6974 36.909 12.8895 35.6728 10.8365 35.1447L10.5082 35.0589C8.77376 34.5896 6.96262 34.8023 5.40762 35.657C3.88535 36.4938 2.79308 37.8495 2.33132 39.4739C1.34658 42.9353 2.3842 46.7224 5.10725 49.6025C5.32987 49.8376 5.56409 50.069 5.81178 50.2957C6.1774 50.6297 6.57193 50.9545 6.98562 51.2595Z" fill="white"/>
<path d="M47.5059 33.2339L47.0339 32.3751C45.1034 27.1531 50.6741 25.4844 50.6741 25.4844C50.6741 25.4844 54.561 29.6489 50.2406 33.1812L49.5232 33.741" fill="white"/>
<path d="M47.5059 33.2339L47.0339 32.3751C45.1034 27.1531 50.6741 25.4844 50.6741 25.4844C50.6741 25.4844 54.561 29.6489 50.2406 33.1812L49.5232 33.741" stroke="white" stroke-width="3.24416" stroke-miterlimit="10" stroke-linecap="round" stroke-linejoin="round"/>
<path d="M49.6586 37.2389L45.8541 51.5388C45.5662 52.621 44.4285 53.2725 43.3152 52.9927C42.7633 52.8539 42.3084 52.5027 42.0404 52.0604C41.7723 51.6179 41.6768 51.0611 41.8195 50.5246L45.6239 36.2246" fill="white"/>
<path d="M49.6586 37.2389L45.8541 51.5388C45.5662 52.621 44.4285 53.2725 43.3152 52.9927C42.7633 52.8539 42.3084 52.5027 42.0404 52.0604C41.7723 51.6179 41.6768 51.0611 41.8195 50.5246L45.6239 36.2246" stroke="white" stroke-width="3.24416" stroke-miterlimit="10" stroke-linecap="round" stroke-linejoin="round"/>
<path d="M49.6586 37.2389L50.5224 33.9923L49.5232 33.7411L47.5058 33.234L46.4877 32.978L45.6239 36.2247L49.6586 37.2389Z" fill="white" stroke="white" stroke-width="3.24416" stroke-miterlimit="10" stroke-linecap="round" stroke-linejoin="round"/>
</svg>
