<svg width="17" height="18" viewBox="0 0 17 18" fill="none" xmlns="http://www.w3.org/2000/svg">
<path d="M1.42407 10.0152H6.66612C7.14664 10.0152 7.53979 9.60895 7.53979 9.11238V1.88966C7.53979 1.39309 7.14664 0.986816 6.66612 0.986816H1.42407C0.943553 0.986816 0.5504 1.39309 0.5504 1.88966V9.11238C0.5504 9.60895 0.943553 10.0152 1.42407 10.0152ZM1.42407 17.238H6.66612C7.14664 17.238 7.53979 16.8317 7.53979 16.3351V12.7237C7.53979 12.2272 7.14664 11.8209 6.66612 11.8209H1.42407C0.943553 11.8209 0.5504 12.2272 0.5504 12.7237V16.3351C0.5504 16.8317 0.943553 17.238 1.42407 17.238ZM10.1608 17.238H15.4029C15.8834 17.238 16.2765 16.8317 16.2765 16.3351V9.11238C16.2765 8.61582 15.8834 8.20954 15.4029 8.20954H10.1608C9.68029 8.20954 9.28714 8.61582 9.28714 9.11238V16.3351C9.28714 16.8317 9.68029 17.238 10.1608 17.238ZM9.28714 1.88966V5.50102C9.28714 5.99758 9.68029 6.40386 10.1608 6.40386H15.4029C15.8834 6.40386 16.2765 5.99758 16.2765 5.50102V1.88966C16.2765 1.39309 15.8834 0.986816 15.4029 0.986816H10.1608C9.68029 0.986816 9.28714 1.39309 9.28714 1.88966Z" fill="white"/>
</svg>
