<svg width="95" height="95" viewBox="0 0 95 95" fill="none" xmlns="http://www.w3.org/2000/svg">
<path d="M80.5872 40.1749L50.1598 9.07654C49.793 8.70665 49.3565 8.41305 48.8756 8.21269C48.3946 8.01233 47.8788 7.90918 47.3578 7.90918C46.8368 7.90918 46.321 8.01233 45.8401 8.21269C45.3592 8.41305 44.9227 8.70665 44.5558 9.07654L14.1284 40.2143C13.3921 40.9565 12.8107 41.8376 12.4177 42.8064C12.0248 43.7752 11.8282 44.8124 11.8394 45.8578V78.9294C11.8364 80.9496 12.6081 82.8942 13.9957 84.3625C15.3833 85.8309 17.2811 86.7112 19.2983 86.8223H75.4173C77.4346 86.7112 79.3324 85.8309 80.7199 84.3625C82.1075 82.8942 82.8793 80.9496 82.8762 78.9294V45.8578C82.8793 43.7383 82.0586 41.7005 80.5872 40.1749ZM39.4649 78.9294V55.2504H55.2508V78.9294H39.4649ZM74.9832 78.9294H63.1438V51.304C63.1438 50.2573 62.728 49.2535 61.9879 48.5134C61.2478 47.7733 60.244 47.3575 59.1973 47.3575H35.5184C34.4717 47.3575 33.4679 47.7733 32.7278 48.5134C31.9877 49.2535 31.5719 50.2573 31.5719 51.304V78.9294H19.7324V45.6999L47.3578 17.4826L74.9832 45.8578V78.9294Z" fill="#231F20"/>
</svg>
