<svg width="65" height="70" viewBox="0 0 65 70" fill="none" xmlns="http://www.w3.org/2000/svg">
<path d="M64.1745 34.7612C64.1745 33.578 63.6625 32.5138 62.8469 31.7798L49.4772 19.747C48.766 19.108 47.8247 18.7176 46.7939 18.7176C44.5786 18.7176 42.783 20.5131 42.783 22.7285C42.783 23.9117 43.2964 24.9759 44.1106 25.7099L49.7112 30.7503H25.4024C23.1871 30.7503 21.3915 32.5458 21.3915 34.7612C21.3915 36.9766 23.1871 38.7721 25.4024 38.7721H49.7112L44.112 43.8125C43.2964 44.5478 42.783 45.6107 42.783 46.7939C42.783 49.0093 44.5786 50.8048 46.7939 50.8048C47.8247 50.8048 48.766 50.4144 49.4772 49.7754L62.8469 37.7426C63.6625 37.01 64.1745 35.9444 64.1745 34.7612ZM24.0654 61.5006H8.02182V8.02182H24.0654C26.2808 8.02182 28.0764 6.22627 28.0764 4.01091C28.0764 1.79555 26.2808 0 24.0654 0H4.01091C1.79555 0 0 1.79555 0 4.01091V65.5115C0 67.7269 1.79555 69.5224 4.01091 69.5224H24.0654C26.2808 69.5224 28.0764 67.7269 28.0764 65.5115C28.0764 63.2961 26.2808 61.5006 24.0654 61.5006Z" fill="url(#paint0_linear_477_156)"/>
<defs>
<linearGradient id="paint0_linear_477_156" x1="58.9829" y1="4.66435" x2="-9.27089" y2="70.2507" gradientUnits="userSpaceOnUse">
<stop stop-color="#FF66C4"/>
<stop offset="1" stop-color="#00FFF2"/>
</linearGradient>
</defs>
</svg>
