<svg width="390" height="170" viewBox="0 0 390 170" fill="none" xmlns="http://www.w3.org/2000/svg">
<path d="M62.6746 108.607H62.6537V106.941C62.6537 106.941 62.6537 106.925 62.6746 106.905V108.607ZM45.5903 108.607H45.5736V106.905C45.5903 106.925 45.5903 106.941 45.5903 106.941V108.607ZM116.095 109.664H115.343V109.968H109.612V109.664H108.856V110.58H107.75V111.297H108.652V111.905H108.89V112.659L109.019 112.785V119.142L108.873 119.325V119.556H109.019V121.257H108.414V121.744L108.781 121.902V124.483H108.155V125.164H108.322V126.776H104.855V126.4H104.93V126.31L104.709 126.096C104.692 125.865 104.617 125.613 104.709 125.488C104.8 125.342 104.763 125.216 104.838 124.771C104.892 124.341 104.633 124.126 104.542 123.98C104.45 123.839 104.504 123.677 104.32 123.64C104.136 123.587 104.082 123.66 104.099 123.818C104.12 124.001 103.769 124.126 103.677 124.378C103.585 124.645 103.439 124.771 103.585 124.876C103.731 124.985 103.915 125.111 103.877 125.415C103.861 125.63 103.915 125.934 103.936 126.096H103.752L103.531 126.31V126.4H103.602V126.776H99.6209V126.4H99.6961V126.31L99.458 126.096C99.458 126.059 99.458 126.007 99.458 125.954C99.458 125.682 99.4747 125.378 99.4747 125.164C99.4914 124.949 99.6042 124.823 99.529 124.536C99.458 124.252 99.1447 124.179 99.1238 123.98C99.0862 123.766 99.1447 123.535 99.0528 123.498C98.94 123.462 98.773 123.478 98.7938 123.66C98.7938 123.839 98.7562 124.017 98.5516 124.195C98.3678 124.378 98.4597 125.111 98.443 125.431C98.4263 125.646 98.4806 125.934 98.5182 126.096L98.2759 126.31V126.4H98.3678V126.776H98.0211V64.1353H95.3853V63.3654H92.3987L91.2542 62.6482L88.1423 63.025L87.2024 62.7008V59.443C87.2024 57.7208 80.6611 57.7208 80.6611 57.7208C80.6611 57.7208 74.1156 57.7208 74.1156 59.443V62.7008L73.1967 63.025L70.0639 62.6482L68.9193 63.3654H65.9369V64.1353H63.3012V102.533H63.0965V100.884C63.0965 100.884 63.1717 100.815 63.1341 100.689C63.0965 100.563 62.9127 99.2547 62.9127 99.2547V99.1655H63.0046V99.0926H62.9127V99.0237H62.8584V99.0926H62.7665V99.1655H62.8584V99.2547C62.8584 99.2547 62.6746 100.563 62.637 100.689C62.5994 100.815 62.6746 100.884 62.6746 100.884V102.533H62.5994V104.612L62.6746 104.721V106.727C62.637 106.512 62.4699 105.313 62.4699 105.313V105.223H62.5451V105.15H62.4699V105.078H62.3989V105.15H62.3237V105.223H62.3989V105.313C62.3989 105.313 62.2318 106.617 62.1942 106.743C62.1399 106.869 62.2109 106.941 62.2109 106.941V108.607H62.1942L62.0105 108.23C62.1023 108.177 62.1775 108.072 62.1775 107.946C62.1775 107.764 62.0272 107.606 61.8643 107.606C61.8058 107.606 61.7724 107.622 61.7139 107.659L61.2377 106.69C61.3463 106.638 61.4215 106.512 61.4215 106.386C61.4215 106.208 61.292 106.062 61.1082 106.062C61.0539 106.062 60.9954 106.082 60.9578 106.099L60.4816 105.13C60.5902 105.078 60.6654 104.972 60.6654 104.826C60.6654 104.648 60.5359 104.506 60.3689 104.506C60.2978 104.506 60.2394 104.522 60.1851 104.559L59.7047 103.59C59.8342 103.538 59.9094 103.412 59.9094 103.27C59.9094 103.088 59.7799 102.946 59.6128 102.946C59.5418 102.946 59.4875 102.962 59.429 102.999L58.9528 102.03C59.0614 101.998 59.1366 101.872 59.1366 101.726C59.1366 101.548 59.0071 101.406 58.84 101.406C58.7649 101.406 58.7106 101.423 58.6563 101.459L58.1759 100.474C58.2887 100.418 58.3806 100.292 58.3806 100.15C58.3806 99.9719 58.2511 99.8301 58.0673 99.8301C58.013 99.8301 57.9378 99.8463 57.8835 99.899L57.4198 98.9508C57.5326 98.8981 57.6245 98.7725 57.6245 98.6266C57.6245 98.4483 57.4783 98.3065 57.3112 98.3065C57.236 98.3065 57.1817 98.3227 57.1274 98.3592L56.6304 97.3745C56.7599 97.338 56.8518 97.2124 56.8518 97.0706C56.8518 96.8883 56.7014 96.7302 56.5385 96.7302C56.4633 96.7302 56.409 96.7626 56.3547 96.7991L55.8743 95.8509C56.0038 95.7982 56.0748 95.6726 56.0748 95.5268C56.0748 95.3485 55.9453 95.2066 55.7615 95.2066C55.7072 95.2066 55.6529 95.2229 55.5986 95.2593L55.1016 94.2747C55.2269 94.2382 55.3021 94.1126 55.3021 93.9708C55.3021 93.7884 55.1726 93.6466 54.9888 93.6466C54.9345 93.6466 54.8593 93.6628 54.8217 93.6993L54.475 93.0023C54.5669 92.6255 54.5836 92.2122 54.6379 91.892C54.6755 91.5517 54.6003 91.6043 54.6003 91.2437C54.6003 90.8709 54.8593 90.5467 54.8969 90.2793C54.9512 90.0078 54.7131 90.2591 54.6755 90.5994C54.6379 90.9398 54.3622 91.0289 54.287 90.8507C54.216 90.6724 54.4917 90.3847 54.216 90.2428C53.9194 90.097 53.9027 90.4373 53.9027 90.5994C53.8818 90.7777 53.8275 90.7453 53.6605 90.6724C53.4976 90.6197 53.5143 91.1019 53.5143 91.3693C53.5352 91.6206 53.7356 91.6408 53.6813 92.0339C53.6438 92.4472 53.7524 93.0185 53.7524 93.0388L53.4224 93.6993C53.3681 93.6628 53.3138 93.6466 53.2553 93.6466C53.0715 93.6466 52.942 93.7884 52.942 93.9708C52.942 94.1126 53.0172 94.2382 53.1467 94.2747L52.6496 95.2593C52.5953 95.2229 52.5368 95.2066 52.4825 95.2066C52.2987 95.2066 52.1692 95.3485 52.1692 95.5268C52.1692 95.6726 52.2444 95.7982 52.3739 95.8509L51.8936 96.7991C51.8393 96.7626 51.7808 96.7302 51.7098 96.7302C51.5427 96.7302 51.3965 96.8883 51.3965 97.0706C51.3965 97.2124 51.4884 97.338 51.6179 97.3745L51.1208 98.3592C51.0623 98.3227 51.008 98.3065 50.9328 98.3065C50.7699 98.3065 50.6195 98.4483 50.6195 98.6266C50.6195 98.7725 50.7156 98.8981 50.8242 98.9508L50.3647 99.899C50.3063 99.8463 50.2353 99.8301 50.181 99.8301C49.993 99.8301 49.8677 99.9719 49.8677 100.15C49.8677 100.292 49.9596 100.418 50.0682 100.474L49.5878 101.459C49.5335 101.423 49.4792 101.406 49.404 101.406C49.2411 101.406 49.1116 101.548 49.1116 101.726C49.1116 101.872 49.1826 101.998 49.2954 102.03L48.815 102.999C48.7607 102.962 48.7064 102.946 48.6313 102.946C48.4642 102.946 48.3347 103.088 48.3347 103.27C48.3347 103.412 48.4099 103.538 48.5394 103.59L48.059 104.559C48.0047 104.522 47.9504 104.506 47.8752 104.506C47.7081 104.506 47.5828 104.648 47.5828 104.826C47.5828 104.972 47.6538 105.078 47.7666 105.13L47.2862 106.099C47.2486 106.082 47.1943 106.062 47.14 106.062C46.9562 106.062 46.8268 106.208 46.8268 106.386C46.8268 106.512 46.8978 106.638 46.9897 106.69L46.5302 107.659C46.4759 107.622 46.4383 107.606 46.384 107.606C46.2169 107.606 46.0707 107.764 46.0707 107.946C46.0707 108.072 46.1417 108.177 46.2336 108.23L46.0498 108.607H46.0331V106.941C46.0331 106.941 46.0874 106.869 46.0498 106.743C46.0164 106.617 45.8493 105.313 45.8493 105.313V105.223H45.9203V105.15H45.8493V105.078H45.7741V105.15H45.7031V105.223H45.7741V105.313C45.7741 105.313 45.607 106.512 45.5736 106.727V104.721L45.6446 104.612V102.533H45.5736V100.884C45.5736 100.884 45.6446 100.815 45.607 100.689C45.5736 100.563 45.3898 99.2547 45.3898 99.2547V99.1655H45.4608V99.0926H45.3898V99.0237H45.3314V99.0926H45.2395V99.1655H45.3314V99.2547C45.3314 99.2547 45.1476 100.563 45.11 100.689C45.0766 100.815 45.1476 100.884 45.1476 100.884V102.533H44.6338V99.6113L44.4834 99.5424V98.343H44.4667V96.8883C44.4667 96.8883 44.5586 96.7991 44.5043 96.637C44.4667 96.479 44.1158 94.7771 44.1158 94.7771V94.6677H44.2286V94.5786H44.1158V94.4692H44.0239V94.5786H43.932V94.6677H44.0239V94.7771C44.0239 94.7771 43.6939 96.479 43.6355 96.637C43.5812 96.7991 43.6731 96.8883 43.6731 96.8883V98.343H39.379V97.5163L39.4375 97.4272V97.2489L39.2495 97.1233H38.9571L38.7525 97.2489V97.4272L38.8276 97.5163V98.343H34.0532V97.2489L34.0365 97.2286V96.1022C34.0365 96.1022 34.0908 96.0495 34.0532 95.9765C34.0365 95.8874 33.9237 94.9919 33.9237 94.9919V94.9352H33.9613V94.8825H33.9237V94.8298H33.8694V94.8825H33.8151V94.9352H33.8694V94.9919C33.8694 94.9919 33.74 95.8874 33.7232 95.9765C33.7024 96.0495 33.74 96.1022 33.74 96.1022V97.0341L32.8001 96.4223H32.7625V95.4376C32.7625 95.4376 32.8001 95.4011 32.7834 95.312C32.7625 95.2229 32.6372 94.3273 32.6372 94.3273V94.2747H32.6915V94.2179H32.6372V94.1653H32.5996V94.2179H32.5453V94.2747H32.5996V94.3273C32.5996 94.3273 32.4701 95.2229 32.4492 95.312C32.4158 95.4011 32.4701 95.4376 32.4701 95.4376V96.4223H31.2337V95.4376C31.2337 95.4376 31.2922 95.4011 31.2713 95.312C31.2337 95.2229 31.1251 94.3273 31.1251 94.3273V94.2747H31.1794V94.2179H31.1251V94.1653H31.0708V94.2179H31.0332V94.2747H31.0708V94.3273C31.0708 94.3273 30.958 95.2229 30.9204 95.312C30.9037 95.4011 30.958 95.4376 30.958 95.4376V96.4223L30.2771 96.7626V95.9563C30.2771 95.9563 30.3315 95.9036 30.2939 95.8145C30.2772 95.7415 30.1644 94.846 30.1644 94.846V94.7933H30.202V94.7407H30.1644V94.6839H30.1101V94.7407H30.0558V94.7933H30.1101V94.846C30.1101 94.846 30.0015 95.7415 29.9639 95.8145C29.943 95.9036 29.9806 95.9563 29.9806 95.9563V96.9247L29.9639 96.945V98.736L29.8344 98.9143V99.0399L29.943 99.1291V104.506H29.7801V104.632L29.872 104.79V111.512H29.7049V111.618L29.8177 111.816V121.347H29.5754V121.509L29.7968 121.744V130.075H28.8945V127.315C28.8945 127.315 29.0031 127.206 28.9488 127.011C28.8945 126.793 28.4726 124.681 28.4726 124.681V124.536H28.5813V124.41H28.4726V124.284H28.3432V124.41H28.2304V124.536H28.3432V124.681C28.3432 124.681 27.9171 126.793 27.8628 127.011C27.8085 127.206 27.9171 127.315 27.9171 127.315V130.075H27.6957L27.3824 130.29V131.902L27.1986 132.259V132.563L27.5119 133.013V138.479H27.1986V138.762L27.3824 139.265V161.43L27.1986 161.681V162.933H63.3012V165.766H98.0211V159.209H116.354V156L116.225 155.623V131.384L116.354 131.039V130.666H116.225V129.374H116.576V129.106H116.91L117.202 128.782V128.227H116.171V121.902L116.538 121.744V121.257H115.912V119.556H116.079V119.325L115.912 119.142V112.785L116.062 112.659V111.905H116.3V111.297H117.202V110.58H116.095V109.664Z" fill="#FF66C4"/>
<path d="M351.261 111.601C351.261 111.853 351.261 112.104 351.244 112.351C351.04 112.351 349.398 112.388 349.252 113.105C349.235 113.125 349.235 113.125 349.235 113.141L349.436 116.707C349.436 116.76 349.473 116.812 349.527 116.833C349.565 116.833 350.083 116.974 350.839 117.011C350.818 117.173 350.801 117.351 350.764 117.53L337.493 115.597C337.736 113.984 337.865 112.335 337.865 110.669C337.865 109.182 337.752 107.695 337.568 106.261L350.839 104.449C350.893 104.826 350.948 105.223 350.985 105.616C350.467 105.653 349.365 105.795 349.252 106.37C349.235 106.386 349.235 106.386 349.235 106.403L349.436 109.968C349.436 110.025 349.473 110.078 349.527 110.078C349.565 110.094 350.267 110.272 351.261 110.272C351.261 110.272 351.261 110.272 351.278 110.272C351.278 110.722 351.278 111.152 351.261 111.601ZM350.559 118.786C350.083 118.802 348.863 118.928 348.717 119.539C348.717 119.556 348.717 119.556 348.717 119.572L348.922 123.138C348.922 123.194 348.959 123.247 349.014 123.247C349.03 123.263 349.197 123.3 349.473 123.352C349.252 124.126 348.993 124.896 348.738 125.666C348.295 125.682 346.984 125.792 346.837 126.436V126.452L347.021 129.84C346.95 129.986 346.892 130.128 346.821 130.269L334.674 124.771C336.002 121.975 336.959 118.984 337.46 115.848L350.726 117.765C350.672 118.105 350.618 118.445 350.559 118.786ZM345.639 132.563C345.125 132.599 344.001 132.725 343.851 133.317C343.851 133.333 343.851 133.333 343.851 133.353L343.98 135.343C343.262 136.433 342.506 137.49 341.716 138.532C341.182 138.568 340.129 138.71 339.999 139.265C339.999 139.285 339.999 139.301 339.999 139.301L340.075 140.537C339.816 140.825 339.578 141.113 339.319 141.396L329.315 132.798C331.395 130.452 333.182 127.834 334.565 125.002L346.708 130.504C346.378 131.201 346.01 131.882 345.639 132.563ZM338.157 142.632C337.752 142.653 336.37 142.742 336.223 143.386C336.223 143.406 336.223 143.422 336.223 143.422L336.299 144.444C335.43 145.234 334.565 145.983 333.642 146.701C333.295 146.721 331.837 146.79 331.691 147.47C331.691 147.47 331.691 147.491 331.691 147.507L331.729 148.151C330.806 148.816 329.866 149.444 328.909 150.035L321.829 139.034C324.54 137.348 326.992 135.306 329.127 132.976L339.135 141.595C338.805 141.935 338.492 142.292 338.157 142.632ZM327.84 150.68L321.278 139.374C321.391 139.301 321.499 139.249 321.608 139.176L328.688 150.177C328.408 150.339 328.116 150.518 327.84 150.68ZM325.334 151.899C325.334 151.899 325.334 151.916 325.334 151.932L325.35 152.025C323.914 152.738 322.456 153.403 320.948 153.978C320.451 154.031 319.657 154.156 319.398 154.549C318.421 154.89 317.427 155.194 316.395 155.481L312.836 142.993C314.995 142.385 317.059 141.595 319.01 140.61L325.442 151.701C325.388 151.753 325.367 151.826 325.334 151.899ZM303.55 157.22C303.496 157.22 303.437 157.22 303.383 157.22L303.458 144.302C306.629 144.281 309.686 143.852 312.598 143.066L316.157 155.554C312.138 156.628 307.899 157.22 303.55 157.22ZM303.329 124.07C303.312 124.07 303.291 124.07 303.275 124.07C302.092 124.07 300.952 123.928 299.866 123.66L302.335 115.236C302.648 115.293 302.94 115.325 303.275 115.325C303.312 115.325 303.329 115.325 303.366 115.325L303.329 124.07ZM303.275 134.479C301.061 134.479 298.943 134.196 296.917 133.657L299.791 123.912C300.898 124.179 302.059 124.341 303.275 124.341C303.291 124.341 303.312 124.321 303.329 124.321L303.275 134.479ZM303.199 144.05C300.087 144.05 297.063 143.637 294.189 142.867L296.842 133.908C298.889 134.447 301.044 134.731 303.254 134.731L303.199 144.05ZM303.124 157.22C302.999 157.22 302.832 157.22 302.686 157.199C298.463 157.131 294.373 156.519 290.484 155.465L294.135 143.118C297.009 143.888 300.067 144.302 303.199 144.302L303.124 157.22ZM287.682 154.586C287.427 154.136 286.487 154.011 285.99 153.978C284.532 153.403 283.095 152.775 281.696 152.078L281.712 151.932C281.712 151.916 281.712 151.899 281.696 151.899C281.658 151.701 281.529 151.559 281.324 151.466L287.59 140.647C289.582 141.648 291.683 142.438 293.876 143.046L290.225 155.392C289.377 155.141 288.529 154.874 287.682 154.586ZM278.893 150.554C278.58 150.376 278.283 150.197 277.991 149.999L285.029 139.249C285.121 139.301 285.234 139.374 285.326 139.427L278.893 150.554ZM275.317 148.224L275.355 147.507C275.355 147.491 275.355 147.47 275.355 147.47C275.188 146.737 273.53 146.701 273.329 146.701C273.329 146.701 273.308 146.701 273.291 146.701C272.423 146.004 271.579 145.286 270.748 144.533L270.823 143.422C270.823 143.422 270.823 143.406 270.823 143.386C270.656 142.669 269.014 142.632 268.814 142.632C268.388 142.203 267.982 141.773 267.598 141.327L277.418 133.013C279.574 135.359 282.063 137.421 284.808 139.103L277.769 149.873C276.921 149.334 276.111 148.8 275.317 148.224ZM266.972 140.626L267.043 139.301C267.043 139.301 267.043 139.285 267.043 139.265C266.913 138.673 265.752 138.548 265.255 138.511C264.482 137.527 263.764 136.489 263.062 135.432L263.191 133.353C263.191 133.333 263.191 133.333 263.191 133.317C263.045 132.709 261.846 132.583 261.349 132.563C260.927 131.777 260.518 130.97 260.113 130.144L271.926 124.912C273.329 127.798 275.117 130.452 277.251 132.814L267.41 141.129C267.264 140.967 267.118 140.805 266.972 140.626ZM260.205 126.436C260.058 125.772 258.676 125.682 258.292 125.666C258.012 124.896 257.774 124.126 257.552 123.352C257.849 123.3 258.012 123.263 258.033 123.247C258.087 123.247 258.124 123.194 258.124 123.138L258.325 119.572C258.325 119.556 258.325 119.556 258.325 119.539C258.2 118.911 256.963 118.802 256.483 118.786C256.391 118.32 256.32 117.838 256.245 117.372L269.052 115.633C269.532 118.822 270.472 121.865 271.817 124.698L260.021 129.913L260.205 126.452V126.436ZM256.19 117.011C256.963 116.974 257.481 116.833 257.515 116.833C257.573 116.812 257.607 116.76 257.607 116.707L257.811 113.141C257.811 113.125 257.811 113.125 257.811 113.105C257.644 112.388 256.007 112.351 255.802 112.351C255.764 111.654 255.764 110.973 255.785 110.272C256.779 110.272 257.481 110.094 257.515 110.078C257.573 110.078 257.607 110.025 257.607 109.968L257.811 106.403C257.811 106.386 257.811 106.386 257.811 106.37C257.682 105.795 256.596 105.653 256.078 105.616C256.132 105.13 256.19 104.648 256.261 104.182C256.52 104.198 256.817 104.235 257.168 104.235C257.277 104.235 257.385 104.219 257.481 104.219L269.014 105.904C268.793 107.46 268.663 109.057 268.663 110.669C268.663 112.262 268.793 113.838 268.997 115.382L256.207 117.12C256.207 117.084 256.207 117.047 256.19 117.011ZM255.343 103.915C255.343 103.967 255.38 104.02 255.434 104.04C255.451 104.04 255.451 104.04 255.489 104.04C255.397 104.575 255.343 105.098 255.288 105.633C254.916 105.669 254.457 105.758 254.144 105.937V101.155H250.994V98.4321H256.667C256.558 98.8252 256.445 99.2182 256.353 99.6315C255.84 99.7045 255.251 99.899 255.159 100.312C255.138 100.329 255.138 100.329 255.138 100.349L255.343 103.915ZM254.144 112.675V110.094C254.273 110.13 254.566 110.203 254.992 110.24C254.992 110.973 254.992 111.691 255.029 112.408C254.716 112.46 254.382 112.55 254.144 112.675ZM237.799 113.068H253.793C253.793 113.089 253.776 113.089 253.776 113.105C253.776 113.125 253.776 113.125 253.776 113.141L253.906 115.487H237.799V113.068ZM230.481 101.155V98.4321H240.084V101.155H230.481ZM229.816 101.155H229.286V102.569H226.721V98.4321H229.816V101.155ZM253.906 108.733H237.799V106.313H253.793C253.793 106.334 253.793 106.35 253.776 106.37C253.776 106.386 253.776 106.386 253.776 106.403L253.906 108.733ZM240.727 98.4321H250.347V101.155H240.727V98.4321ZM259.048 98.4321C260.042 98.4321 260.739 98.2336 260.777 98.2336C260.831 98.2174 260.869 98.1809 260.869 98.1242L261.074 94.5421C261.074 94.5421 261.074 94.5259 261.053 94.5259C260.927 93.8614 259.524 93.7722 259.14 93.752C259.469 92.9294 259.837 92.1068 260.226 91.3005L260.614 91.4585L271.855 96.5682C270.51 99.3965 269.549 102.444 269.052 105.653L258.513 104.109C258.734 104.077 258.881 104.04 258.881 104.04C258.935 104.02 258.972 103.967 258.972 103.915L259.173 100.349C259.173 100.329 259.173 100.329 259.173 100.312C259.027 99.6315 257.498 99.5586 257.201 99.5586C257.293 99.1818 257.406 98.8049 257.515 98.4321H257.59V98.2863C257.886 98.3592 258.4 98.4321 259.048 98.4321ZM260.485 90.7615L260.501 91.1384L260.334 91.0654C260.393 90.9601 260.426 90.8709 260.485 90.7615ZM262.343 91.657C263.321 91.657 264.039 91.4788 264.06 91.4585C264.114 91.4585 264.152 91.4058 264.152 91.3531L264.353 87.7873C264.353 87.7711 264.353 87.7711 264.353 87.7508C264.223 87.1592 263.099 87.0336 262.586 86.9971C263.175 86.049 263.801 85.1372 264.444 84.2377L264.536 86.0125C264.536 86.0692 264.574 86.1219 264.628 86.1381C264.666 86.1381 265.368 86.3367 266.345 86.3367C267.339 86.3367 268.037 86.1381 268.074 86.1381C268.133 86.1219 268.166 86.0692 268.166 86.0125L268.371 82.4467C268.371 82.4304 268.371 82.4304 268.371 82.4102C268.225 81.7659 266.842 81.6606 266.454 81.6606C266.859 81.1581 267.302 80.6556 267.723 80.1734L277.343 88.4316C275.188 90.798 273.362 93.4481 271.963 96.3331L261.571 91.6206C261.809 91.657 262.068 91.657 262.343 91.657ZM269.127 78.7025L269.236 80.8907C269.256 80.9433 269.29 80.996 269.348 81.0163C269.365 81.0163 270.083 81.2108 271.061 81.2108C272.055 81.2108 272.757 81.0163 272.794 81.0163C272.849 80.996 272.886 80.9433 272.886 80.8907L273.087 77.3248C273.087 77.3046 273.087 77.3046 273.07 77.2884C272.957 76.7332 271.946 76.5873 271.412 76.5347C272.222 75.8174 273.07 75.1002 273.956 74.4397L274.085 76.948C274.102 77.0007 274.139 77.0371 274.177 77.0533C274.21 77.0736 274.912 77.2519 275.906 77.2519C276.884 77.2519 277.602 77.0736 277.64 77.0533C277.677 77.0371 277.732 77.0007 277.732 76.948L277.915 73.3821C277.915 73.3619 277.915 73.3457 277.915 73.3457C277.807 72.8635 277.03 72.6811 276.479 72.6122C277.013 72.2354 277.565 71.8748 278.137 71.5344L284.954 82.1427C282.193 83.8284 279.687 85.8869 277.51 88.2371L267.911 79.9749C268.296 79.5454 268.701 79.1158 269.127 78.7025ZM280.497 70.1729L280.664 73.1674C280.664 73.2201 280.697 73.2565 280.756 73.2727C280.773 73.293 281.491 73.4713 282.469 73.4713C283.463 73.4713 284.164 73.293 284.202 73.2727C284.256 73.2565 284.294 73.2201 284.294 73.1674L284.494 69.6016C284.494 69.5813 284.494 69.5651 284.494 69.5651C284.386 69.0991 283.684 68.9208 283.133 68.8479C284.052 68.4183 285.012 68.0253 285.969 67.6484L286.153 70.9428C286.153 70.9995 286.19 71.0522 286.245 71.0684C286.265 71.0684 286.984 71.267 287.961 71.267C288.935 71.267 289.653 71.0684 289.691 71.0684C289.749 71.0522 289.783 70.9995 289.783 70.9428L289.987 67.377C289.987 67.3608 289.987 67.3608 289.987 67.3445C289.874 66.9312 289.286 66.7327 288.751 66.6638C289.377 66.449 290.004 66.2667 290.651 66.0884L294.098 78.2203C290.927 79.0794 287.924 80.3517 285.175 82.0009L278.358 71.3926C279.06 70.9793 279.778 70.57 280.497 70.1729ZM291.959 65.748L292.159 69.1356C292.159 69.1882 292.197 69.2409 292.255 69.2612C292.272 69.2612 292.991 69.4557 293.968 69.4557C294.962 69.4557 295.664 69.2612 295.702 69.2612C295.756 69.2409 295.793 69.1882 295.793 69.1356L295.994 65.5697C295.994 65.5697 295.994 65.5495 295.994 65.5333C295.94 65.3023 295.718 65.1402 295.443 65.0308C296.42 64.8687 297.393 64.7269 298.392 64.6175C298.392 64.6378 298.392 64.6378 298.392 64.654L298.592 68.2198C298.592 68.2765 298.63 68.3089 298.667 68.3292C298.705 68.3454 299.423 68.5237 300.401 68.5237C301.374 68.5237 302.092 68.3454 302.13 68.3292C302.184 68.3089 302.222 68.2765 302.222 68.2198L302.427 64.654C302.427 64.6378 302.427 64.6175 302.427 64.6175C302.389 64.5283 302.351 64.4392 302.28 64.3703C302.686 64.3501 303.091 64.3501 303.513 64.3501C303.55 64.3501 303.605 64.3501 303.659 64.3501L303.588 77.0371C303.475 77.0371 303.366 77.0371 303.275 77.0371C300.179 77.0371 297.193 77.4302 294.352 78.1636L290.89 66.0155C291.257 65.9263 291.608 65.8372 291.959 65.748ZM303.717 97.2651C304.933 97.3016 306.094 97.5001 307.218 97.8203L304.728 106.224C304.398 106.119 304.047 106.046 303.68 106.03L303.717 97.2651ZM303.788 86.8715C306.002 86.908 308.12 87.2484 310.167 87.8238L307.272 97.569C306.148 97.2489 304.95 97.0504 303.734 97.0139L303.788 86.8715ZM303.847 77.2884C306.959 77.341 310 77.7908 312.874 78.6134L310.221 87.5725C308.174 86.9971 306.019 86.6568 303.788 86.6244L303.847 77.2884ZM303.918 64.3501C304.047 64.3501 304.214 64.3501 304.361 64.3703C304.565 64.3703 304.803 64.3703 305.004 64.3865C304.95 64.4392 304.912 64.5283 304.895 64.6175C304.879 64.6175 304.879 64.6378 304.879 64.654L305.079 68.2198C305.1 68.2765 305.133 68.3089 305.171 68.3292C305.209 68.3454 305.927 68.5237 306.904 68.5237C307.882 68.5237 308.6 68.3454 308.638 68.3292C308.692 68.3089 308.709 68.2765 308.709 68.2198L308.914 64.654C309.632 64.7269 310.33 64.816 311.031 64.9254C310.831 65.0308 310.681 65.1767 310.626 65.3712C310.626 65.3914 310.626 65.3914 310.626 65.4076L310.81 68.9735C310.831 69.0262 310.864 69.0829 310.923 69.0829C310.94 69.0991 311.658 69.2774 312.635 69.2774C313.63 69.2774 314.331 69.0991 314.369 69.0829C314.423 69.0829 314.461 69.0262 314.461 68.9735L314.645 65.6224C315.288 65.7642 315.935 65.9263 316.579 66.1046L312.949 78.3824C310.054 77.5558 306.996 77.0898 303.847 77.0371L303.918 64.3501ZM318.383 66.6435C317.832 66.7165 317.168 66.8948 317.076 67.3445C317.059 67.3608 317.059 67.3608 317.059 67.377L317.259 70.9428C317.259 70.9995 317.297 71.0522 317.351 71.0684C317.389 71.0684 318.107 71.267 319.085 71.267C320.062 71.267 320.781 71.0684 320.797 71.0684C320.856 71.0522 320.889 70.9995 320.889 70.9428L321.094 67.5958C322.088 67.9686 323.066 68.3819 324.022 68.8317C323.471 68.8843 322.66 69.0626 322.548 69.5651C322.548 69.5651 322.548 69.5813 322.548 69.6016L322.752 73.1674C322.752 73.2201 322.79 73.2565 322.844 73.2727C322.882 73.293 323.584 73.4713 324.578 73.4713C325.555 73.4713 326.274 73.293 326.29 73.2727C326.345 73.2565 326.382 73.2201 326.382 73.1674L326.566 70.0837C327.414 70.5497 328.245 71.036 329.072 71.5547L321.98 82.394C319.29 80.6921 316.34 79.3671 313.187 78.4513L316.817 66.1775C317.335 66.3234 317.869 66.4652 318.383 66.6435ZM330.714 72.592C330.162 72.6447 329.239 72.8067 329.127 73.3457C329.127 73.3457 329.127 73.3619 329.127 73.3821L329.331 76.948C329.331 77.0007 329.369 77.0371 329.423 77.0533C329.44 77.0736 330.162 77.2519 331.136 77.2519C332.113 77.2519 332.832 77.0736 332.869 77.0533C332.907 77.0371 332.961 77.0007 332.961 76.948L333.107 74.3303C334.014 75.0313 334.895 75.7648 335.764 76.5347C335.267 76.5711 334.106 76.6968 333.976 77.2884C333.976 77.3046 333.976 77.3046 333.976 77.3248L334.16 80.8907C334.16 80.9433 334.198 80.996 334.252 81.0163C334.289 81.0163 334.987 81.2108 335.985 81.2108C336.959 81.2108 337.681 81.0163 337.698 81.0163C337.752 80.996 337.79 80.9433 337.807 80.8907L337.919 78.5769C338.454 79.1158 338.989 79.671 339.486 80.2261L329.44 88.7031C327.343 86.3367 324.908 84.2579 322.201 82.5196L329.294 71.6803C329.774 71.9842 330.254 72.2881 330.714 72.592ZM340.718 81.6606C340.701 81.6606 340.701 81.6606 340.701 81.6606C340.501 81.6606 338.838 81.697 338.675 82.4102C338.675 82.4304 338.675 82.4304 338.675 82.4467L338.876 86.0125C338.876 86.0692 338.913 86.1219 338.968 86.1381C339.005 86.1381 339.707 86.3367 340.701 86.3367C341.679 86.3367 342.38 86.1381 342.414 86.1381C342.472 86.1219 342.506 86.0692 342.506 86.0125L342.619 84.0959C343.299 85.044 343.947 86.0125 344.553 86.9971C344.072 87.0174 342.84 87.1228 342.694 87.7508C342.694 87.7711 342.694 87.7711 342.694 87.7873L342.894 91.3531C342.894 91.4058 342.932 91.4585 342.986 91.4585C343.007 91.4788 343.725 91.657 344.699 91.657C345.697 91.657 346.415 91.4788 346.432 91.4585C346.486 91.4585 346.524 91.4058 346.524 91.3531L346.562 90.6197C346.691 90.8871 346.821 91.1384 346.95 91.4058L334.786 96.7991C333.441 93.9343 331.691 91.264 329.628 88.8976L339.653 80.4247C339.999 80.8339 340.371 81.231 340.718 81.6606ZM327.748 114.179C327.911 113.032 328.003 111.869 328.003 110.669C328.003 109.628 327.932 108.607 327.802 107.586L337.309 106.297C337.493 107.732 337.606 109.182 337.606 110.669C337.606 112.335 337.477 113.964 337.238 115.56L327.748 114.179ZM325.739 120.719C326.679 118.749 327.343 116.634 327.711 114.43L337.201 115.812C336.704 118.911 335.764 121.886 334.436 124.661L325.739 120.719ZM321.921 126.452C323.416 124.787 324.649 122.943 325.626 120.954L334.327 124.896C332.961 127.708 331.194 130.306 329.11 132.62L321.921 126.452ZM316.616 130.918C318.513 129.714 320.246 128.284 321.758 126.635L328.943 132.814C326.825 135.128 324.394 137.15 321.704 138.819L316.616 130.918ZM317.076 132.133L321.482 138.961C321.37 139.034 321.261 139.087 321.148 139.16L317.076 132.133ZM310.204 133.766C311.583 133.369 312.911 132.871 314.185 132.259L318.901 140.396C316.946 141.364 314.904 142.15 312.782 142.758L310.204 133.766ZM303.513 134.714C305.743 134.698 307.899 134.39 309.962 133.835L312.523 142.815C309.632 143.601 306.608 144.03 303.458 144.05L303.513 134.714ZM299.899 97.6582C300.99 97.3907 302.113 97.2489 303.275 97.2489C303.329 97.2489 303.404 97.2651 303.458 97.2651L303.421 106.01C303.366 106.01 303.312 106.01 303.275 106.01C302.94 106.01 302.627 106.03 302.314 106.099L299.899 97.6582ZM300.969 106.565L296.199 99.1453C297.268 98.5375 298.425 98.0553 299.661 97.7149L302.076 106.151C301.687 106.261 301.32 106.386 300.969 106.565ZM297.819 122.98L301.838 116.042L299.607 123.604C298.997 123.425 298.392 123.231 297.819 122.98ZM292.548 132.081L297.69 123.211C298.3 123.462 298.905 123.677 299.532 123.839L296.658 133.584C295.238 133.211 293.876 132.688 292.548 132.081ZM292.439 132.295C293.747 132.923 295.146 133.442 296.583 133.835L293.947 142.815C291.775 142.203 289.691 141.417 287.719 140.432L292.439 132.295ZM288.475 133.981L285.455 139.212C285.363 139.139 285.267 139.087 285.159 139.034L288.475 133.981ZM284.862 126.724C286.395 128.389 288.145 129.84 290.096 131.023L284.954 138.888C282.23 137.223 279.758 135.18 277.623 132.851L284.862 126.724ZM280.902 120.954C281.88 122.98 283.17 124.86 284.678 126.545L277.435 132.652C275.338 130.306 273.55 127.672 272.168 124.823L280.902 120.954ZM278.801 114.288C279.152 116.545 279.833 118.713 280.789 120.719L272.055 124.592C270.731 121.776 269.77 118.749 269.29 115.597L278.801 114.288ZM278.763 107.318C278.596 108.412 278.525 109.523 278.525 110.669C278.525 111.816 278.596 112.943 278.763 114.037L269.256 115.346C269.052 113.806 268.922 112.246 268.922 110.669C268.922 109.057 269.052 107.48 269.273 105.937L278.763 107.318ZM280.789 100.616C279.833 102.622 279.152 104.79 278.801 107.067L269.311 105.685C269.791 102.517 270.748 99.4897 272.093 96.6735L280.789 100.616ZM284.716 94.7771C283.187 96.4426 281.896 98.343 280.902 100.385L272.205 96.4426C273.605 93.5737 275.393 90.9398 277.531 88.5937L284.716 94.7771ZM290.171 90.2591C288.216 91.4585 286.428 92.9132 284.883 94.5786L277.694 88.3951C279.849 86.0692 282.356 84.0229 285.104 82.3413L290.171 90.2591ZM296.733 87.4631C294.482 88.0547 292.347 88.9705 290.392 90.1172L285.326 82.2157C288.053 80.5827 291.019 79.3103 294.169 78.4716L296.733 87.4631ZM303.534 86.6041C303.437 86.6041 303.346 86.6041 303.275 86.6041C301.098 86.6041 298.997 86.8715 296.988 87.3943L294.428 78.3986C297.247 77.6814 300.196 77.2884 303.275 77.2884C303.366 77.2884 303.475 77.2884 303.588 77.2884L303.534 86.6041ZM307.034 123.571C305.927 123.875 304.787 124.053 303.588 124.07L303.625 115.309C303.864 115.293 304.085 115.256 304.323 115.22L304.97 116.35L307.034 123.571ZM310.793 99.4533L305.965 106.816C305.668 106.617 305.338 106.439 304.97 106.313L307.456 97.8932C308.655 98.27 309.778 98.7887 310.793 99.4533ZM316.541 90.6724L310.94 99.2385C309.891 98.5577 308.747 98.0188 307.531 97.642L310.405 87.8967C312.598 88.541 314.661 89.4892 316.541 90.6724ZM316.691 90.4576C314.774 89.2582 312.69 88.306 310.48 87.6455L313.116 78.6863C316.249 79.598 319.16 80.9231 321.85 82.5925L316.691 90.4576ZM322.017 94.9919C320.522 93.3062 318.809 91.8353 316.909 90.5994L322.051 82.7344C324.741 84.4565 327.155 86.5149 329.256 88.8611L322.017 94.9919ZM325.81 100.758C324.87 98.736 323.638 96.8518 322.18 95.1864L329.423 89.0597C331.487 91.4261 333.22 94.0599 334.548 96.9085L325.81 100.758ZM325.923 100.993L334.657 97.1233C335.927 99.9192 336.812 102.91 337.272 106.046L327.782 107.335C327.452 105.114 326.825 102.983 325.923 100.993ZM317.168 112.639C317.259 111.994 317.318 111.33 317.318 110.669C317.318 110.114 317.28 109.575 317.222 109.036L327.543 107.622C327.673 108.627 327.748 109.628 327.748 110.669C327.748 111.853 327.656 112.999 327.489 114.146L317.168 112.639ZM316.044 116.33C316.562 115.256 316.929 114.089 317.13 112.89L327.452 114.397C327.101 116.581 326.436 118.66 325.497 120.613L316.044 116.33ZM313.926 119.556C314.716 118.66 315.401 117.639 315.952 116.565L325.405 120.844C324.427 122.818 323.195 124.645 321.737 126.274L313.926 119.556ZM311.178 121.938C312.138 121.31 312.986 120.577 313.742 119.754L321.553 126.473C320.079 128.101 318.366 129.52 316.47 130.699L314.31 127.332L311.178 121.938ZM307.347 123.729C307.882 123.587 308.417 123.389 308.93 123.174L314.056 132.028C312.803 132.636 311.491 133.138 310.146 133.515L307.347 123.729ZM308.801 122.943C308.304 123.158 307.807 123.336 307.272 123.498L305.505 117.262L308.801 122.943ZM313.759 101.978L306.959 107.711C306.737 107.424 306.462 107.193 306.165 106.978L311.015 99.5789C312.026 100.26 312.949 101.066 313.759 101.978ZM313.943 101.799C313.132 100.884 312.193 100.061 311.161 99.3641L316.762 90.8142C318.642 92.0339 320.355 93.4845 321.829 95.1499L313.943 101.799ZM316.082 105.078C315.564 103.967 314.904 102.93 314.11 101.998L321.98 95.3485C323.433 97.0139 324.649 98.8616 325.572 100.867L316.082 105.078ZM316.19 105.313L325.68 101.098C326.587 103.072 327.193 105.187 327.527 107.371L317.188 108.785C317.005 107.57 316.67 106.403 316.19 105.313ZM308.011 111.314C308.045 111.099 308.066 110.884 308.066 110.669C308.066 110.544 308.045 110.418 308.045 110.293L316.946 109.073C317.021 109.592 317.059 110.13 317.059 110.669C317.059 111.33 317.005 111.978 316.909 112.602L308.011 111.314ZM307.661 112.513C307.807 112.209 307.899 111.885 307.974 111.565L316.875 112.853C316.67 114.037 316.32 115.167 315.806 116.225L307.661 112.513ZM315.952 105.418C316.432 106.492 316.746 107.638 316.929 108.822L308.011 110.041C307.974 109.701 307.882 109.361 307.752 109.057L315.952 105.418ZM307.661 108.805C307.51 108.481 307.326 108.198 307.126 107.91L313.926 102.156C314.699 103.072 315.342 104.093 315.843 105.187L307.661 108.805ZM313.559 119.592C312.819 120.378 311.971 121.116 311.069 121.724L306.608 114.02C306.666 113.948 306.737 113.858 306.813 113.785L313.559 119.592ZM306.996 113.607C307.218 113.34 307.402 113.052 307.548 112.748L315.714 116.456C315.179 117.513 314.515 118.498 313.721 119.394L306.996 113.607ZM303.588 124.321C304.803 124.305 305.981 124.126 307.105 123.802L309.891 133.584C307.861 134.139 305.727 134.447 303.513 134.463L303.588 124.321ZM297.063 87.6455C299.035 87.1228 301.119 86.8553 303.275 86.8553C303.346 86.8553 303.437 86.8553 303.534 86.8553L303.458 97.0139C303.404 97.0139 303.329 96.9977 303.275 96.9977C302.092 96.9977 300.931 97.1395 299.845 97.411L297.063 87.6455ZM290.539 90.332C292.473 89.1853 294.574 88.2898 296.804 87.6982L299.586 97.4799C298.333 97.8041 297.155 98.3065 296.069 98.9305L290.539 90.332ZM299.828 107.424L293.082 101.637C293.93 100.726 294.908 99.9354 295.977 99.2912L300.747 106.711C300.417 106.905 300.104 107.156 299.828 107.424ZM293.12 119.734L299.92 114C299.937 114.02 299.975 114.057 300.012 114.073L295.534 121.776C294.649 121.185 293.839 120.504 293.12 119.734ZM292.936 119.912C293.671 120.702 294.503 121.399 295.422 121.991L290.798 129.949L290.246 130.824C288.308 129.645 286.579 128.211 285.05 126.562L292.936 119.912ZM290.631 116.634C291.186 117.765 291.905 118.802 292.753 119.718L284.883 126.383C283.371 124.718 282.118 122.854 281.14 120.844L290.631 116.634ZM289.398 112.837C289.599 114.089 289.987 115.293 290.522 116.403L281.011 120.613C280.071 118.624 279.411 116.492 279.06 114.251L289.398 112.837ZM289.34 108.858C289.248 109.45 289.215 110.058 289.215 110.669C289.215 111.314 289.269 111.958 289.34 112.586L279.022 114C278.855 112.91 278.784 111.796 278.784 110.669C278.784 109.539 278.855 108.429 279.022 107.355L289.34 108.858ZM290.484 105.005C289.95 106.135 289.561 107.335 289.361 108.607L279.06 107.104C279.411 104.863 280.071 102.711 281.011 100.726L290.484 105.005ZM292.715 101.658C291.867 102.586 291.148 103.643 290.593 104.774L281.14 100.491C282.118 98.4645 283.387 96.6046 284.9 94.9352L292.715 101.658ZM292.882 101.459L285.083 94.7407C286.595 93.0915 288.367 91.657 290.317 90.4738L295.848 99.0764C294.741 99.7369 293.747 100.543 292.882 101.459ZM298.981 108.591L290.814 104.883C291.37 103.769 292.088 102.748 292.899 101.816L299.645 107.622C299.386 107.91 299.164 108.23 298.981 108.591ZM299.052 112.91C299.24 113.23 299.478 113.534 299.737 113.822L292.953 119.556C292.126 118.644 291.407 117.639 290.873 116.529L299.052 112.91ZM298.554 111.581C298.646 111.978 298.776 112.335 298.943 112.675L290.743 116.314C290.225 115.204 289.858 114.037 289.636 112.801L298.554 111.581ZM289.62 108.643C289.82 107.407 290.188 106.224 290.706 105.114L298.868 108.805C298.705 109.162 298.592 109.539 298.538 109.932L289.62 108.643ZM298.483 110.183C298.483 110.345 298.463 110.507 298.463 110.669C298.463 110.9 298.483 111.115 298.521 111.35L289.599 112.55C289.528 111.942 289.469 111.314 289.469 110.669C289.469 110.058 289.507 109.47 289.599 108.895L298.483 110.183ZM347.982 93.752C347.74 93.752 346.14 93.8087 345.973 94.5259V94.5421L346.173 98.1242C346.173 98.1809 346.211 98.2174 346.265 98.2336C346.303 98.2336 347.004 98.4321 347.999 98.4321C348.7 98.4321 349.252 98.343 349.527 98.27C349.657 98.6996 349.77 99.1291 349.878 99.5586C349.678 99.5586 348.019 99.5951 347.869 100.312C347.869 100.329 347.869 100.329 347.869 100.349L348.074 103.915C348.074 103.967 348.111 104.02 348.166 104.04C348.182 104.04 348.901 104.235 349.878 104.235C350.229 104.235 350.542 104.198 350.801 104.182C350.801 104.182 350.801 104.182 350.801 104.198L337.531 106.01C337.071 102.857 336.169 99.8463 334.895 97.0342L347.059 91.6408C347.372 92.3378 347.685 93.0388 347.982 93.752ZM352.034 112.408C352.034 112.136 352.034 111.869 352.055 111.601C352.055 111.152 352.055 110.686 352.055 110.24C352.606 110.183 352.957 110.094 352.974 110.078C353.032 110.078 353.065 110.025 353.065 109.968L353.27 106.403C353.27 106.386 353.27 106.386 353.27 106.37C353.157 105.868 352.33 105.685 351.779 105.633C351.72 105.098 351.649 104.575 351.557 104.04C351.591 104.04 351.612 104.04 351.612 104.04C351.666 104.02 351.704 103.967 351.704 103.915L351.904 100.349C351.904 100.329 351.904 100.329 351.904 100.312C351.796 99.899 351.207 99.7207 350.689 99.6315C350.467 98.6631 350.192 97.7149 349.899 96.7627L350.008 94.5421V94.5259C349.916 94.1126 349.344 93.9141 348.847 93.8249C348.203 92.2122 347.485 90.6359 346.654 89.0961L346.729 87.7873C346.729 87.7711 346.729 87.7711 346.729 87.7508C346.637 87.3213 346.027 87.143 345.492 87.0539C344.644 85.6356 343.705 84.2377 342.673 82.8964L342.71 82.4467C342.71 82.4304 342.71 82.4304 342.71 82.4102C342.635 82.0901 342.23 81.8915 341.808 81.7862C340.756 80.4773 339.632 79.2212 338.433 78.0056C338.287 77.8597 338.141 77.7179 337.974 77.5558L337.994 77.3248C337.994 77.3046 337.994 77.3046 337.994 77.2884C337.919 76.9277 337.477 76.7494 337.017 76.6441C335.781 75.4973 334.49 74.4033 333.166 73.3984V73.3821C333.166 73.3619 333.166 73.3457 333.166 73.3457C333.074 72.9891 332.631 72.7905 332.188 72.7014C324.152 66.9677 314.532 63.7787 304.361 63.5964C304.085 63.5964 303.788 63.5964 303.513 63.5964C293.082 63.5964 283.133 66.7894 274.858 72.7014C274.415 72.7905 273.972 72.9891 273.897 73.3457C273.897 73.3457 273.897 73.3619 273.897 73.3821V73.4186C272.552 74.4195 271.266 75.4973 270.029 76.6441C269.57 76.7494 269.127 76.9277 269.052 77.2884C269.052 77.3046 269.052 77.3046 269.052 77.3248L269.073 77.5558C267.69 78.9011 266.416 80.3153 265.238 81.7862C264.812 81.8915 264.428 82.0901 264.353 82.4102C264.336 82.4304 264.336 82.4304 264.336 82.4467L264.373 82.8964C263.337 84.2377 262.398 85.6194 261.554 87.0539C261.019 87.143 260.409 87.3213 260.317 87.7508C260.317 87.7711 260.317 87.7711 260.317 87.7873L260.393 89.1123C259.578 90.6359 258.843 92.2122 258.216 93.8249C257.698 93.9141 257.13 94.1126 257.038 94.5259V94.5421L257.147 96.7829C257.13 96.8883 257.093 97.0139 257.055 97.1233H225.468V117.675H213.655V115.487H206.174V117.675H180.598V56.3431H179.491V55.5894H156.918V56.3431H154.558V55.5894H131.981V56.3431H130.878V165.766H180.598V159.12H254.144V149.245H237.799V146.826H254.144V142.49H237.799V140.071H254.144V135.736H237.799V133.317H254.144V128.981H237.799V126.562H254.144V122.242H237.799V119.823H254.144V116.833C254.311 116.885 254.77 116.974 255.414 117.011C255.489 117.619 255.602 118.21 255.693 118.822C255.138 118.891 254.403 119.073 254.29 119.539C254.29 119.556 254.29 119.556 254.29 119.572L254.495 123.138C254.495 123.194 254.532 123.247 254.586 123.247C254.624 123.263 255.322 123.446 256.299 123.446C256.466 123.446 256.612 123.446 256.759 123.446C256.98 124.195 257.222 124.965 257.481 125.719C256.947 125.792 256.282 125.99 256.19 126.436V126.452L256.374 130.038C256.391 130.091 256.429 130.128 256.483 130.144C256.504 130.144 257.201 130.342 258.2 130.342C258.638 130.342 259.027 130.306 259.323 130.253C259.691 131.06 260.079 131.829 260.501 132.599C259.95 132.688 259.248 132.871 259.156 133.317C259.156 133.333 259.156 133.333 259.156 133.353L259.361 136.919C259.361 136.971 259.394 137.024 259.453 137.044C259.469 137.044 260.188 137.239 261.165 137.239C262.16 137.239 262.861 137.044 262.899 137.044C262.953 137.024 262.991 136.971 262.991 136.919V136.72C263.413 137.348 263.872 137.956 264.315 138.568C263.78 138.637 263.12 138.835 263.007 139.265C263.007 139.285 263.007 139.301 263.007 139.301L263.212 142.867C263.212 142.92 263.246 142.973 263.304 142.993C263.337 142.993 264.039 143.191 265.033 143.191C266.011 143.191 266.729 142.993 266.75 142.993C266.804 142.973 266.842 142.92 266.842 142.867L266.913 141.721C267.21 142.061 267.523 142.401 267.836 142.725C267.356 142.831 266.88 143.009 266.784 143.386C266.784 143.406 266.784 143.422 266.784 143.422L266.988 146.988C266.988 147.041 267.026 147.098 267.08 147.114C267.118 147.114 267.819 147.312 268.793 147.312C269.791 147.312 270.489 147.114 270.526 147.114C270.581 147.098 270.618 147.041 270.618 146.988L270.693 145.517C271.207 145.967 271.725 146.397 272.239 146.826C271.817 146.936 271.412 147.13 271.32 147.47C271.32 147.47 271.32 147.491 271.32 147.507L271.52 151.073C271.52 151.125 271.558 151.162 271.612 151.182C271.65 151.198 272.352 151.377 273.329 151.377C274.323 151.377 275.042 151.198 275.058 151.182C275.117 151.162 275.15 151.125 275.15 151.073L275.263 149.12C276.311 149.853 277.402 150.554 278.504 151.198L278.45 151.288C278.083 151.413 277.748 151.591 277.677 151.899C277.677 151.899 277.677 151.916 277.677 151.932L277.715 152.58L274.875 157.487C274.653 157.021 274.378 156.77 274.102 156.665C274.027 156.466 273.843 156.34 273.605 156.34C273.4 156.34 273.216 156.466 273.124 156.665C272.865 156.77 272.573 157.021 272.368 157.487C272.205 157.848 271.65 158.131 271.483 158.131C271.299 158.131 270.748 158.188 270.748 158.869C270.748 159.084 270.856 159.262 271.044 159.351V165.389C271.044 165.604 271.228 165.766 271.428 165.766H275.798C276.019 165.766 276.182 165.604 276.182 165.389V160.356L278.855 155.749C279.098 155.785 279.373 155.806 279.687 155.806C280.681 155.806 281.382 155.607 281.416 155.607C281.474 155.587 281.508 155.554 281.508 155.498L281.658 152.9C282.56 153.35 283.463 153.759 284.403 154.156C284.052 154.262 283.759 154.44 283.701 154.728C283.701 154.748 283.701 154.748 283.701 154.764L283.905 158.33C283.905 158.383 283.943 158.439 283.997 158.439C284.014 158.456 284.737 158.634 285.71 158.634C286.708 158.634 287.427 158.456 287.443 158.439C287.498 158.439 287.535 158.383 287.535 158.33L287.702 155.392C288.826 155.769 289.987 156.109 291.148 156.413C290.873 156.519 290.631 156.701 290.576 156.932C290.576 156.952 290.576 156.969 290.576 156.969L290.781 160.534C290.781 160.587 290.814 160.64 290.873 160.66C290.906 160.66 291.608 160.859 292.585 160.859C293.58 160.859 294.281 160.66 294.319 160.66C294.373 160.64 294.411 160.587 294.411 160.534L294.595 157.167C295.605 157.362 296.641 157.507 297.673 157.633C297.581 157.722 297.506 157.828 297.468 157.953C297.468 157.953 297.468 157.973 297.468 157.99L297.673 161.555C297.673 161.608 297.707 161.645 297.765 161.665C297.782 161.665 298.5 161.859 299.478 161.859C300.472 161.859 301.173 161.665 301.211 161.665C301.265 161.645 301.303 161.608 301.303 161.555L301.503 157.99C301.503 157.973 301.503 157.953 301.503 157.953C301.503 157.937 301.503 157.937 301.487 157.937C301.892 157.953 302.28 157.953 302.686 157.973C302.961 157.973 303.254 157.973 303.55 157.973C304.194 157.973 304.841 157.953 305.484 157.937C305.484 157.937 305.484 157.937 305.484 157.953C305.484 157.953 305.484 157.973 305.484 157.99L305.689 161.555C305.689 161.608 305.727 161.645 305.76 161.665C305.798 161.665 306.516 161.859 307.493 161.859C308.471 161.859 309.189 161.665 309.227 161.665C309.281 161.645 309.298 161.608 309.319 161.555L309.519 157.99C309.519 157.973 309.519 157.953 309.519 157.953C309.486 157.828 309.411 157.722 309.319 157.649C310.367 157.524 311.42 157.362 312.452 157.183L312.635 160.534C312.635 160.587 312.673 160.64 312.727 160.66C312.765 160.66 313.462 160.859 314.461 160.859C315.438 160.859 316.136 160.66 316.173 160.66C316.228 160.64 316.265 160.587 316.282 160.534L316.47 156.969C316.47 156.969 316.47 156.952 316.47 156.932C316.411 156.701 316.19 156.539 315.914 156.43C317.076 156.126 318.22 155.785 319.344 155.408L319.511 158.33C319.511 158.383 319.544 158.439 319.603 158.439C319.636 158.456 320.338 158.634 321.332 158.634C322.31 158.634 323.028 158.456 323.049 158.439C323.103 158.439 323.141 158.383 323.141 158.33L323.341 154.764C323.341 154.748 323.341 154.748 323.341 154.728C323.27 154.46 323.011 154.282 322.677 154.173C323.6 153.78 324.503 153.366 325.388 152.937L325.534 155.498C325.534 155.554 325.572 155.587 325.626 155.607C325.664 155.607 326.365 155.806 327.36 155.806C327.527 155.806 327.673 155.806 327.819 155.785L330.455 160.356V165.389C330.455 165.604 330.622 165.766 330.843 165.766H335.208C335.413 165.766 335.597 165.604 335.597 165.389V159.351C335.802 159.246 335.893 159.047 335.893 158.869C335.893 158.188 335.338 158.131 335.175 158.131C334.987 158.131 334.436 157.848 334.269 157.487C334.068 157.021 333.771 156.77 333.496 156.665C333.441 156.466 333.237 156.34 333.015 156.34C332.794 156.34 332.61 156.466 332.539 156.665C332.259 156.77 331.984 157.021 331.762 157.487L329.294 153.224L329.369 151.932C329.369 151.916 329.369 151.899 329.369 151.899C329.294 151.559 328.909 151.377 328.483 151.271C329.607 150.607 330.714 149.91 331.783 149.156L331.892 151.073C331.892 151.125 331.929 151.162 331.984 151.182C332.005 151.198 332.723 151.377 333.717 151.377C334.695 151.377 335.413 151.198 335.43 151.182C335.488 151.162 335.522 151.125 335.522 151.073L335.726 147.507C335.726 147.491 335.726 147.47 335.726 147.47C335.651 147.13 335.246 146.952 334.841 146.846C335.338 146.413 335.856 145.983 336.353 145.538L336.428 146.988C336.428 147.041 336.462 147.098 336.52 147.114C336.553 147.114 337.255 147.312 338.249 147.312C339.227 147.312 339.945 147.114 339.966 147.114C340.02 147.098 340.058 147.041 340.058 146.988L340.258 143.422C340.258 143.422 340.258 143.406 340.258 143.386C340.187 143.029 339.707 142.831 339.248 142.742C339.54 142.417 339.837 142.077 340.15 141.757L340.204 142.867C340.204 142.92 340.242 142.973 340.296 142.993C340.313 142.993 341.031 143.191 342.009 143.191C343.007 143.191 343.705 142.993 343.742 142.993C343.796 142.973 343.834 142.92 343.834 142.867L344.039 139.301C344.039 139.301 344.039 139.285 344.039 139.265C343.947 138.835 343.299 138.657 342.765 138.568C343.207 137.976 343.634 137.385 344.055 136.757V136.919C344.055 136.971 344.093 137.024 344.147 137.044C344.185 137.044 344.903 137.239 345.881 137.239C346.858 137.239 347.577 137.044 347.593 137.044C347.648 137.024 347.685 136.971 347.685 136.919L347.89 133.353C347.89 133.333 347.89 133.333 347.89 133.317C347.798 132.871 347.113 132.688 346.578 132.62C346.984 131.846 347.372 131.06 347.74 130.269C348.036 130.306 348.425 130.342 348.847 130.342C349.841 130.342 350.542 130.144 350.58 130.144C350.618 130.128 350.651 130.091 350.672 130.038L350.856 126.452V126.436C350.764 125.99 350.116 125.808 349.586 125.719C349.841 124.965 350.062 124.195 350.283 123.446C350.43 123.446 350.58 123.446 350.743 123.446C351.72 123.446 352.422 123.263 352.46 123.247C352.514 123.247 352.552 123.194 352.552 123.138L352.752 119.572C352.752 119.556 352.752 119.556 352.752 119.539C352.644 119.073 351.904 118.891 351.353 118.822C351.466 118.21 351.557 117.619 351.628 117.011C352.422 116.974 352.957 116.833 352.974 116.833C353.032 116.812 353.065 116.76 353.065 116.707L353.27 113.141C353.27 113.125 353.27 113.125 353.27 113.105C353.178 112.675 352.552 112.497 352.034 112.408Z" fill="#FF66C4"/>
<path d="M54.3622 158.687C54.3622 158.687 54.8217 158.707 54.8217 158.314H57.2193C57.2193 158.707 57.6788 158.687 57.6788 158.687V161.179H54.3622V158.687ZM36.4133 94.1491C37.3364 94.1491 37.2445 95.1499 37.2445 95.1499V103.428H35.582V95.1499C35.582 95.1499 35.4901 94.1491 36.4133 94.1491ZM40.1559 111.905C39.6213 111.905 39.1952 111.492 39.1952 110.957C39.1952 110.434 39.6213 110.025 40.1559 110.025C40.6906 110.025 41.1292 110.434 41.1292 110.957C41.1292 111.492 40.6906 111.905 40.1559 111.905ZM41.1292 134.018C41.1292 134.536 40.6906 134.945 40.1559 134.945C39.6213 134.945 39.1952 134.536 39.1952 134.018C39.1952 133.479 39.6213 133.065 40.1559 133.065C40.6906 133.065 41.1292 133.479 41.1292 134.018ZM40.1559 123.425C39.6213 123.425 39.1952 123.012 39.1952 122.493C39.1952 121.959 39.6213 121.545 40.1559 121.545C40.6906 121.545 41.1292 121.959 41.1292 122.493C41.1292 123.012 40.6906 123.425 40.1559 123.425ZM40.1559 93.5737C41.3172 93.5737 41.1877 94.6515 41.1877 94.6515V103.428H39.1242V94.6515C39.1242 94.6515 39.0114 93.5737 40.1559 93.5737ZM43.8944 94.1491C44.8176 94.1491 44.7257 95.1499 44.7257 95.1499V103.428H43.0674V95.1499C43.0674 95.1499 42.9755 94.1491 43.8944 94.1491ZM45.9955 112.639C46.1626 113.052 45.5736 113.214 45.795 113.68C46.0164 114.126 46.0498 115.864 46.0498 116.277C46.0707 116.691 45.866 116.634 45.866 116.958C45.866 117.278 45.9788 117.424 45.9788 117.424H43.9696C43.9696 117.424 44.0782 117.278 44.0782 116.958C44.0782 116.634 43.8777 116.691 43.8944 116.277C43.8944 115.864 43.932 114.126 44.1534 113.68C44.3748 113.214 43.7858 113.052 43.9487 112.639C44.1158 112.246 44.0991 111.743 44.9638 111.743C45.8493 111.743 45.8284 112.246 45.9955 112.639ZM47.2862 112.639C47.4533 112.246 47.4533 111.743 48.318 111.743C49.2035 111.743 49.1826 112.246 49.3497 112.639C49.5168 113.052 48.9278 113.214 49.1492 113.68C49.3497 114.126 49.404 115.864 49.404 116.277C49.4249 116.691 49.2202 116.634 49.2202 116.958C49.2202 117.278 49.333 117.424 49.333 117.424H47.3238C47.3238 117.424 47.4157 117.278 47.4157 116.958C47.4157 116.634 47.2319 116.691 47.2319 116.277C47.2486 115.864 47.2862 114.126 47.5076 113.68C47.7081 113.214 47.14 113.052 47.2862 112.639ZM50.6404 112.639C50.8075 112.246 50.8075 111.743 51.6722 111.743C52.5368 111.743 52.5368 112.246 52.7039 112.639C52.8501 113.052 52.282 113.214 52.4825 113.68C52.7039 114.126 52.7415 115.864 52.7582 116.277C52.7582 116.691 52.5744 116.634 52.5744 116.958C52.5744 117.278 52.6872 117.424 52.6872 117.424H50.6571C50.6571 117.424 50.7699 117.278 50.7699 116.958C50.7699 116.634 50.5652 116.691 50.5861 116.277C50.6028 115.864 50.6404 114.126 50.8409 113.68C51.0623 113.214 50.4733 113.052 50.6404 112.639ZM53.9946 112.639C54.1617 112.246 54.1408 111.743 55.0264 111.743C55.891 111.743 55.8743 112.246 56.0414 112.639C56.2043 113.052 55.632 113.214 55.8367 113.68C56.0581 114.126 56.0957 115.864 56.1124 116.277C56.1124 116.691 55.9286 116.634 55.9286 116.958C55.9286 117.278 56.0205 117.424 56.0205 117.424H54.0113C54.0113 117.424 54.1241 117.278 54.1241 116.958C54.1241 116.634 53.9194 116.691 53.9403 116.277C53.9403 115.864 53.9737 114.126 54.1951 113.68C54.4165 113.214 53.8275 113.052 53.9946 112.639ZM60.3521 143.71C60.3313 144.496 60.7197 144.837 60.7197 144.837V154.209H56.0205V144.837C56.0205 144.837 56.409 144.496 56.3714 143.71H60.3521ZM57.3488 112.639C57.5117 112.246 57.495 111.743 58.3597 111.743C59.2452 111.743 59.2285 112.246 59.3914 112.639C59.5585 113.052 58.9695 113.214 59.1909 113.68C59.4123 114.126 59.4499 115.864 59.4499 116.277C59.4666 116.691 59.2661 116.634 59.2661 116.958C59.2661 117.278 59.3747 117.424 59.3747 117.424H57.3655C57.3655 117.424 57.4783 117.278 57.4783 116.958C57.4783 116.634 57.2736 116.691 57.2736 116.277C57.2945 115.864 57.3279 114.126 57.5493 113.68C57.7707 113.214 57.1817 113.052 57.3488 112.639ZM60.703 112.639C60.8492 112.246 60.8492 111.743 61.7139 111.743C62.5827 111.743 62.5827 112.246 62.7456 112.639C62.9127 113.052 62.3237 113.214 62.5451 113.68C62.7456 114.126 62.7832 115.864 62.8041 116.277C62.8208 116.691 62.6203 116.634 62.6203 116.958C62.6203 117.278 62.7289 117.424 62.7289 117.424H60.7197C60.7197 117.424 60.8116 117.278 60.8116 116.958C60.8116 116.634 60.6278 116.691 60.6278 116.277C60.6445 115.864 60.6821 114.126 60.9035 113.68C61.1082 113.214 60.5359 113.052 60.703 112.639ZM64.0363 112.639C64.2034 112.246 64.2034 111.743 65.0681 111.743C65.9369 111.743 65.9369 112.246 66.0831 112.639C66.2502 113.052 65.6779 113.214 65.8784 113.68C66.0998 114.126 66.1374 115.864 66.1583 116.277C66.1583 116.691 65.9703 116.634 65.9703 116.958C65.9703 117.278 66.0664 117.424 66.0664 117.424H64.0572C64.0572 117.424 64.1658 117.278 64.1658 116.958C64.1658 116.634 63.9653 116.691 63.982 116.277C63.982 115.864 64.0363 114.126 64.241 113.68C64.4624 113.214 63.8734 113.052 64.0363 112.639ZM67.3905 112.639C67.5576 112.246 67.5367 111.743 68.4223 111.743C69.2911 111.743 69.2702 112.246 69.4373 112.639C69.6044 113.052 69.0112 113.214 69.2326 113.68C69.454 114.126 69.4916 115.864 69.5125 116.277C69.5125 116.691 69.3078 116.634 69.3078 116.958C69.3078 117.278 69.4164 117.424 69.4164 117.424H67.4114C67.4114 117.424 67.52 117.278 67.52 116.958C67.52 116.634 67.3195 116.691 67.3362 116.277C67.3362 115.864 67.3905 114.126 67.5952 113.68C67.8166 113.214 67.2234 113.052 67.3905 112.639ZM70.7447 112.639C70.9118 112.246 70.8909 111.743 71.7598 111.743C72.6453 111.743 72.6244 112.246 72.7915 112.639C72.9586 113.052 72.3654 113.214 72.5868 113.68C72.8082 114.126 72.8458 115.864 72.8458 116.277C72.8625 116.691 72.662 116.634 72.662 116.958C72.662 117.278 72.7706 117.424 72.7706 117.424H70.7656C70.7656 117.424 70.8575 117.278 70.8575 116.958C70.8575 116.634 70.6695 116.691 70.6695 116.277C70.6904 115.864 70.728 114.126 70.9494 113.68C71.1499 113.214 70.5776 113.052 70.7447 112.639ZM72.8458 94.1491C73.7689 94.1491 73.677 95.1499 73.677 95.1499V103.428H72.0187V95.1499C72.0187 95.1499 71.9227 94.1491 72.8458 94.1491ZM76.5885 93.5737C77.7288 93.5737 77.6202 94.6515 77.6202 94.6515V103.428H75.5567V94.6515C75.5567 94.6515 75.4272 93.5737 76.5885 93.5737ZM80.327 94.1491C81.2501 94.1491 81.1582 95.1499 81.1582 95.1499V103.428H79.4999V95.1499C79.4999 95.1499 79.3871 94.1491 80.327 94.1491ZM92.5449 104.559C92.5449 104.559 92.5825 103.825 93.4138 103.825C94.2617 103.825 94.2951 104.559 94.2951 104.559V111.994H92.5449V104.559ZM92.5449 89.2744C92.5449 89.2744 92.5825 88.4154 93.4138 88.4154C94.2617 88.4154 94.2951 89.2744 94.2951 89.2744V97.8405H92.5449V89.2744ZM97.4112 68.1833C97.925 68.1833 97.8916 68.8479 97.8916 68.8479V71.7167H96.9309V68.8479C96.9309 68.8479 96.8933 68.1833 97.4112 68.1833ZM99.2157 78.5607C100.306 78.5607 101.187 79.4035 101.187 80.4571C101.187 81.5147 100.306 82.3575 99.2157 82.3575C98.1464 82.3575 97.265 81.5147 97.265 80.4571C97.265 79.4035 98.1464 78.5607 99.2157 78.5607ZM99.2157 68.0942C99.9008 68.0942 99.8632 68.7749 99.8632 68.7749V71.7167H98.5725V68.7749C98.5725 68.7749 98.5349 68.0942 99.2157 68.0942ZM101.024 68.1833C101.538 68.1833 101.521 68.8479 101.521 68.8479V71.7167H100.544V68.8479C100.544 68.8479 100.527 68.1833 101.024 68.1833ZM104.157 104.559C104.157 104.559 104.174 103.825 105.022 103.825C105.853 103.825 105.887 104.559 105.887 104.559V111.994H104.157V104.559ZM104.157 89.2744C104.157 89.2744 104.174 88.4154 105.022 88.4154C105.853 88.4154 105.887 89.2744 105.887 89.2744V97.8405H104.157V89.2744ZM99.2157 127.477C99.9008 127.477 100.452 128.012 100.452 128.677C100.452 129.337 99.9008 129.86 99.2157 129.86C98.5349 129.86 98.0002 129.337 98.0002 128.677C98.0002 128.012 98.5349 127.477 99.2157 127.477ZM99.2157 118.085C99.9008 118.085 100.452 118.624 100.452 119.268C100.452 119.932 99.9008 120.471 99.2157 120.471C98.5349 120.471 98.0002 119.932 98.0002 119.268C98.0002 118.624 98.5349 118.085 99.2157 118.085ZM98.2592 97.8405V88.7557C98.2592 88.7557 98.2968 87.8602 99.2157 87.8602C100.156 87.8602 100.193 88.7557 100.193 88.7557V97.8405H98.2592ZM99.2157 103.323C100.156 103.323 100.193 104.109 100.193 104.109V111.994H98.2592V104.109C98.2592 104.109 98.2968 103.323 99.2157 103.323ZM76.5885 133.065C77.1231 133.065 77.545 133.479 77.545 134.018C77.545 134.536 77.1231 134.945 76.5885 134.945C76.0538 134.945 75.611 134.536 75.611 134.018C75.611 133.479 76.0538 133.065 76.5885 133.065ZM75.611 110.957C75.611 110.434 76.0538 110.025 76.5885 110.025C77.1231 110.025 77.545 110.434 77.545 110.957C77.545 111.492 77.1231 111.905 76.5885 111.905C76.0538 111.905 75.611 111.492 75.611 110.957ZM76.5885 121.545C77.1231 121.545 77.545 121.959 77.545 122.493C77.545 123.012 77.1231 123.425 76.5885 123.425C76.0538 123.425 75.611 123.012 75.611 122.493C75.611 121.959 76.0538 121.545 76.5885 121.545ZM62.378 161.179H59.0447V158.687C59.0447 158.687 59.5209 158.707 59.5209 158.314H61.8977C61.8977 158.707 62.378 158.687 62.378 158.687V161.179ZM204.257 50.9822C205.568 51.0754 207.114 51.1443 208.772 51.1808V53.4013H208.756C208.756 53.3324 208.718 53.2757 208.664 53.2595L204.257 50.9822ZM209.436 51.2172C211.316 51.2537 213.271 51.2902 215.188 51.3064V52.1128H214.541V53.4013H209.436V51.2172ZM279.87 143.26C279.298 144.711 278.818 145.643 278.45 146.235V143.26H279.87ZM284.808 126.169L289.269 129.159V129.803L283.517 133.677C283.96 131.505 284.403 129.017 284.808 126.169ZM285.823 117.927L289.269 120.577V121.383L285.029 124.645C285.305 122.583 285.58 120.362 285.823 117.927ZM286.487 110.56L289.269 112.785V113.644L285.99 116.257C286.174 114.466 286.32 112.566 286.487 110.56ZM286.946 103.538L289.269 105.544V106.528L286.616 108.822C286.725 107.14 286.834 105.365 286.946 103.538ZM287.276 96.479L289.269 98.3957V99.5424L287.038 101.69C287.13 100.008 287.205 98.27 287.276 96.479ZM287.498 89.631L289.269 91.4058V92.6255L287.352 94.5421C287.406 92.9659 287.46 91.3167 287.498 89.631ZM287.627 83.0585L289.269 84.7604V86.049L287.535 87.84C287.573 86.284 287.611 84.7037 287.627 83.0585ZM287.682 76.7332L289.269 78.273V79.436L287.648 80.996C287.665 79.598 287.682 78.1839 287.682 76.7332ZM287.682 74.3668L287.886 74.7436L287.682 75.1205C287.682 74.8693 287.682 74.618 287.682 74.3668ZM287.757 71.8424C287.757 71.6965 287.87 71.6073 287.995 71.6073C288.124 71.6073 288.237 71.6965 288.237 71.8424V72.7703C288.237 72.8959 288.124 73.0053 287.995 73.0053C287.87 73.0053 287.757 72.8959 287.757 72.7703V71.8424ZM288.032 74.4924L287.773 74.0426H288.275L288.032 74.4924ZM288.346 75.084L288.162 74.7436L288.346 74.383V75.084ZM288.588 74.3668L288.809 74.7436L288.588 75.1002V74.3668ZM289.194 74.0426L288.935 74.4924L288.68 74.0426H289.194ZM289.269 74.3668V75.1002L289.064 74.7436L289.269 74.3668ZM289.085 55.1235V54.4954H289.194V55.1235H289.085ZM289.085 53.458H289.194V54.0294H289.085V53.458ZM289.085 52.3437H289.194V52.9921H289.085V52.3437ZM289.34 71.8424C289.34 71.6965 289.453 71.6073 289.582 71.6073C289.728 71.6073 289.82 71.6965 289.82 71.8424V72.7703C289.82 72.8959 289.728 73.0053 289.582 73.0053C289.453 73.0053 289.34 72.8959 289.34 72.7703V71.8424ZM289.674 57.9721L290.133 57.4534V58.0085H289.674V57.9721ZM289.674 56.4485L290.062 56.8618L289.674 57.2711V56.4485ZM289.674 55.5894H290.133V56.2702L289.674 55.7839V55.5894ZM289.674 54.4954H290.133V55.1235H289.674V54.4954ZM289.674 53.458H290.133V54.0294H289.674V53.458ZM289.674 52.3437H290.133V52.9921H289.674V52.3437ZM289.674 50.7877H290.133V51.898H289.674V50.7877ZM290.614 57.4534L291.094 57.9721V58.0085H290.614V57.4534ZM290.614 55.5894H291.094V55.7839L290.614 56.2702V55.5894ZM290.614 54.4954H291.094V55.1235H290.614V54.4954ZM290.614 53.458H291.094V54.0294H290.614V53.458ZM290.614 52.3437H291.094V52.9921H290.614V52.3437ZM290.614 50.7877H291.094V51.898H290.614V50.7877ZM291.094 57.2711L290.706 56.8618L291.094 56.4485V57.2711ZM291.424 71.8424V72.7703C291.424 72.8959 291.316 73.0053 291.186 73.0053C291.036 73.0053 290.944 72.8959 290.944 72.7703V71.8424C290.944 71.6965 291.036 71.6073 291.186 71.6073C291.316 71.6073 291.424 71.6965 291.424 71.8424ZM291.499 130.646L296.491 134.034H291.499V130.646ZM291.499 129.159L295.956 126.169C296.362 129.017 296.804 131.505 297.247 133.677L291.499 129.803V129.159ZM291.499 125.897H295.075L291.499 128.316V125.897ZM291.499 122.279L295.33 125.216H291.499V122.279ZM291.499 120.577L294.945 117.927C295.184 120.362 295.459 122.583 295.735 124.645L291.499 121.383V120.577ZM291.499 117.513H294.319L291.499 119.697V117.513ZM291.499 114.539L294.352 116.833H291.499V114.539ZM291.499 112.785L294.281 110.56C294.448 112.566 294.595 114.466 294.778 116.257L291.499 113.644V112.785ZM291.499 110.114H293.709L291.499 111.885V110.114ZM291.499 107.46L293.763 109.413H291.499V107.46ZM291.499 105.544L293.822 103.538C293.93 105.365 294.039 107.14 294.152 108.822L291.499 106.528V105.544ZM291.499 103.035H293.321L291.499 104.612V103.035ZM291.499 100.527L293.379 102.338H291.499V100.527ZM291.499 98.3957L293.488 96.479C293.563 98.27 293.634 100.008 293.726 101.69L291.499 99.5424V98.3957ZM291.499 95.9036H293.066L291.499 97.411V95.9036ZM291.499 93.6304L293.083 95.2067H291.499V93.6304ZM291.499 91.4058L293.266 89.631C293.321 91.3167 293.358 92.9659 293.413 94.5421L291.499 92.6255V91.4058ZM291.499 89.0434H292.882L291.499 90.4212V89.0434ZM291.499 87.0701L292.732 88.3424H291.499V87.0701ZM291.499 84.7604L293.137 83.0585C293.158 84.7037 293.195 86.284 293.229 87.84L291.499 86.049V84.7604ZM291.499 82.3048H292.899L291.499 83.7555V82.3048ZM291.499 80.4044L292.732 81.6038H291.499V80.4044ZM291.499 78.273L293.083 76.7332C293.083 78.1839 293.099 79.598 293.12 80.996L291.499 79.436V78.273ZM291.499 76.1416H292.694L291.499 77.2884V76.1416ZM291.499 74.3668L291.7 74.7436L291.499 75.1002V74.3668ZM292.088 74.0426L291.829 74.4924L291.57 74.0426H292.088ZM292.105 75.4406H291.57L291.829 74.9746L292.105 75.4406ZM291.959 74.7436L292.18 74.3668V75.1002L291.959 74.7436ZM292.418 74.383L292.602 74.7436L292.418 75.084V74.383ZM292.991 74.0426L292.732 74.4924L292.494 74.0426H292.991ZM292.531 71.8424C292.531 71.6965 292.64 71.6073 292.769 71.6073C292.899 71.6073 293.007 71.6965 293.007 71.8424V72.7703C293.007 72.8959 292.899 73.0053 292.769 73.0053C292.64 73.0053 292.531 72.8959 292.531 72.7703V71.8424ZM292.991 75.4406H292.473L292.732 74.9746L292.991 75.4406ZM292.882 74.7436L293.083 74.3668V75.1205L292.882 74.7436ZM304.858 143.26V144.176L304.62 144.354V144.642H304.398V144.784L304.565 145.019V146.47L304.323 146.664V147.077H302.907C302.811 146.988 302.001 146.093 300.898 143.26H304.858ZM288.659 75.4406L288.935 74.9746L289.194 75.4406H288.659ZM287.773 75.4406L288.032 74.9746L288.291 75.4406H287.773ZM289.269 76.1416V77.2884L288.07 76.1416H289.269ZM288.032 81.6038L289.269 80.4044V81.6038H288.032ZM289.269 82.3048V83.7555L287.87 82.3048H289.269ZM288.032 88.3424L289.269 87.0701V88.3424H288.032ZM289.269 89.0434V90.4212L287.886 89.0434H289.269ZM287.682 95.2067L289.269 93.6304V95.2067H287.682ZM289.269 95.9036V97.411L287.702 95.9036H289.269ZM287.389 102.338L289.269 100.527V102.338H287.389ZM289.269 103.035V104.612L287.443 103.035H289.269ZM287.001 109.413L289.269 107.46V109.413H287.001ZM289.269 110.114V111.885L287.055 110.114H289.269ZM286.412 116.833L289.269 114.539V116.833H286.412ZM289.269 117.513V119.697L286.449 117.513H289.269ZM285.434 125.216L289.269 122.279V125.216H285.434ZM289.269 125.897V128.316L285.693 125.897H289.269ZM284.256 134.034L289.269 130.646V134.034H284.256ZM307.402 153.852C307.402 153.852 307.477 151.717 309.448 151.717C311.399 151.717 311.491 153.852 311.491 153.852H311.307C311.307 154.1 311.529 154.12 311.529 154.12V161.179H307.364V154.12C307.364 154.12 307.585 154.1 307.585 153.852H307.402ZM307.439 137.563C307.439 137.563 307.64 137.563 307.64 137.312H307.477C307.477 137.312 307.548 135.379 309.448 135.379C311.345 135.379 311.42 137.312 311.42 137.312H311.236C311.236 137.563 311.458 137.563 311.458 137.563V144.156C311.215 144.156 311.253 144.354 311.253 144.354V144.516H307.64V144.354C307.64 144.354 307.677 144.156 307.439 144.156V137.563ZM313.483 153.35H313.279C313.279 153.35 313.371 151.073 315.455 151.073C317.535 151.073 317.631 153.35 317.631 153.35H317.443C317.443 153.617 317.665 153.638 317.665 153.638V161.179H313.245V153.638C313.245 153.638 313.483 153.617 313.483 153.35ZM313.245 136.149C313.245 136.149 313.483 136.129 313.483 135.861H313.279C313.279 135.861 313.371 133.73 315.455 133.73C317.535 133.73 317.631 135.861 317.631 135.861H317.443C317.443 136.129 317.665 136.149 317.665 136.149V143.406C317.41 143.422 317.443 143.637 317.443 143.637V143.815H313.462V143.637C313.462 143.637 313.5 143.422 313.245 143.406V136.149ZM320.025 153.35H319.841C319.841 153.35 319.916 151.073 322.017 151.073C324.097 151.073 324.189 153.35 324.189 153.35H323.989C323.989 153.617 324.227 153.638 324.227 153.638V161.179H319.803V153.638C319.803 153.638 320.025 153.617 320.025 153.35ZM319.803 136.149C319.803 136.149 320.025 136.129 320.025 135.861H319.841C319.841 135.861 319.916 133.73 322.017 133.73C324.097 133.73 324.189 135.861 324.189 135.861H323.989C323.989 136.129 324.227 136.149 324.227 136.149V143.406C323.968 143.422 324.005 143.637 324.005 143.637V143.815H320.025V143.637C320.025 143.637 320.062 143.422 319.803 143.406V136.149ZM326.604 153.35H326.382C326.382 153.35 326.474 151.073 328.575 151.073C330.66 151.073 330.751 153.35 330.751 153.35H330.547C330.547 153.617 330.789 153.638 330.789 153.638V161.179H326.345V153.638C326.345 153.638 326.604 153.617 326.604 153.35ZM326.345 136.149C326.345 136.149 326.604 136.129 326.604 135.861H326.382C326.382 135.861 326.474 133.73 328.575 133.73C330.66 133.73 330.751 135.861 330.751 135.861H330.547C330.547 136.129 330.789 136.149 330.789 136.149V143.406C330.53 143.422 330.568 143.637 330.568 143.637V143.815H326.587V143.637C326.587 143.637 326.62 143.422 326.345 143.406V136.149ZM333.145 153.35H332.944C332.944 153.35 333.036 151.073 335.137 151.073C337.218 151.073 337.309 153.35 337.309 153.35H337.109C337.109 153.617 337.347 153.638 337.347 153.638V161.179H332.907V153.638C332.907 153.638 333.145 153.617 333.145 153.35ZM332.907 136.149C332.907 136.149 333.145 136.129 333.145 135.861H332.944C332.944 135.861 333.036 133.73 335.137 133.73C337.218 133.73 337.309 135.861 337.309 135.861H337.109C337.109 136.129 337.347 136.149 337.347 136.149V143.406C337.071 143.422 337.126 143.637 337.126 143.637V143.815H333.145V143.637C333.145 143.637 333.166 143.422 332.907 143.406V136.149ZM339.707 153.35H339.502C339.502 153.35 339.594 151.073 341.679 151.073C343.78 151.073 343.851 153.35 343.851 153.35H343.667C343.667 153.617 343.909 153.638 343.909 153.638V161.179H339.465V153.638C339.465 153.638 339.707 153.617 339.707 153.35ZM339.465 136.149C339.465 136.149 339.707 136.129 339.707 135.861H339.502C339.502 135.861 339.594 133.73 341.679 133.73C343.78 133.73 343.851 135.861 343.851 135.861H343.667C343.667 136.129 343.909 136.149 343.909 136.149V143.406C343.65 143.422 343.688 143.637 343.688 143.637V143.815H339.686V143.637C339.686 143.637 339.724 143.422 339.465 143.406V136.149ZM346.265 153.35H346.065C346.065 153.35 346.14 151.073 348.237 151.073C350.321 151.073 350.43 153.35 350.43 153.35H350.229C350.229 153.617 350.467 153.638 350.467 153.638V161.179H346.027V153.638C346.027 153.638 346.265 153.617 346.265 153.35ZM346.027 136.149C346.027 136.149 346.265 136.129 346.265 135.861H346.065C346.065 135.861 346.14 133.73 348.237 133.73C350.321 133.73 350.43 135.861 350.43 135.861H350.229C350.229 136.129 350.467 136.149 350.467 136.149V143.406C350.192 143.422 350.229 143.637 350.229 143.637V143.815H346.248V143.637C346.248 143.637 346.286 143.422 346.027 143.406V136.149ZM352.827 153.35H352.623C352.623 153.35 352.698 151.073 354.799 151.073C356.883 151.073 356.975 153.35 356.975 153.35H356.771C356.771 153.617 357.009 153.638 357.009 153.638V161.179H352.589V153.638C352.589 153.638 352.827 153.617 352.827 153.35ZM352.589 136.149C352.589 136.149 352.827 136.129 352.827 135.861H352.623C352.623 135.861 352.698 133.73 354.799 133.73C356.883 133.73 356.975 135.861 356.975 135.861H356.771C356.771 136.129 357.009 136.149 357.009 136.149V143.406C356.754 143.422 356.791 143.637 356.791 143.637V143.815H352.811V143.637C352.811 143.637 352.844 143.422 352.589 143.406V136.149ZM358.763 153.852C358.763 153.852 358.834 151.717 360.806 151.717C362.777 151.717 362.869 153.852 362.869 153.852H362.669C362.669 154.1 362.907 154.12 362.907 154.12V161.179H358.725V154.12C358.725 154.12 358.947 154.1 358.947 153.852H358.763ZM358.796 137.563C358.796 137.563 359.018 137.563 359.018 137.312H358.834C358.834 137.312 358.909 135.379 360.806 135.379C362.706 135.379 362.777 137.312 362.777 137.312H362.593C362.593 137.563 362.815 137.563 362.815 137.563V144.156C362.577 144.156 362.614 144.354 362.614 144.354V144.516H359.001V144.354C359.001 144.354 359.039 144.156 358.796 144.156V137.563ZM158.831 143.224V141.469H159.976V143.224H158.831ZM158.831 137.437H159.976V139.192H158.831V137.437ZM158.831 129.374H159.976V131.132H158.831V129.374ZM158.831 125.342H159.976V127.101H158.831V125.342ZM158.831 121.31H159.976V123.069H158.831V121.31ZM158.831 117.278H159.976V119.037H158.831V117.278ZM158.831 109.219H159.976V110.973H158.831V109.219ZM158.831 105.187H159.976V106.941H158.831V105.187ZM158.831 101.155H159.976V102.91H158.831V101.155ZM158.831 93.0915H159.976V94.846H158.831V93.0915ZM158.831 85.0278H159.976V86.7824H158.831V85.0278ZM158.831 80.996H159.976V82.7506H158.831V80.996ZM158.831 76.9642H159.976V78.7228H158.831V76.9642ZM158.831 72.9324H159.976V74.691H158.831V72.9324ZM161.116 137.437H162.26V139.192H161.116V137.437ZM161.116 133.406H162.26V135.164H161.116V133.406ZM161.116 125.342H162.26V127.101H161.116V125.342ZM161.116 117.278H162.26V119.037H161.116V117.278ZM161.116 113.251H162.26V115.005H161.116V113.251ZM161.116 109.219H162.26V110.973H161.116V109.219ZM161.116 105.187H162.26V106.941H161.116V105.187ZM161.116 101.155H162.26V102.91H161.116V101.155ZM161.116 97.1233H162.26V98.8779H161.116V97.1233ZM161.116 93.0915H162.26V94.846H161.116V93.0915ZM161.116 85.0278H162.26V86.7824H161.116V85.0278ZM161.116 76.9642H162.26V78.7228H161.116V76.9642ZM161.116 72.9324H162.26V74.691H161.116V72.9324ZM161.116 68.9005H162.26V70.6591H161.116V68.9005ZM163.401 141.469H164.562V143.224H163.401V141.469ZM163.401 133.406H164.562V135.164H163.401V133.406ZM163.401 129.374H164.562V131.132H163.401V129.374ZM163.401 121.31H164.562V123.069H163.401V121.31ZM163.401 113.251H164.562V115.005H163.401V113.251ZM163.401 105.187H164.562V106.941H163.401V105.187ZM163.401 97.1233H164.562V98.8779H163.401V97.1233ZM163.401 89.0597H164.562V90.8142H163.401V89.0597ZM163.401 80.996H164.562V82.7506H163.401V80.996ZM163.401 72.9324H164.562V74.691H163.401V72.9324ZM163.401 68.9005H164.562V70.6591H163.401V68.9005ZM165.69 141.469H166.847V143.224H165.69V141.469ZM165.69 137.437H166.847V139.192H165.69V137.437ZM165.69 129.374H166.847V131.132H165.69V129.374ZM165.69 125.342H166.847V127.101H165.69V125.342ZM165.69 121.31H166.847V123.069H165.69V121.31ZM165.69 117.278H166.847V119.037H165.69V117.278ZM165.69 109.219H166.847V110.973H165.69V109.219ZM165.69 101.155H166.847V102.91H165.69V101.155ZM165.69 93.0915H166.847V94.846H165.69V93.0915ZM165.69 89.0597H166.847V90.8142H165.69V89.0597ZM165.69 85.0278H166.847V86.7824H165.69V85.0278ZM165.69 80.996H166.847V82.7506H165.69V80.996ZM165.69 76.9642H166.847V78.7228H165.69V76.9642ZM167.991 141.469H169.136V143.224H167.991V141.469ZM167.991 137.437H169.136V139.192H167.991V137.437ZM167.991 133.406H169.136V135.164H167.991V133.406ZM167.991 125.342H169.136V127.101H167.991V125.342ZM167.991 121.31H169.136V123.069H167.991V121.31ZM167.991 117.278H169.136V119.037H167.991V117.278ZM167.991 113.251H169.136V115.005H167.991V113.251ZM167.991 105.187H169.136V106.941H167.991V105.187ZM167.991 101.155H169.136V102.91H167.991V101.155ZM167.991 97.1233H169.136V98.8779H167.991V97.1233ZM167.991 93.0915H169.136V94.846H167.991V93.0915ZM167.991 85.0278H169.136V86.7824H167.991V85.0278ZM167.991 76.9642H169.136V78.7228H167.991V76.9642ZM167.991 72.9324H169.136V74.691H167.991V72.9324ZM167.991 68.9005H169.136V70.6591H167.991V68.9005ZM170.276 141.469H171.421V143.224H170.276V141.469ZM170.276 133.406H171.421V135.164H170.276V133.406ZM170.276 129.374H171.421V131.132H170.276V129.374ZM170.276 121.31H171.421V123.069H170.276V121.31ZM170.276 113.251H171.421V115.005H170.276V113.251ZM170.276 109.219H171.421V110.973H170.276V109.219ZM170.276 101.155H171.421V102.91H170.276V101.155ZM170.276 97.1233H171.421V98.8779H170.276V97.1233ZM170.276 93.0915H171.421V94.846H170.276V93.0915ZM170.276 89.0597H171.421V90.8142H170.276V89.0597ZM170.276 80.996H171.421V82.7506H170.276V80.996ZM170.276 76.9642H171.421V78.7228H170.276V76.9642ZM170.276 68.9005H171.421V70.6591H170.276V68.9005ZM172.561 137.437H173.706V139.192H172.561V137.437ZM172.561 129.374H173.706V131.132H172.561V129.374ZM172.561 125.342H173.706V127.101H172.561V125.342ZM172.561 117.278H173.706V119.037H172.561V117.278ZM172.561 109.219H173.706V110.973H172.561V109.219ZM172.561 105.187H173.706V106.941H172.561V105.187ZM172.561 97.1233H173.706V98.8779H172.561V97.1233ZM172.561 89.0597H173.706V90.8142H172.561V89.0597ZM172.561 85.0278H173.706V86.7824H172.561V85.0278ZM172.561 80.996H173.706V82.7506H172.561V80.996ZM172.561 72.9324H173.706V74.691H172.561V72.9324ZM172.561 68.9005H173.706V70.6591H172.561V68.9005ZM174.846 141.469H176.007V143.224H174.846V141.469ZM174.846 133.406H176.007V135.164H174.846V133.406ZM174.846 121.31H176.007V123.069H174.846V121.31ZM174.846 117.278H176.007V119.037H174.846V117.278ZM174.846 113.251H176.007V115.005H174.846V113.251ZM174.846 109.219H176.007V110.973H174.846V109.219ZM174.846 105.187H176.007V106.941H174.846V105.187ZM174.846 101.155H176.007V102.91H174.846V101.155ZM174.846 93.0915H176.007V94.846H174.846V93.0915ZM174.846 89.0597H176.007V90.8142H174.846V89.0597ZM174.846 85.0278H176.007V86.7824H174.846V85.0278ZM174.846 76.9642H176.007V78.7228H174.846V76.9642ZM174.846 72.9324H176.007V74.691H174.846V72.9324ZM177.152 141.469H178.292V143.224H177.152V141.469ZM177.152 137.437H178.292V139.192H177.152V137.437ZM177.152 133.406H178.292V135.164H177.152V133.406ZM177.152 129.374H178.292V131.132H177.152V129.374ZM177.152 125.342H178.292V127.101H177.152V125.342ZM177.152 117.278H178.292V119.037H177.152V117.278ZM177.152 113.251H178.292V115.005H177.152V113.251ZM177.152 105.187H178.292V106.941H177.152V105.187ZM177.152 101.155H178.292V102.91H177.152V101.155ZM177.152 97.1233H178.292V98.8779H177.152V97.1233ZM177.152 93.0915H178.292V94.846H177.152V93.0915ZM177.152 85.0278H178.292V86.7824H177.152V85.0278ZM177.152 80.996H178.292V82.7506H177.152V80.996ZM177.152 76.9642H178.292V78.7228H177.152V76.9642ZM177.152 72.9324H178.292V74.691H177.152V72.9324ZM177.152 68.9005H178.292V70.6591H177.152V68.9005ZM179.437 137.437H180.577V139.192H179.437V137.437ZM179.437 129.374H180.577V131.132H179.437V129.374ZM179.437 125.342H180.577V127.101H179.437V125.342ZM179.437 121.31H180.577V123.069H179.437V121.31ZM179.437 113.251H180.577V115.005H179.437V113.251ZM179.437 105.187H180.577V106.941H179.437V105.187ZM179.437 97.1233H180.577V98.8779H179.437V97.1233ZM179.437 89.0597H180.577V90.8142H179.437V89.0597ZM179.437 80.996H180.577V82.7506H179.437V80.996ZM179.437 72.9324H180.577V74.691H179.437V72.9324ZM181.721 141.469H182.862V143.224H181.721V141.469ZM181.721 133.406H182.862V135.164H181.721V133.406ZM181.721 129.374H182.862V131.132H181.721V129.374ZM181.721 121.31H182.862V123.069H181.721V121.31ZM181.721 117.278H182.862V119.037H181.721V117.278ZM181.721 113.251H182.862V115.005H181.721V113.251ZM181.721 109.219H182.862V110.973H181.721V109.219ZM181.721 101.155H182.862V102.91H181.721V101.155ZM181.721 93.0915H182.862V94.846H181.721V93.0915ZM181.721 89.0597H182.862V90.8142H181.721V89.0597ZM181.721 85.0278H182.862V86.7824H181.721V85.0278ZM181.721 76.9642H182.862V78.7228H181.721V76.9642ZM181.721 68.9005H182.862V70.6591H181.721V68.9005ZM184.006 141.469H185.147V143.224H184.006V141.469ZM184.006 137.437H185.147V139.192H184.006V137.437ZM184.006 133.406H185.147V135.164H184.006V133.406ZM184.006 125.342H185.147V127.101H184.006V125.342ZM184.006 121.31H185.147V123.069H184.006V121.31ZM184.006 109.219H185.147V110.973H184.006V109.219ZM184.006 105.187H185.147V106.941H184.006V105.187ZM184.006 101.155H185.147V102.91H184.006V101.155ZM184.006 97.1233H185.147V98.8779H184.006V97.1233ZM184.006 93.0915H185.147V94.846H184.006V93.0915ZM184.006 89.0597H185.147V90.8142H184.006V89.0597ZM184.006 80.996H185.147V82.7506H184.006V80.996ZM184.006 76.9642H185.147V78.7228H184.006V76.9642ZM184.006 72.9324H185.147V74.691H184.006V72.9324ZM184.006 68.9005H185.147V70.6591H184.006V68.9005ZM186.291 137.437H187.452V139.192H186.291V137.437ZM186.291 129.374H187.452V131.132H186.291V129.374ZM186.291 125.342H187.452V127.101H186.291V125.342ZM186.291 117.278H187.452V119.037H186.291V117.278ZM186.291 113.251H187.452V115.005H186.291V113.251ZM186.291 105.187H187.452V106.941H186.291V105.187ZM186.291 97.1233H187.452V98.8779H186.291V97.1233ZM186.291 93.0915H187.452V94.846H186.291V93.0915ZM186.291 85.0278H187.452V86.7824H186.291V85.0278ZM186.291 80.996H187.452V82.7506H186.291V80.996ZM186.291 68.9005H187.452V70.6591H186.291V68.9005ZM188.593 141.469H189.737V143.224H188.593V141.469ZM188.593 133.406H189.737V135.164H188.593V133.406ZM188.593 129.374H189.737V131.132H188.593V129.374ZM188.593 121.31H189.737V123.069H188.593V121.31ZM188.593 113.251H189.737V115.005H188.593V113.251ZM188.593 109.219H189.737V110.973H188.593V109.219ZM188.593 105.187H189.737V106.941H188.593V105.187ZM188.593 101.155H189.737V102.91H188.593V101.155ZM188.593 93.0915H189.737V94.846H188.593V93.0915ZM188.593 89.0597H189.737V90.8142H188.593V89.0597ZM188.593 85.0278H189.737V86.7824H188.593V85.0278ZM188.593 80.996H189.737V82.7506H188.593V80.996ZM188.593 76.9642H189.737V78.7228H188.593V76.9642ZM188.593 72.9324H189.737V74.691H188.593V72.9324ZM157.691 70.6591H156.546V68.9005H157.691V70.6591ZM157.691 78.7228H156.546V76.9642H157.691V78.7228ZM157.691 82.7506H156.546V80.996H157.691V82.7506ZM157.691 90.8142H156.546V89.0597H157.691V90.8142ZM157.691 98.8779H156.546V97.1233H157.691V98.8779ZM157.691 102.91H156.546V101.155H157.691V102.91ZM157.691 106.941H156.546V105.187H157.691V106.941ZM157.691 115.005H156.546V113.251H157.691V115.005ZM157.691 119.037H156.546V117.278H157.691V119.037ZM157.691 127.101H156.546V125.342H157.691V127.101ZM157.691 135.164H156.546V133.406H157.691V135.164ZM157.691 143.224H156.546V141.469H157.691V143.224ZM190.878 141.469H192.022V143.224H190.878V141.469ZM190.878 137.437H192.022V139.192H190.878V137.437ZM190.878 129.374H192.022V131.132H190.878V129.374ZM190.878 125.342H192.022V127.101H190.878V125.342ZM190.878 121.31H192.022V123.069H190.878V121.31ZM190.878 117.278H192.022V119.037H190.878V117.278ZM190.878 109.219H192.022V110.973H190.878V109.219ZM190.878 101.155H192.022V102.91H190.878V101.155ZM190.878 97.1233H192.022V98.8779H190.878V97.1233ZM190.878 89.0597H192.022V90.8142H190.878V89.0597ZM190.878 85.0278H192.022V86.7824H190.878V85.0278ZM190.878 76.9642H192.022V78.7228H190.878V76.9642ZM190.878 72.9324H192.022V74.691H190.878V72.9324ZM190.878 68.9005H192.022V70.6591H190.878V68.9005ZM291.57 54.4954H291.683V55.1235H291.57V54.4954ZM291.57 53.458H291.683V54.0294H291.57V53.458ZM291.57 52.3437H291.683V52.9921H291.57V52.3437ZM387.564 161.179H365.597V159.173L365.467 158.974V148.244L366.779 147.868V147.527L367.255 147.239V147.077H365.931V146.664L365.689 146.47V145.019L365.856 144.784V144.642H365.634V144.354L365.396 144.176L365.342 134.824C365.342 134.824 365.396 134.411 365.359 134.139C365.321 133.892 365.542 133.924 365.542 133.71C365.526 133.479 365.597 133.244 365.359 133.191C365.1 133.138 365.375 132.96 365.359 132.62V131.631H365.505V131.201H366.094V130.792H366.816V130.431H365.801V129.447L365.45 129.159V126.975L365.726 126.598V126.221H363.571V123.231C363.571 123.231 364.527 94.7569 335.137 94.7569C305.727 94.7569 306.683 123.231 306.683 123.231V126.221H304.528V126.598L304.803 126.975V129.159L304.473 129.447V130.431H303.438V130.792H304.177V131.201H304.749V131.631H304.895V132.62C304.879 132.96 305.154 133.138 304.895 133.191C304.657 133.244 304.728 133.479 304.728 133.71C304.712 133.924 304.933 133.892 304.895 134.139C304.858 134.411 304.895 134.824 304.895 134.824L304.858 141.595H300.288C299.716 139.857 299.072 137.616 298.446 134.751C296.604 126.221 294.428 110.309 294.077 81.9442V81.928C294.039 79.4724 294.022 76.9277 294.022 74.2939C294.135 74.2047 294.206 74.0791 294.206 73.917V73.1674C294.87 72.6285 296.307 71.3926 296.307 70.4971V69.869C296.307 69.8528 296.307 69.8163 296.307 69.7961C296.232 69.4395 295.827 68.7587 294.741 68.7587H293.212V65.6589C293.212 65.5333 293.174 65.4239 293.099 65.355L293.083 65.3347V59.7631C293.174 59.6902 293.266 59.5483 293.266 59.4065V58.4543C293.266 58.203 293.045 58.0085 292.786 58.0085H291.57V55.5894H291.921C292.051 55.5894 292.159 55.48 292.159 55.3544V52.1128C292.159 51.9871 292.051 51.898 291.921 51.898H291.57V37.4726C291.57 37.347 291.462 37.2416 291.332 37.2416H289.674V36.2205C289.674 36.0949 289.561 35.9855 289.436 35.9855C289.306 35.9855 289.194 36.0949 289.194 36.2205V51.898H288.843C288.713 51.898 288.605 51.9871 288.605 52.1128V55.3544C288.605 55.48 288.713 55.5894 288.843 55.5894H289.194V58.0085H287.978C287.719 58.0085 287.498 58.203 287.498 58.4543V59.4065C287.498 59.5483 287.573 59.6902 287.682 59.7631V65.3347L287.665 65.355C287.59 65.4239 287.556 65.5333 287.556 65.6589V68.7587H286.023C284.937 68.7587 284.532 69.4395 284.457 69.7961C284.457 69.8163 284.457 69.8528 284.457 69.869V70.4971C284.457 71.3926 285.894 72.6285 286.558 73.1674V73.917C286.558 74.0791 286.616 74.2047 286.742 74.2939C286.742 76.9277 286.708 79.4724 286.687 81.928V81.9442C286.337 110.309 284.164 126.221 282.301 134.751C281.675 137.616 281.048 139.857 280.476 141.595H278.45V56.0554H276.846V54.1753L260.301 38.1007L243.768 54.1753V56.0554H242.147V140.61H238.517V55.3017H230.021V53.924H222.264V52.9191H224.954V52.1128H222.502V51.3064C224.491 51.2902 225.781 51.2699 225.781 51.2699C231.512 51.039 230.389 49.9084 230.389 49.9084C223.831 44.3733 200.535 49.9084 200.535 49.9084C199.503 50.3906 200.869 50.7148 203.409 50.9133L208.238 53.4013H204.294V55.3017H196.187V155.587H191.542V151.324H189.257V149.837C189.257 147.402 192.833 146.559 192.833 146.559V65.4968H189.533V64.5851H186.529V65.4968H168.948V62.0201H163.681V65.4968H155.736V146.559C155.736 146.559 159.311 147.402 159.311 149.837V151.324H157.027V155.587H151.776V44.1747C151.776 41.4355 148.384 40.0011 148.384 40.0011L147.812 39.7296V37.1322L140.515 33.6393V33.4083L140.498 28.7849C140.46 25.7215 140.439 22.6379 140.385 19.5543C140.331 16.4909 140.276 13.4113 140.185 10.3479C140.072 7.2643 140.017 4.20092 139.85 1.11729C139.85 1.02814 139.758 0.955203 139.667 0.938995C139.558 0.938995 139.445 1.01193 139.445 1.11729C139.299 4.20092 139.224 7.2643 139.115 10.3479C139.04 13.4113 138.965 16.4909 138.931 19.5543C138.856 22.6379 138.856 25.7215 138.819 28.7849L138.802 32.8329L113.464 20.701V141.469H107.933V114.414H108.543V113.571H108.025V101.548H108.543V100.794H108.117V86.5149H108.911L109.262 85.8504V85.1697H108.873V79.2212C108.873 79.2212 108.451 79.1847 108.209 79.3103C108.209 79.3103 106.221 73.9008 102.186 73.9008V72.5393H102.257V72.0004H102.148V66.7691H102.407V66.3032C102.407 66.3032 102.608 62.2551 99.9718 62.2551V60.3709H100.064V59.8725C100.064 59.8725 99.7713 59.7996 99.7713 59.6213V59.3336C99.7713 59.3336 99.9342 59.1715 99.9342 59.0297C99.9342 58.8676 99.6794 58.742 99.6794 58.4907C99.6794 58.2233 99.6794 57.7208 99.6794 57.7208C99.6794 57.7208 99.6961 57.4331 99.3828 57.3643V53.223H101.538V53.2433C101.538 53.3851 101.651 53.4905 101.797 53.4905C101.943 53.4905 102.056 53.3851 102.056 53.2433C102.094 53.2757 102.148 53.296 102.202 53.296C102.349 53.296 102.461 53.1866 102.461 53.0609C102.461 52.9191 102.349 52.8097 102.202 52.8097C102.148 52.8097 102.094 52.83 102.056 52.8664C102.056 52.7206 101.943 52.6152 101.797 52.6152C101.651 52.6152 101.538 52.7206 101.538 52.8664V52.8827H99.3828V50.4473C99.3995 50.4473 99.3995 50.4636 99.4204 50.4636C99.5666 50.4636 99.6794 50.3379 99.6794 50.2123C99.6794 50.0705 99.5666 49.9611 99.4204 49.9611C99.458 49.9084 99.4747 49.8557 99.4747 49.8031C99.4747 49.6572 99.3661 49.5518 99.2157 49.5518C99.0695 49.5518 98.9609 49.6572 98.9609 49.8031C98.9609 49.8557 98.9943 49.9084 99.0152 49.9611C98.8857 49.9611 98.773 50.0705 98.773 50.2123C98.773 50.3379 98.8857 50.4636 99.0152 50.4636C99.0319 50.4636 99.0528 50.4473 99.0528 50.4473V52.8827H96.8933V52.8664C96.8933 52.7206 96.7847 52.6152 96.6552 52.6152C96.509 52.6152 96.3962 52.7206 96.3962 52.8664C96.3419 52.83 96.2876 52.8097 96.2333 52.8097C96.0829 52.8097 95.9743 52.9191 95.9743 53.0609C95.9743 53.1866 96.0829 53.296 96.2333 53.296C96.2876 53.296 96.3419 53.2757 96.3962 53.2433C96.3962 53.3851 96.509 53.4905 96.6552 53.4905C96.7847 53.4905 96.8933 53.3851 96.8933 53.2433V53.223H99.0528V57.3643C98.7395 57.4331 98.7562 57.7208 98.7562 57.7208C98.7562 57.7208 98.7562 58.2233 98.7562 58.4907C98.7562 58.742 98.4973 58.8676 98.4973 59.0297C98.4973 59.1715 98.6644 59.3336 98.6644 59.3336V59.6213C98.6644 59.7996 98.3678 59.8725 98.3678 59.8725V60.3709H98.4597V62.2551C95.8281 62.2551 96.0286 66.3032 96.0286 66.3032V66.7691H96.2876V72.0004H96.1957V72.5393H96.2667V73.9008C92.2316 73.9008 90.2225 79.3103 90.2225 79.3103C89.9844 79.1847 89.5625 79.2212 89.5625 79.2212V85.1697H89.1907V85.8504L89.5249 86.5149H90.3353V100.794H89.8925V101.548H90.4063V113.571H89.8925V114.414H90.5023V151.575H83.2217V140.93C83.5517 140.716 83.6101 140.359 83.6101 140.359C83.6101 139.857 83.4055 139.804 83.4055 139.804L82.8332 139.391V108.607L83.1089 107.926L82.5032 106.208V92.4269L82.7956 90.8709H82.8708L83.1674 88.6463L81.0454 88.075H77.7121V87.8035H77.5617C77.5617 87.8035 76.8433 87.2322 76.7723 79.9019H78.0797V79.436H76.7723C76.7514 79.2415 76.7514 79.0267 76.7514 78.7917C76.7514 78.7917 76.789 78.1636 76.5885 78.1636C76.3671 78.1636 76.4047 78.7917 76.4047 78.7917C76.4047 79.0267 76.4047 79.2415 76.4047 79.436H75.0931V79.9019H76.3838C76.3295 87.2322 75.5901 87.8035 75.5901 87.8035H75.4439V88.075H72.1273L69.9887 88.6463L70.2852 90.8709H70.3563L70.6695 92.4269V102.265C70.6695 102.265 59.1366 98.5375 59.1366 97.9823C59.1366 97.411 59.8718 97.6784 59.8718 97.1395C59.8718 96.6046 58.7857 96.8883 58.7857 96.3534C58.7857 95.8145 58.5101 95.7983 58.3597 95.7983C58.2135 95.7983 57.9545 95.8145 57.9545 96.3534C57.9545 96.8883 56.8685 96.6046 56.8685 97.1395C56.8685 97.6784 57.6078 97.411 57.6078 97.9823C57.6078 98.5375 46.0707 102.265 46.0707 102.265V92.4269L46.384 90.8709H46.455L46.7516 88.6463L44.6129 88.075H41.2963V87.8035H41.1292C41.1292 87.8035 40.4107 87.2322 40.3397 79.9019H41.6472V79.436H40.3397C40.3397 79.2415 40.3397 79.0267 40.3397 78.7917C40.3397 78.7917 40.3773 78.1636 40.1559 78.1636C39.9346 78.1636 39.968 78.7917 39.968 78.7917C39.968 79.0267 39.968 79.2415 39.968 79.436H38.6606V79.9019H39.968C39.897 87.2322 39.1785 87.8035 39.1785 87.8035H39.0114V88.075H35.6948L33.577 88.6463L33.8527 90.8709H33.9446L34.237 92.4269V106.208L33.6313 107.926L33.907 108.607V139.391L33.3348 139.804C33.3348 139.804 33.1134 139.857 33.1134 140.359C33.1134 140.359 33.1719 140.716 33.5186 140.93V159.136L33.1134 159.529V161.179H5.43603C0.218853 161.179 -4 165.283 -4 170.353H397C397 165.283 392.781 161.179 387.564 161.179Z" fill="#00EADE"/>
</svg>
