<svg width="97" height="99" viewBox="0 0 97 99" fill="none" xmlns="http://www.w3.org/2000/svg">
<path d="M72.3389 0C59.0737 0 48.226 10.8477 48.226 24.113C48.226 28.1004 49.7644 32.1663 51.7424 36.6718C53.7205 41.1773 56.2165 45.9497 58.7754 50.361C63.8931 59.1836 69.0736 66.5619 69.0736 66.5619L72.3389 71.3342L75.6042 66.5619C75.6042 66.5619 80.7848 59.1836 85.9025 50.361C88.4614 45.9497 90.9574 41.1773 92.9355 36.6718C94.9135 32.1663 96.4519 28.1004 96.4519 24.113C96.4519 10.8477 85.6042 0 72.3389 0ZM32.0251 7.78648L0 21.4756V98.5869L32.2762 84.6466L64.4269 96.7031L96.4519 83.014V47.9748C93.8931 52.8884 91.0516 57.598 88.4143 61.7895V77.7392L68.3201 86.2793V79.7487L62.4175 71.2086C61.7895 70.2981 61.0517 69.2149 60.2825 68.0689V86.656L36.1695 77.6137V17.8336L40.5651 19.4662C40.9575 16.7504 41.664 14.1287 42.7001 11.6797L32.0251 7.78648ZM72.3389 8.03766C81.2557 8.03766 88.4143 15.1962 88.4143 24.113C88.4143 25.6671 87.441 29.3406 85.6513 33.4065C83.8617 37.4725 81.3342 42.0878 78.8695 46.3421C75.5885 51.9936 74.1757 54.003 72.3389 56.766C70.5022 54.003 69.0893 51.9936 65.8083 46.3421C63.3437 42.0878 60.8162 37.4725 59.0266 33.4065C57.2369 29.3406 56.2636 25.6671 56.2636 24.113C56.2636 15.1962 63.4222 8.03766 72.3389 8.03766ZM28.1318 18.0847V77.7392L8.03766 86.2793V26.7503L28.1318 18.0847ZM72.3389 18.0847C69.0109 18.0847 66.3107 20.7849 66.3107 24.113C66.3107 27.4411 69.0109 30.1412 72.3389 30.1412C75.667 30.1412 78.3672 27.4411 78.3672 24.113C78.3672 20.7849 75.667 18.0847 72.3389 18.0847Z" fill="#14D2E6"/>
</svg>
