<svg width="21" height="21" viewBox="0 0 21 21" fill="none" xmlns="http://www.w3.org/2000/svg">
<path d="M16.6862 4.21033C15.2506 2.80002 13.3557 1.92276 11.3283 1.72979C9.3009 1.53682 7.26805 2.04024 5.58021 3.15325C3.89237 4.26626 2.6553 5.91911 2.08229 7.82686C1.50928 9.7346 1.63622 11.7777 2.44125 13.6039C2.52515 13.7736 2.55268 13.9647 2.52 14.1504L1.75 17.7627C1.72033 17.9011 1.72639 18.0447 1.76763 18.1803C1.80886 18.316 1.88399 18.4395 1.98625 18.5398C2.07008 18.621 2.16989 18.6848 2.27966 18.7274C2.38944 18.7699 2.50691 18.7903 2.625 18.7874H2.8L6.545 18.053C6.73534 18.0307 6.92835 18.0572 7.105 18.1299C8.97619 18.9155 11.0696 19.0394 13.0244 18.4802C14.9791 17.9209 16.6727 16.7136 17.8131 15.0664C18.9536 13.4191 19.4694 11.4352 19.2717 9.45653C19.0739 7.47789 18.1751 5.62858 16.73 4.22741L16.6862 4.21033ZM7 11.1018C6.82694 11.1018 6.65777 11.0517 6.51387 10.9579C6.36998 10.864 6.25783 10.7307 6.1916 10.5746C6.12538 10.4186 6.10805 10.2469 6.14181 10.0812C6.17557 9.91557 6.25891 9.76341 6.38128 9.64398C6.50365 9.52455 6.65956 9.44322 6.82929 9.41027C6.99903 9.37732 7.17496 9.39423 7.33485 9.45887C7.49473 9.5235 7.63139 9.63296 7.72753 9.77339C7.82368 9.91382 7.875 10.0789 7.875 10.2478C7.875 10.4743 7.78281 10.6915 7.61872 10.8517C7.45462 11.0118 7.23206 11.1018 7 11.1018ZM10.5 11.1018C10.3269 11.1018 10.1578 11.0517 10.0139 10.9579C9.86998 10.864 9.75783 10.7307 9.6916 10.5746C9.62538 10.4186 9.60805 10.2469 9.64181 10.0812C9.67557 9.91557 9.75891 9.76341 9.88128 9.64398C10.0037 9.52455 10.1596 9.44322 10.3293 9.41027C10.499 9.37732 10.675 9.39423 10.8348 9.45887C10.9947 9.5235 11.1314 9.63296 11.2275 9.77339C11.3237 9.91382 11.375 10.0789 11.375 10.2478C11.375 10.4743 11.2828 10.6915 11.1187 10.8517C10.9546 11.0118 10.7321 11.1018 10.5 11.1018ZM14 11.1018C13.8269 11.1018 13.6578 11.0517 13.5139 10.9579C13.37 10.864 13.2578 10.7307 13.1916 10.5746C13.1254 10.4186 13.108 10.2469 13.1418 10.0812C13.1756 9.91557 13.2589 9.76341 13.3813 9.64398C13.5037 9.52455 13.6596 9.44322 13.8293 9.41027C13.999 9.37732 14.175 9.39423 14.3348 9.45887C14.4947 9.5235 14.6314 9.63296 14.7275 9.77339C14.8237 9.91382 14.875 10.0789 14.875 10.2478C14.875 10.4743 14.7828 10.6915 14.6187 10.8517C14.4546 11.0118 14.2321 11.1018 14 11.1018Z" fill="white"/>
</svg>
