<svg width="49" height="46" viewBox="0 0 49 46" fill="none" xmlns="http://www.w3.org/2000/svg">
<path fill-rule="evenodd" clip-rule="evenodd" d="M38.8469 0H10.0218V3.34406L0 3.34406V19.0297C0 25.0918 6.76535 30.0803 13.4048 30.5993C15.5845 32.9346 19.4183 34.6309 22.8304 35.3542V39.454C19.5675 40.4563 13.7389 42.811 13.4048 45.3767H35.7982C35.4608 42.811 29.0385 40.453 25.7691 39.454V35.3542C29.1942 34.6309 33.1999 32.9346 35.3828 30.5993C42.019 30.0803 48.4866 25.0918 48.4866 19.0297V3.34406H38.8469V0ZM3.07748 6.31637H9.7883V19.8276C9.7883 22.4937 10.4759 25.0302 11.6858 27.3136C6.6648 25.7145 3.07748 21.5953 3.07748 16.7754V6.31637ZM29.3635 22.7954L24.3544 20.0352L19.3398 22.7954L20.2973 16.9571L16.2429 12.8248L21.8444 11.9718L24.3544 6.66541L26.8589 11.9718L32.4604 12.8248L28.4087 16.9571L29.3635 22.7954ZM36.8067 27.745C38.023 25.3578 38.7204 22.7175 38.7204 19.9249V6.40348H45.4474V16.7365C45.4474 21.7737 41.8439 26.0746 36.8067 27.745Z" fill="white"/>
</svg>
