<svg width="36" height="33" viewBox="0 0 36 33" fill="none" xmlns="http://www.w3.org/2000/svg">
<path fill-rule="evenodd" clip-rule="evenodd" d="M6.6825 0.755323C6.89374 0.518442 7.15598 0.328265 7.45118 0.197875C7.74637 0.0674861 8.06751 -2.0503e-05 8.3925 4.6711e-09H27.6075C27.9325 -2.0503e-05 28.2536 0.0674861 28.5488 0.197875C28.844 0.328265 29.1063 0.518442 29.3175 0.755323L35.1878 7.32447C35.7119 7.9111 36 8.65818 36 9.43074V9.98105C36.0001 11.0492 35.6523 12.0908 35.0051 12.9601C34.3579 13.8294 33.4437 14.483 32.3903 14.8297C31.3368 15.1763 30.1968 15.1986 29.1295 14.8934C28.0623 14.5882 27.1211 13.9708 26.4375 13.1275C25.9383 13.7442 25.2986 14.2432 24.5674 14.5862C23.8361 14.9292 23.0328 15.1072 22.2188 15.1065C21.4047 15.1073 20.6013 14.9294 19.87 14.5864C19.1387 14.2434 18.4991 13.7443 18 13.1275C17.5009 13.7443 16.8613 14.2434 16.13 14.5864C15.3987 14.9294 14.5953 15.1073 13.7812 15.1065C12.9672 15.1073 12.1638 14.9294 11.4325 14.5864C10.7012 14.2434 10.0616 13.7443 9.5625 13.1275C8.87893 13.9708 7.93774 14.5882 6.87046 14.8934C5.80318 15.1986 4.66316 15.1763 3.60973 14.8297C2.5563 14.483 1.6421 13.8294 0.99491 12.9601C0.347719 12.0908 -0.000122847 11.0492 3.25452e-08 9.98105V9.43074C2.8367e-05 8.65818 0.288127 7.9111 0.81225 7.32447L6.68475 0.753164L6.6825 0.755323ZM10.6875 9.98105C10.6875 10.768 11.0134 11.5228 11.5936 12.0793C12.1738 12.6358 12.9607 12.9484 13.7812 12.9484C14.6018 12.9484 15.3887 12.6358 15.9689 12.0793C16.5491 11.5228 16.875 10.768 16.875 9.98105C16.875 9.69487 16.9935 9.42041 17.2045 9.21806C17.4155 9.0157 17.7016 8.90202 18 8.90202C18.2984 8.90202 18.5845 9.0157 18.7955 9.21806C19.0065 9.42041 19.125 9.69487 19.125 9.98105C19.125 10.768 19.4509 11.5228 20.0311 12.0793C20.6113 12.6358 21.3982 12.9484 22.2188 12.9484C23.0393 12.9484 23.8262 12.6358 24.4064 12.0793C24.9866 11.5228 25.3125 10.768 25.3125 9.98105C25.3125 9.69487 25.431 9.42041 25.642 9.21806C25.853 9.0157 26.1391 8.90202 26.4375 8.90202C26.7359 8.90202 27.022 9.0157 27.233 9.21806C27.444 9.42041 27.5625 9.69487 27.5625 9.98105C27.5625 10.768 27.8884 11.5228 28.4686 12.0793C29.0488 12.6358 29.8357 12.9484 30.6562 12.9484C31.4768 12.9484 32.2637 12.6358 32.8439 12.0793C33.4241 11.5228 33.75 10.768 33.75 9.98105V9.43074C33.75 9.17356 33.6543 8.92483 33.48 8.72937L27.6075 2.15806H8.3925L2.52 8.72937C2.34573 8.92483 2.24998 9.17356 2.25 9.43074V9.98105C2.25 10.768 2.57595 11.5228 3.15614 12.0793C3.73633 12.6358 4.52324 12.9484 5.34375 12.9484C6.16426 12.9484 6.95117 12.6358 7.53136 12.0793C8.11155 11.5228 8.4375 10.768 8.4375 9.98105C8.4375 9.69487 8.55603 9.42041 8.767 9.21806C8.97798 9.0157 9.26413 8.90202 9.5625 8.90202C9.86087 8.90202 10.147 9.0157 10.358 9.21806C10.569 9.42041 10.6875 9.69487 10.6875 9.98105ZM3.375 16.1855C3.67337 16.1855 3.95952 16.2992 4.1705 16.5015C4.38147 16.7039 4.5 16.9783 4.5 17.2645V30.2129H31.5V17.2645C31.5 16.9783 31.6185 16.7039 31.8295 16.5015C32.0405 16.2992 32.3266 16.1855 32.625 16.1855C32.9234 16.1855 33.2095 16.2992 33.4205 16.5015C33.6315 16.7039 33.75 16.9783 33.75 17.2645V30.2129H34.875C35.1734 30.2129 35.4595 30.3266 35.6705 30.5289C35.8815 30.7313 36 31.0058 36 31.2919C36 31.5781 35.8815 31.8526 35.6705 32.0549C35.4595 32.2573 35.1734 32.371 34.875 32.371H1.125C0.826631 32.371 0.540483 32.2573 0.329505 32.0549C0.118526 31.8526 3.25452e-08 31.5781 3.25452e-08 31.2919C3.25452e-08 31.0058 0.118526 30.7313 0.329505 30.5289C0.540483 30.3266 0.826631 30.2129 1.125 30.2129H2.25V17.2645C2.25 16.9783 2.36853 16.7039 2.5795 16.5015C2.79048 16.2992 3.07663 16.1855 3.375 16.1855ZM7.875 17.2645C8.17337 17.2645 8.45952 17.3782 8.6705 17.5806C8.88147 17.7829 9 18.0574 9 18.3435V25.8968H27V18.3435C27 18.0574 27.1185 17.7829 27.3295 17.5806C27.5405 17.3782 27.8266 17.2645 28.125 17.2645C28.4234 17.2645 28.7095 17.3782 28.9205 17.5806C29.1315 17.7829 29.25 18.0574 29.25 18.3435V25.8968C29.25 26.4691 29.0129 27.018 28.591 27.4228C28.169 27.8275 27.5967 28.0548 27 28.0548H9C8.40326 28.0548 7.83097 27.8275 7.40901 27.4228C6.98705 27.018 6.75 26.4691 6.75 25.8968V18.3435C6.75 18.0574 6.86853 17.7829 7.0795 17.5806C7.29048 17.3782 7.57663 17.2645 7.875 17.2645Z" fill="#FF66C4"/>
</svg>
