<svg width="21" height="23" viewBox="0 0 21 23" fill="none" xmlns="http://www.w3.org/2000/svg">
<path d="M3.15 10.35C4.30828 10.35 5.25 9.31854 5.25 8.04995C5.25 6.78136 4.30828 5.74995 3.15 5.74995C1.99172 5.74995 1.05 6.78136 1.05 8.04995C1.05 9.31854 1.99172 10.35 3.15 10.35ZM17.85 10.35C19.0083 10.35 19.95 9.31854 19.95 8.04995C19.95 6.78136 19.0083 5.74995 17.85 5.74995C16.6917 5.74995 15.75 6.78136 15.75 8.04995C15.75 9.31854 16.6917 10.35 17.85 10.35ZM18.9 11.5H16.8C16.2225 11.5 15.7008 11.7551 15.3202 12.1684C16.6425 12.9626 17.5809 14.3965 17.7844 16.1H19.95C20.5308 16.1 21 15.586 21 14.95V13.8C21 12.5314 20.0583 11.5 18.9 11.5ZM10.5 11.5C12.5311 11.5 14.175 9.69948 14.175 7.47495C14.175 5.25042 12.5311 3.44995 10.5 3.44995C8.46891 3.44995 6.825 5.25042 6.825 7.47495C6.825 9.69948 8.46891 11.5 10.5 11.5ZM13.02 12.65H12.7477C12.0652 13.0093 11.3072 13.225 10.5 13.225C9.69281 13.225 8.93812 13.0093 8.25234 12.65H7.98C5.89312 12.65 4.2 14.5043 4.2 16.79V17.825C4.2 18.7773 4.90547 19.55 5.775 19.55H15.225C16.0945 19.55 16.8 18.7773 16.8 17.825V16.79C16.8 14.5043 15.1069 12.65 13.02 12.65ZM5.67984 12.1684C5.29922 11.7551 4.7775 11.5 4.2 11.5H2.1C0.941719 11.5 0 12.5314 0 13.8V14.95C0 15.586 0.469219 16.1 1.05 16.1H3.21234C3.41906 14.3965 4.3575 12.9626 5.67984 12.1684Z" fill="white"/>
</svg>
